G04 start of page 7 for group -4079 idx -4079 *
G04 Title: (unknown), topsilk *
G04 Creator: pcb 20110918 *
G04 CreationDate: Sat 02 Feb 2013 09:39:00 PM GMT UTC *
G04 For: petersen *
G04 Format: Gerber/RS-274X *
G04 PCB-Dimensions: 165000 50000 *
G04 PCB-Coordinate-Origin: lower left *
%MOIN*%
%FSLAX25Y25*%
%LNTOPSILK*%
%ADD34C,0.0100*%
G54D34*X500Y49500D02*Y500D01*
X164500D01*
Y49500D01*
X500D01*
X2500Y39000D02*X6500D01*
Y37700D02*X5800Y37000D01*
X3200D02*X5800D01*
X2500Y37700D02*X3200Y37000D01*
X2500Y39500D02*Y37700D01*
X6500Y39500D02*Y37700D01*
X2500Y35100D02*Y33800D01*
X3200Y35800D02*X2500Y35100D01*
X3200Y35800D02*X5800D01*
X6500Y35100D01*
Y33800D01*
X2500Y31900D02*Y30600D01*
X3200Y32600D02*X2500Y31900D01*
X3200Y32600D02*X5800D01*
X6500Y31900D01*
Y30600D01*
X2500Y19000D02*X6500D01*
Y17700D02*X5800Y17000D01*
X3200D02*X5800D01*
X2500Y17700D02*X3200Y17000D01*
X2500Y19500D02*Y17700D01*
X6500Y19500D02*Y17700D01*
X2500Y15100D02*Y13800D01*
X3200Y15800D02*X2500Y15100D01*
X3200Y15800D02*X5800D01*
X6500Y15100D01*
Y13800D01*
X2500Y11900D02*Y10600D01*
X3200Y12600D02*X2500Y11900D01*
X3200Y12600D02*X5800D01*
X6500Y11900D01*
Y10600D01*
X158500Y32500D02*X162500Y33500D01*
X158500Y34500D01*
X160500Y37700D02*Y35700D01*
X159500Y36700D02*X161500D01*
X158500Y12000D02*X159000Y12500D01*
X158500Y12000D02*Y10500D01*
X159000Y10000D02*X158500Y10500D01*
X159000Y10000D02*X162000D01*
X162500Y10500D01*
Y12000D02*Y10500D01*
Y12000D02*X162000Y12500D01*
X161000D02*X162000D01*
X160500Y12000D02*X161000Y12500D01*
X160500Y12000D02*Y11000D01*
X158500Y13700D02*X162500D01*
X158500D02*X162500Y16200D01*
X158500D02*X162500D01*
X158500Y17900D02*X162500D01*
X158500Y19200D02*X159200Y19900D01*
X161800D01*
X162500Y19200D02*X161800Y19900D01*
X162500Y19200D02*Y17400D01*
X158500Y19200D02*Y17400D01*
X44000Y40000D02*Y10000D01*
X84000D01*
Y40000D01*
X44000D02*X59000D01*
X69000D02*X84000D01*
X59000D02*G75*G03X69000Y40000I5000J0D01*G01*
X8700Y45000D02*Y5000D01*
X38700Y45000D02*Y5000D01*
X34300Y45000D02*Y5000D01*
X8700Y45000D02*X38700D01*
X8700Y5000D02*X38700D01*
X95000Y18100D02*X100000D01*
X97500Y20600D02*Y15600D01*
X105000Y9000D02*G75*G03X105000Y9000I0J16000D01*G01*
X156300Y45000D02*Y5000D01*
X126300Y45000D02*Y5000D01*
X130700Y45000D02*Y5000D01*
X126300D02*X156300D01*
X126300Y45000D02*X156300D01*
X86500Y40000D02*Y36000D01*
X87800Y40000D02*X88500Y39300D01*
Y36700D01*
X87800Y36000D02*X88500Y36700D01*
X86000Y36000D02*X87800D01*
X86000Y40000D02*X87800D01*
X89700Y39200D02*X90500Y40000D01*
Y36000D01*
X89700D02*X91200D01*
X118200Y8000D02*X119500D01*
X117500Y8700D02*X118200Y8000D01*
X117500Y11300D02*Y8700D01*
Y11300D02*X118200Y12000D01*
X119500D01*
X120700Y11200D02*X121500Y12000D01*
Y8000D01*
X120700D02*X122200D01*
M02*
