G04 start of page 12 for group -3984 idx -3984 *
G04 Title: (unknown), fab *
G04 Creator: pcb 20140316 *
G04 CreationDate: Fri 22 Jan 2016 05:15:40 PM GMT UTC *
G04 For: ndholmes *
G04 Format: Gerber/RS-274X *
G04 PCB-Dimensions (mil): 1550.00 900.00 *
G04 PCB-Coordinate-Origin: lower left *
%MOIN*%
%FSLAX25Y25*%
%LNFAB*%
%ADD65C,0.0100*%
%ADD64C,0.0075*%
%ADD63C,0.0060*%
%ADD62C,0.0080*%
G54D62*X21500Y75000D02*Y71800D01*
Y75000D02*X24273Y76600D01*
X21500Y75000D02*X18727Y76600D01*
X19900Y75000D02*G75*G03X23100Y75000I1600J0D01*G01*
G75*G03X19900Y75000I-1600J0D01*G01*
X21500Y55000D02*Y51800D01*
Y55000D02*X24273Y56600D01*
X21500Y55000D02*X18727Y56600D01*
X19900Y55000D02*G75*G03X23100Y55000I1600J0D01*G01*
G75*G03X19900Y55000I-1600J0D01*G01*
X132000D02*Y51800D01*
Y55000D02*X134773Y56600D01*
X132000Y55000D02*X129227Y56600D01*
X130400Y55000D02*G75*G03X133600Y55000I1600J0D01*G01*
G75*G03X130400Y55000I-1600J0D01*G01*
X132000Y75000D02*Y71800D01*
Y75000D02*X134773Y76600D01*
X132000Y75000D02*X129227Y76600D01*
X130400Y75000D02*G75*G03X133600Y75000I1600J0D01*G01*
G75*G03X130400Y75000I-1600J0D01*G01*
X15000Y101250D02*Y98050D01*
Y101250D02*X17773Y102850D01*
X15000Y101250D02*X12227Y102850D01*
X13400Y101250D02*G75*G03X16600Y101250I1600J0D01*G01*
G75*G03X13400Y101250I-1600J0D01*G01*
G54D63*X135000Y103500D02*X136500Y100500D01*
X138000Y103500D01*
X136500Y100500D02*Y97500D01*
X139800Y100800D02*X142050D01*
X139800Y97500D02*X142800D01*
X139800Y103500D02*Y97500D01*
Y103500D02*X142800D01*
X147600D02*X148350Y102750D01*
X145350Y103500D02*X147600D01*
X144600Y102750D02*X145350Y103500D01*
X144600Y102750D02*Y101250D01*
X145350Y100500D01*
X147600D01*
X148350Y99750D01*
Y98250D01*
X147600Y97500D02*X148350Y98250D01*
X145350Y97500D02*X147600D01*
X144600Y98250D02*X145350Y97500D01*
X98000Y99750D02*X101000Y103500D01*
X98000Y99750D02*X101750D01*
X101000Y103500D02*Y97500D01*
X45000Y98250D02*X45750Y97500D01*
X45000Y102750D02*Y98250D01*
Y102750D02*X45750Y103500D01*
X47250D01*
X48000Y102750D01*
Y98250D01*
X47250Y97500D02*X48000Y98250D01*
X45750Y97500D02*X47250D01*
X45000Y99000D02*X48000Y102000D01*
X49800Y97500D02*X50550D01*
X52350Y98250D02*X53100Y97500D01*
X52350Y102750D02*Y98250D01*
Y102750D02*X53100Y103500D01*
X54600D01*
X55350Y102750D01*
Y98250D01*
X54600Y97500D02*X55350Y98250D01*
X53100Y97500D02*X54600D01*
X52350Y99000D02*X55350Y102000D01*
X57150Y99750D02*X60150Y103500D01*
X57150Y99750D02*X60900D01*
X60150Y103500D02*Y97500D01*
X62700Y98250D02*X63450Y97500D01*
X62700Y99450D02*Y98250D01*
Y99450D02*X63750Y100500D01*
X64650D01*
X65700Y99450D01*
Y98250D01*
X64950Y97500D02*X65700Y98250D01*
X63450Y97500D02*X64950D01*
X62700Y101550D02*X63750Y100500D01*
X62700Y102750D02*Y101550D01*
Y102750D02*X63450Y103500D01*
X64950D01*
X65700Y102750D01*
Y101550D01*
X64650Y100500D02*X65700Y101550D01*
X80900Y14600D02*X84100D01*
X80900D02*Y11400D01*
X84100D01*
Y14600D02*Y11400D01*
X70900Y14600D02*X74100D01*
X70900D02*Y11400D01*
X74100D01*
Y14600D02*Y11400D01*
X60900Y14600D02*X64100D01*
X60900D02*Y11400D01*
X64100D01*
Y14600D02*Y11400D01*
X13400Y117850D02*X16600D01*
X13400D02*Y114650D01*
X16600D01*
Y117850D02*Y114650D01*
X135000Y118500D02*X136500Y115500D01*
X138000Y118500D01*
X136500Y115500D02*Y112500D01*
X139800Y115800D02*X142050D01*
X139800Y112500D02*X142800D01*
X139800Y118500D02*Y112500D01*
Y118500D02*X142800D01*
X147600D02*X148350Y117750D01*
X145350Y118500D02*X147600D01*
X144600Y117750D02*X145350Y118500D01*
X144600Y117750D02*Y116250D01*
X145350Y115500D01*
X147600D01*
X148350Y114750D01*
Y113250D01*
X147600Y112500D02*X148350Y113250D01*
X145350Y112500D02*X147600D01*
X144600Y113250D02*X145350Y112500D01*
X98000Y117750D02*X98750Y118500D01*
X100250D01*
X101000Y117750D01*
X100250Y112500D02*X101000Y113250D01*
X98750Y112500D02*X100250D01*
X98000Y113250D02*X98750Y112500D01*
Y115800D02*X100250D01*
X101000Y117750D02*Y116550D01*
Y115050D02*Y113250D01*
Y115050D02*X100250Y115800D01*
X101000Y116550D02*X100250Y115800D01*
X45000Y113250D02*X45750Y112500D01*
X45000Y117750D02*Y113250D01*
Y117750D02*X45750Y118500D01*
X47250D01*
X48000Y117750D01*
Y113250D01*
X47250Y112500D02*X48000Y113250D01*
X45750Y112500D02*X47250D01*
X45000Y114000D02*X48000Y117000D01*
X49800Y112500D02*X50550D01*
X52350Y113250D02*X53100Y112500D01*
X52350Y117750D02*Y113250D01*
Y117750D02*X53100Y118500D01*
X54600D01*
X55350Y117750D01*
Y113250D01*
X54600Y112500D02*X55350Y113250D01*
X53100Y112500D02*X54600D01*
X52350Y114000D02*X55350Y117000D01*
X57150Y114750D02*X60150Y118500D01*
X57150Y114750D02*X60900D01*
X60150Y118500D02*Y112500D01*
X62700Y118500D02*X65700D01*
X62700D02*Y115500D01*
X63450Y116250D01*
X64950D01*
X65700Y115500D01*
Y113250D01*
X64950Y112500D02*X65700Y113250D01*
X63450Y112500D02*X64950D01*
X62700Y113250D02*X63450Y112500D01*
X121700Y15500D02*G75*G03X123300Y15500I800J0D01*G01*
G75*G03X121700Y15500I-800J0D01*G01*
X131700D02*G75*G03X133300Y15500I800J0D01*G01*
G75*G03X131700Y15500I-800J0D01*G01*
X14200Y131250D02*G75*G03X15800Y131250I800J0D01*G01*
G75*G03X14200Y131250I-800J0D01*G01*
X135000Y133500D02*X136500Y130500D01*
X138000Y133500D01*
X136500Y130500D02*Y127500D01*
X139800Y130800D02*X142050D01*
X139800Y127500D02*X142800D01*
X139800Y133500D02*Y127500D01*
Y133500D02*X142800D01*
X147600D02*X148350Y132750D01*
X145350Y133500D02*X147600D01*
X144600Y132750D02*X145350Y133500D01*
X144600Y132750D02*Y131250D01*
X145350Y130500D01*
X147600D01*
X148350Y129750D01*
Y128250D01*
X147600Y127500D02*X148350Y128250D01*
X145350Y127500D02*X147600D01*
X144600Y128250D02*X145350Y127500D01*
X98000Y132750D02*X98750Y133500D01*
X101000D01*
X101750Y132750D01*
Y131250D01*
X98000Y127500D02*X101750Y131250D01*
X98000Y127500D02*X101750D01*
X45000Y128250D02*X45750Y127500D01*
X45000Y132750D02*Y128250D01*
Y132750D02*X45750Y133500D01*
X47250D01*
X48000Y132750D01*
Y128250D01*
X47250Y127500D02*X48000Y128250D01*
X45750Y127500D02*X47250D01*
X45000Y129000D02*X48000Y132000D01*
X49800Y127500D02*X50550D01*
X52350Y128250D02*X53100Y127500D01*
X52350Y132750D02*Y128250D01*
Y132750D02*X53100Y133500D01*
X54600D01*
X55350Y132750D01*
Y128250D01*
X54600Y127500D02*X55350Y128250D01*
X53100Y127500D02*X54600D01*
X52350Y129000D02*X55350Y132000D01*
X57150Y129750D02*X60150Y133500D01*
X57150Y129750D02*X60900D01*
X60150Y133500D02*Y127500D01*
X62700Y132750D02*X63450Y133500D01*
X64950D01*
X65700Y132750D01*
X64950Y127500D02*X65700Y128250D01*
X63450Y127500D02*X64950D01*
X62700Y128250D02*X63450Y127500D01*
Y130800D02*X64950D01*
X65700Y132750D02*Y131550D01*
Y130050D02*Y128250D01*
Y130050D02*X64950Y130800D01*
X65700Y131550D02*X64950Y130800D01*
X144300Y33200D02*X146700Y30800D01*
X144300D02*X146700Y33200D01*
X104300D02*X106700Y30800D01*
X104300D02*X106700Y33200D01*
X13800Y147450D02*X16200Y145050D01*
X13800D02*X16200Y147450D01*
X135000Y148500D02*X136500Y145500D01*
X138000Y148500D01*
X136500Y145500D02*Y142500D01*
X139800Y145800D02*X142050D01*
X139800Y142500D02*X142800D01*
X139800Y148500D02*Y142500D01*
Y148500D02*X142800D01*
X147600D02*X148350Y147750D01*
X145350Y148500D02*X147600D01*
X144600Y147750D02*X145350Y148500D01*
X144600Y147750D02*Y146250D01*
X145350Y145500D01*
X147600D01*
X148350Y144750D01*
Y143250D01*
X147600Y142500D02*X148350Y143250D01*
X145350Y142500D02*X147600D01*
X144600Y143250D02*X145350Y142500D01*
X98000Y147750D02*X98750Y148500D01*
X101000D01*
X101750Y147750D01*
Y146250D01*
X98000Y142500D02*X101750Y146250D01*
X98000Y142500D02*X101750D01*
X45000Y143250D02*X45750Y142500D01*
X45000Y147750D02*Y143250D01*
Y147750D02*X45750Y148500D01*
X47250D01*
X48000Y147750D01*
Y143250D01*
X47250Y142500D02*X48000Y143250D01*
X45750Y142500D02*X47250D01*
X45000Y144000D02*X48000Y147000D01*
X49800Y142500D02*X50550D01*
X52350Y143250D02*X53100Y142500D01*
X52350Y147750D02*Y143250D01*
Y147750D02*X53100Y148500D01*
X54600D01*
X55350Y147750D01*
Y143250D01*
X54600Y142500D02*X55350Y143250D01*
X53100Y142500D02*X54600D01*
X52350Y144000D02*X55350Y147000D01*
X57150Y147750D02*X57900Y148500D01*
X59400D01*
X60150Y147750D01*
X59400Y142500D02*X60150Y143250D01*
X57900Y142500D02*X59400D01*
X57150Y143250D02*X57900Y142500D01*
Y145800D02*X59400D01*
X60150Y147750D02*Y146550D01*
Y145050D02*Y143250D01*
Y145050D02*X59400Y145800D01*
X60150Y146550D02*X59400Y145800D01*
X61950Y143250D02*X62700Y142500D01*
X61950Y144450D02*Y143250D01*
Y144450D02*X63000Y145500D01*
X63900D01*
X64950Y144450D01*
Y143250D01*
X64200Y142500D02*X64950Y143250D01*
X62700Y142500D02*X64200D01*
X61950Y146550D02*X63000Y145500D01*
X61950Y147750D02*Y146550D01*
Y147750D02*X62700Y148500D01*
X64200D01*
X64950Y147750D01*
Y146550D01*
X63900Y145500D02*X64950Y146550D01*
X100500Y76600D02*Y73400D01*
X98900Y75000D02*X102100D01*
X100500Y56600D02*Y53400D01*
X98900Y55000D02*X102100D01*
X21500Y29500D02*Y26300D01*
X19900Y27900D02*X23100D01*
X21500Y15700D02*Y12500D01*
X19900Y14100D02*X23100D01*
X15000Y162850D02*Y159650D01*
X13400Y161250D02*X16600D01*
X135000Y163500D02*X136500Y160500D01*
X138000Y163500D01*
X136500Y160500D02*Y157500D01*
X139800Y160800D02*X142050D01*
X139800Y157500D02*X142800D01*
X139800Y163500D02*Y157500D01*
Y163500D02*X142800D01*
X147600D02*X148350Y162750D01*
X145350Y163500D02*X147600D01*
X144600Y162750D02*X145350Y163500D01*
X144600Y162750D02*Y161250D01*
X145350Y160500D01*
X147600D01*
X148350Y159750D01*
Y158250D01*
X147600Y157500D02*X148350Y158250D01*
X145350Y157500D02*X147600D01*
X144600Y158250D02*X145350Y157500D01*
X98000Y159750D02*X101000Y163500D01*
X98000Y159750D02*X101750D01*
X101000Y163500D02*Y157500D01*
X45000Y158250D02*X45750Y157500D01*
X45000Y162750D02*Y158250D01*
Y162750D02*X45750Y163500D01*
X47250D01*
X48000Y162750D01*
Y158250D01*
X47250Y157500D02*X48000Y158250D01*
X45750Y157500D02*X47250D01*
X45000Y159000D02*X48000Y162000D01*
X49800Y157500D02*X50550D01*
X52350Y158250D02*X53100Y157500D01*
X52350Y162750D02*Y158250D01*
Y162750D02*X53100Y163500D01*
X54600D01*
X55350Y162750D01*
Y158250D01*
X54600Y157500D02*X55350Y158250D01*
X53100Y157500D02*X54600D01*
X52350Y159000D02*X55350Y162000D01*
X57150Y162750D02*X57900Y163500D01*
X59400D01*
X60150Y162750D01*
X59400Y157500D02*X60150Y158250D01*
X57900Y157500D02*X59400D01*
X57150Y158250D02*X57900Y157500D01*
Y160800D02*X59400D01*
X60150Y162750D02*Y161550D01*
Y160050D02*Y158250D01*
Y160050D02*X59400Y160800D01*
X60150Y161550D02*X59400Y160800D01*
X61950Y158250D02*X62700Y157500D01*
X61950Y162750D02*Y158250D01*
Y162750D02*X62700Y163500D01*
X64200D01*
X64950Y162750D01*
Y158250D01*
X64200Y157500D02*X64950Y158250D01*
X62700Y157500D02*X64200D01*
X61950Y159000D02*X64950Y162000D01*
X49000Y75000D02*Y73400D01*
Y75000D02*X50387Y75800D01*
X49000Y75000D02*X47613Y75800D01*
X49000Y55000D02*Y53400D01*
Y55000D02*X50387Y55800D01*
X49000Y55000D02*X47613Y55800D01*
X79000Y55000D02*Y53400D01*
Y55000D02*X80387Y55800D01*
X79000Y55000D02*X77613Y55800D01*
X79000Y75000D02*Y73400D01*
Y75000D02*X80387Y75800D01*
X79000Y75000D02*X77613Y75800D01*
X15000Y176250D02*Y174650D01*
Y176250D02*X16387Y177050D01*
X15000Y176250D02*X13613Y177050D01*
X135000Y178500D02*X136500Y175500D01*
X138000Y178500D01*
X136500Y175500D02*Y172500D01*
X139800Y175800D02*X142050D01*
X139800Y172500D02*X142800D01*
X139800Y178500D02*Y172500D01*
Y178500D02*X142800D01*
X147600D02*X148350Y177750D01*
X145350Y178500D02*X147600D01*
X144600Y177750D02*X145350Y178500D01*
X144600Y177750D02*Y176250D01*
X145350Y175500D01*
X147600D01*
X148350Y174750D01*
Y173250D01*
X147600Y172500D02*X148350Y173250D01*
X145350Y172500D02*X147600D01*
X144600Y173250D02*X145350Y172500D01*
X98000Y174750D02*X101000Y178500D01*
X98000Y174750D02*X101750D01*
X101000Y178500D02*Y172500D01*
X45000Y173250D02*X45750Y172500D01*
X45000Y177750D02*Y173250D01*
Y177750D02*X45750Y178500D01*
X47250D01*
X48000Y177750D01*
Y173250D01*
X47250Y172500D02*X48000Y173250D01*
X45750Y172500D02*X47250D01*
X45000Y174000D02*X48000Y177000D01*
X49800Y172500D02*X50550D01*
X52350Y173250D02*X53100Y172500D01*
X52350Y177750D02*Y173250D01*
Y177750D02*X53100Y178500D01*
X54600D01*
X55350Y177750D01*
Y173250D01*
X54600Y172500D02*X55350Y173250D01*
X53100Y172500D02*X54600D01*
X52350Y174000D02*X55350Y177000D01*
X57150Y177750D02*X57900Y178500D01*
X60150D01*
X60900Y177750D01*
Y176250D01*
X57150Y172500D02*X60900Y176250D01*
X57150Y172500D02*X60900D01*
X62700Y173250D02*X63450Y172500D01*
X62700Y174450D02*Y173250D01*
Y174450D02*X63750Y175500D01*
X64650D01*
X65700Y174450D01*
Y173250D01*
X64950Y172500D02*X65700Y173250D01*
X63450Y172500D02*X64950D01*
X62700Y176550D02*X63750Y175500D01*
X62700Y177750D02*Y176550D01*
Y177750D02*X63450Y178500D01*
X64950D01*
X65700Y177750D01*
Y176550D01*
X64650Y175500D02*X65700Y176550D01*
X3000Y193500D02*X3750Y192750D01*
X750Y193500D02*X3000D01*
X0Y192750D02*X750Y193500D01*
X0Y192750D02*Y191250D01*
X750Y190500D01*
X3000D01*
X3750Y189750D01*
Y188250D01*
X3000Y187500D02*X3750Y188250D01*
X750Y187500D02*X3000D01*
X0Y188250D02*X750Y187500D01*
X5550Y190500D02*Y188250D01*
X6300Y187500D01*
X8550Y190500D02*Y186000D01*
X7800Y185250D02*X8550Y186000D01*
X6300Y185250D02*X7800D01*
X5550Y186000D02*X6300Y185250D01*
Y187500D02*X7800D01*
X8550Y188250D01*
X11100Y189750D02*Y187500D01*
Y189750D02*X11850Y190500D01*
X12600D01*
X13350Y189750D01*
Y187500D01*
Y189750D02*X14100Y190500D01*
X14850D01*
X15600Y189750D01*
Y187500D01*
X10350Y190500D02*X11100Y189750D01*
X17400Y193500D02*Y187500D01*
Y188250D02*X18150Y187500D01*
X19650D01*
X20400Y188250D01*
Y189750D02*Y188250D01*
X19650Y190500D02*X20400Y189750D01*
X18150Y190500D02*X19650D01*
X17400Y189750D02*X18150Y190500D01*
X22200Y189750D02*Y188250D01*
Y189750D02*X22950Y190500D01*
X24450D01*
X25200Y189750D01*
Y188250D01*
X24450Y187500D02*X25200Y188250D01*
X22950Y187500D02*X24450D01*
X22200Y188250D02*X22950Y187500D01*
X27000Y193500D02*Y188250D01*
X27750Y187500D01*
X0Y184250D02*X29250D01*
X41750Y193500D02*Y187500D01*
X43700Y193500D02*X44750Y192450D01*
Y188550D01*
X43700Y187500D02*X44750Y188550D01*
X41000Y187500D02*X43700D01*
X41000Y193500D02*X43700D01*
G54D64*X46550Y192000D02*Y191850D01*
G54D63*Y189750D02*Y187500D01*
X50300Y190500D02*X51050Y189750D01*
X48800Y190500D02*X50300D01*
X48050Y189750D02*X48800Y190500D01*
X48050Y189750D02*Y188250D01*
X48800Y187500D01*
X51050Y190500D02*Y188250D01*
X51800Y187500D01*
X48800D02*X50300D01*
X51050Y188250D01*
X54350Y189750D02*Y187500D01*
Y189750D02*X55100Y190500D01*
X55850D01*
X56600Y189750D01*
Y187500D01*
Y189750D02*X57350Y190500D01*
X58100D01*
X58850Y189750D01*
Y187500D01*
X53600Y190500D02*X54350Y189750D01*
X60650Y187500D02*X61400D01*
X65900Y188250D02*X66650Y187500D01*
X65900Y192750D02*X66650Y193500D01*
X65900Y192750D02*Y188250D01*
X68450Y193500D02*X69950D01*
X69200D02*Y187500D01*
X68450D02*X69950D01*
X72500Y189750D02*Y187500D01*
Y189750D02*X73250Y190500D01*
X74000D01*
X74750Y189750D01*
Y187500D01*
X71750Y190500D02*X72500Y189750D01*
X77300Y190500D02*X79550D01*
X76550Y189750D02*X77300Y190500D01*
X76550Y189750D02*Y188250D01*
X77300Y187500D01*
X79550D01*
X81350Y193500D02*Y187500D01*
Y189750D02*X82100Y190500D01*
X83600D01*
X84350Y189750D01*
Y187500D01*
X86150Y193500D02*X86900Y192750D01*
Y188250D01*
X86150Y187500D02*X86900Y188250D01*
X41000Y184250D02*X88700D01*
X96050Y187500D02*X98000D01*
X95000Y188550D02*X96050Y187500D01*
X95000Y192450D02*Y188550D01*
Y192450D02*X96050Y193500D01*
X98000D01*
X99800Y189750D02*Y188250D01*
Y189750D02*X100550Y190500D01*
X102050D01*
X102800Y189750D01*
Y188250D01*
X102050Y187500D02*X102800Y188250D01*
X100550Y187500D02*X102050D01*
X99800Y188250D02*X100550Y187500D01*
X104600Y190500D02*Y188250D01*
X105350Y187500D01*
X106850D01*
X107600Y188250D01*
Y190500D02*Y188250D01*
X110150Y189750D02*Y187500D01*
Y189750D02*X110900Y190500D01*
X111650D01*
X112400Y189750D01*
Y187500D01*
X109400Y190500D02*X110150Y189750D01*
X114950Y193500D02*Y188250D01*
X115700Y187500D01*
X114200Y191250D02*X115700D01*
X95000Y184250D02*X117200D01*
X130750Y193500D02*Y187500D01*
X130000Y193500D02*X133000D01*
X133750Y192750D01*
Y191250D01*
X133000Y190500D02*X133750Y191250D01*
X130750Y190500D02*X133000D01*
X135550Y193500D02*Y188250D01*
X136300Y187500D01*
X140050Y190500D02*X140800Y189750D01*
X138550Y190500D02*X140050D01*
X137800Y189750D02*X138550Y190500D01*
X137800Y189750D02*Y188250D01*
X138550Y187500D01*
X140800Y190500D02*Y188250D01*
X141550Y187500D01*
X138550D02*X140050D01*
X140800Y188250D01*
X144100Y193500D02*Y188250D01*
X144850Y187500D01*
X143350Y191250D02*X144850D01*
X147100Y187500D02*X149350D01*
X146350Y188250D02*X147100Y187500D01*
X146350Y189750D02*Y188250D01*
Y189750D02*X147100Y190500D01*
X148600D01*
X149350Y189750D01*
X146350Y189000D02*X149350D01*
Y189750D02*Y189000D01*
X154150Y193500D02*Y187500D01*
X153400D02*X154150Y188250D01*
X151900Y187500D02*X153400D01*
X151150Y188250D02*X151900Y187500D01*
X151150Y189750D02*Y188250D01*
Y189750D02*X151900Y190500D01*
X153400D01*
X154150Y189750D01*
X157450Y190500D02*Y189750D01*
Y188250D02*Y187500D01*
X155950Y192750D02*Y192000D01*
Y192750D02*X156700Y193500D01*
X158200D01*
X158950Y192750D01*
Y192000D01*
X157450Y190500D02*X158950Y192000D01*
X130000Y184250D02*X160750D01*
X0Y208500D02*X3000D01*
X1500D02*Y202500D01*
X4800Y208500D02*Y202500D01*
Y204750D02*X5550Y205500D01*
X7050D01*
X7800Y204750D01*
Y202500D01*
X10350D02*X12600D01*
X9600Y203250D02*X10350Y202500D01*
X9600Y204750D02*Y203250D01*
Y204750D02*X10350Y205500D01*
X11850D01*
X12600Y204750D01*
X9600Y204000D02*X12600D01*
Y204750D02*Y204000D01*
X15150Y204750D02*Y202500D01*
Y204750D02*X15900Y205500D01*
X17400D01*
X14400D02*X15150Y204750D01*
X19950Y202500D02*X22200D01*
X19200Y203250D02*X19950Y202500D01*
X19200Y204750D02*Y203250D01*
Y204750D02*X19950Y205500D01*
X21450D01*
X22200Y204750D01*
X19200Y204000D02*X22200D01*
Y204750D02*Y204000D01*
X28950Y205500D02*X29700Y204750D01*
X27450Y205500D02*X28950D01*
X26700Y204750D02*X27450Y205500D01*
X26700Y204750D02*Y203250D01*
X27450Y202500D01*
X29700Y205500D02*Y203250D01*
X30450Y202500D01*
X27450D02*X28950D01*
X29700Y203250D01*
X33000Y204750D02*Y202500D01*
Y204750D02*X33750Y205500D01*
X35250D01*
X32250D02*X33000Y204750D01*
X37800Y202500D02*X40050D01*
X37050Y203250D02*X37800Y202500D01*
X37050Y204750D02*Y203250D01*
Y204750D02*X37800Y205500D01*
X39300D01*
X40050Y204750D01*
X37050Y204000D02*X40050D01*
Y204750D02*Y204000D01*
X46800Y208500D02*X47550Y207750D01*
X45300Y208500D02*X46800D01*
X44550Y207750D02*X45300Y208500D01*
X44550Y207750D02*Y203250D01*
X45300Y202500D01*
X46800Y205800D02*X47550Y205050D01*
X44550Y205800D02*X46800D01*
X45300Y202500D02*X46800D01*
X47550Y203250D01*
Y205050D02*Y203250D01*
X55050Y208500D02*Y202500D01*
X54300D02*X55050Y203250D01*
X52800Y202500D02*X54300D01*
X52050Y203250D02*X52800Y202500D01*
X52050Y204750D02*Y203250D01*
Y204750D02*X52800Y205500D01*
X54300D01*
X55050Y204750D01*
G54D64*X56850Y207000D02*Y206850D01*
G54D63*Y204750D02*Y202500D01*
X59100Y207750D02*Y202500D01*
Y207750D02*X59850Y208500D01*
X60600D01*
X58350Y205500D02*X59850D01*
X62850Y207750D02*Y202500D01*
Y207750D02*X63600Y208500D01*
X64350D01*
X62100Y205500D02*X63600D01*
X66600Y202500D02*X68850D01*
X65850Y203250D02*X66600Y202500D01*
X65850Y204750D02*Y203250D01*
Y204750D02*X66600Y205500D01*
X68100D01*
X68850Y204750D01*
X65850Y204000D02*X68850D01*
Y204750D02*Y204000D01*
X71400Y204750D02*Y202500D01*
Y204750D02*X72150Y205500D01*
X73650D01*
X70650D02*X71400Y204750D01*
X76200Y202500D02*X78450D01*
X75450Y203250D02*X76200Y202500D01*
X75450Y204750D02*Y203250D01*
Y204750D02*X76200Y205500D01*
X77700D01*
X78450Y204750D01*
X75450Y204000D02*X78450D01*
Y204750D02*Y204000D01*
X81000Y204750D02*Y202500D01*
Y204750D02*X81750Y205500D01*
X82500D01*
X83250Y204750D01*
Y202500D01*
X80250Y205500D02*X81000Y204750D01*
X85800Y208500D02*Y203250D01*
X86550Y202500D01*
X85050Y206250D02*X86550D01*
X93750Y208500D02*Y202500D01*
X93000D02*X93750Y203250D01*
X91500Y202500D02*X93000D01*
X90750Y203250D02*X91500Y202500D01*
X90750Y204750D02*Y203250D01*
Y204750D02*X91500Y205500D01*
X93000D01*
X93750Y204750D01*
X96300D02*Y202500D01*
Y204750D02*X97050Y205500D01*
X98550D01*
X95550D02*X96300Y204750D01*
G54D64*X100350Y207000D02*Y206850D01*
G54D63*Y204750D02*Y202500D01*
X101850Y208500D02*Y203250D01*
X102600Y202500D01*
X104100Y208500D02*Y203250D01*
X104850Y202500D01*
X109800D02*X112050D01*
X112800Y203250D01*
X112050Y204000D02*X112800Y203250D01*
X109800Y204000D02*X112050D01*
X109050Y204750D02*X109800Y204000D01*
X109050Y204750D02*X109800Y205500D01*
X112050D01*
X112800Y204750D01*
X109050Y203250D02*X109800Y202500D01*
G54D64*X114600Y207000D02*Y206850D01*
G54D63*Y204750D02*Y202500D01*
X116100Y205500D02*X119100D01*
X116100Y202500D02*X119100Y205500D01*
X116100Y202500D02*X119100D01*
X121650D02*X123900D01*
X120900Y203250D02*X121650Y202500D01*
X120900Y204750D02*Y203250D01*
Y204750D02*X121650Y205500D01*
X123150D01*
X123900Y204750D01*
X120900Y204000D02*X123900D01*
Y204750D02*Y204000D01*
X126450Y202500D02*X128700D01*
X129450Y203250D01*
X128700Y204000D02*X129450Y203250D01*
X126450Y204000D02*X128700D01*
X125700Y204750D02*X126450Y204000D01*
X125700Y204750D02*X126450Y205500D01*
X128700D01*
X129450Y204750D01*
X125700Y203250D02*X126450Y202500D01*
X133950Y205500D02*Y203250D01*
X134700Y202500D01*
X136200D01*
X136950Y203250D01*
Y205500D02*Y203250D01*
X139500Y202500D02*X141750D01*
X142500Y203250D01*
X141750Y204000D02*X142500Y203250D01*
X139500Y204000D02*X141750D01*
X138750Y204750D02*X139500Y204000D01*
X138750Y204750D02*X139500Y205500D01*
X141750D01*
X142500Y204750D01*
X138750Y203250D02*X139500Y202500D01*
X145050D02*X147300D01*
X144300Y203250D02*X145050Y202500D01*
X144300Y204750D02*Y203250D01*
Y204750D02*X145050Y205500D01*
X146550D01*
X147300Y204750D01*
X144300Y204000D02*X147300D01*
Y204750D02*Y204000D01*
X152100Y208500D02*Y202500D01*
X151350D02*X152100Y203250D01*
X149850Y202500D02*X151350D01*
X149100Y203250D02*X149850Y202500D01*
X149100Y204750D02*Y203250D01*
Y204750D02*X149850Y205500D01*
X151350D01*
X152100Y204750D01*
G54D64*X156600Y207000D02*Y206850D01*
G54D63*Y204750D02*Y202500D01*
X158850Y204750D02*Y202500D01*
Y204750D02*X159600Y205500D01*
X160350D01*
X161100Y204750D01*
Y202500D01*
X158100Y205500D02*X158850Y204750D01*
X166350Y208500D02*Y203250D01*
X167100Y202500D01*
X165600Y206250D02*X167100D01*
X168600Y208500D02*Y202500D01*
Y204750D02*X169350Y205500D01*
X170850D01*
X171600Y204750D01*
Y202500D01*
G54D64*X173400Y207000D02*Y206850D01*
G54D63*Y204750D02*Y202500D01*
X175650D02*X177900D01*
X178650Y203250D01*
X177900Y204000D02*X178650Y203250D01*
X175650Y204000D02*X177900D01*
X174900Y204750D02*X175650Y204000D01*
X174900Y204750D02*X175650Y205500D01*
X177900D01*
X178650Y204750D01*
X174900Y203250D02*X175650Y202500D01*
X183150Y208500D02*Y203250D01*
X183900Y202500D01*
X187650Y205500D02*X188400Y204750D01*
X186150Y205500D02*X187650D01*
X185400Y204750D02*X186150Y205500D01*
X185400Y204750D02*Y203250D01*
X186150Y202500D01*
X188400Y205500D02*Y203250D01*
X189150Y202500D01*
X186150D02*X187650D01*
X188400Y203250D01*
X190950Y205500D02*Y203250D01*
X191700Y202500D01*
X193950Y205500D02*Y201000D01*
X193200Y200250D02*X193950Y201000D01*
X191700Y200250D02*X193200D01*
X190950Y201000D02*X191700Y200250D01*
Y202500D02*X193200D01*
X193950Y203250D01*
X195750Y204750D02*Y203250D01*
Y204750D02*X196500Y205500D01*
X198000D01*
X198750Y204750D01*
Y203250D01*
X198000Y202500D02*X198750Y203250D01*
X196500Y202500D02*X198000D01*
X195750Y203250D02*X196500Y202500D01*
X200550Y205500D02*Y203250D01*
X201300Y202500D01*
X202800D01*
X203550Y203250D01*
Y205500D02*Y203250D01*
X206100Y208500D02*Y203250D01*
X206850Y202500D01*
X205350Y206250D02*X206850D01*
X208350Y201000D02*X209850Y202500D01*
X214350Y207300D02*X215550Y208500D01*
Y202500D01*
X214350D02*X216600D01*
X219150D02*X221400Y205500D01*
Y207750D02*Y205500D01*
X220650Y208500D02*X221400Y207750D01*
X219150Y208500D02*X220650D01*
X218400Y207750D02*X219150Y208500D01*
X218400Y207750D02*Y206250D01*
X219150Y205500D01*
X221400D01*
X225900Y208500D02*Y202500D01*
Y204750D02*X226650Y205500D01*
X228150D01*
X228900Y204750D01*
Y202500D01*
X230700Y204750D02*Y203250D01*
Y204750D02*X231450Y205500D01*
X232950D01*
X233700Y204750D01*
Y203250D01*
X232950Y202500D02*X233700Y203250D01*
X231450Y202500D02*X232950D01*
X230700Y203250D02*X231450Y202500D01*
X235500Y208500D02*Y203250D01*
X236250Y202500D01*
X238500D02*X240750D01*
X237750Y203250D02*X238500Y202500D01*
X237750Y204750D02*Y203250D01*
Y204750D02*X238500Y205500D01*
X240000D01*
X240750Y204750D01*
X237750Y204000D02*X240750D01*
Y204750D02*Y204000D01*
X243300Y202500D02*X245550D01*
X246300Y203250D01*
X245550Y204000D02*X246300Y203250D01*
X243300Y204000D02*X245550D01*
X242550Y204750D02*X243300Y204000D01*
X242550Y204750D02*X243300Y205500D01*
X245550D01*
X246300Y204750D01*
X242550Y203250D02*X243300Y202500D01*
X251550Y208500D02*Y203250D01*
X252300Y202500D01*
X250800Y206250D02*X252300D01*
X253800Y204750D02*Y203250D01*
Y204750D02*X254550Y205500D01*
X256050D01*
X256800Y204750D01*
Y203250D01*
X256050Y202500D02*X256800Y203250D01*
X254550Y202500D02*X256050D01*
X253800Y203250D02*X254550Y202500D01*
X259350Y208500D02*Y203250D01*
X260100Y202500D01*
X258600Y206250D02*X260100D01*
X263850Y205500D02*X264600Y204750D01*
X262350Y205500D02*X263850D01*
X261600Y204750D02*X262350Y205500D01*
X261600Y204750D02*Y203250D01*
X262350Y202500D01*
X264600Y205500D02*Y203250D01*
X265350Y202500D01*
X262350D02*X263850D01*
X264600Y203250D01*
X267150Y208500D02*Y203250D01*
X267900Y202500D01*
G54D65*X165000Y40000D02*Y90000D01*
X0D02*Y0D01*
X155000D01*
Y90000D01*
X0D01*
G54D63*Y-9500D02*X3000D01*
X3750Y-8750D01*
Y-6950D02*Y-8750D01*
X3000Y-6200D02*X3750Y-6950D01*
X750Y-6200D02*X3000D01*
X750Y-3500D02*Y-9500D01*
X0Y-3500D02*X3000D01*
X3750Y-4250D01*
Y-5450D01*
X3000Y-6200D02*X3750Y-5450D01*
X5550Y-7250D02*Y-8750D01*
Y-7250D02*X6300Y-6500D01*
X7800D01*
X8550Y-7250D01*
Y-8750D01*
X7800Y-9500D02*X8550Y-8750D01*
X6300Y-9500D02*X7800D01*
X5550Y-8750D02*X6300Y-9500D01*
X12600Y-6500D02*X13350Y-7250D01*
X11100Y-6500D02*X12600D01*
X10350Y-7250D02*X11100Y-6500D01*
X10350Y-7250D02*Y-8750D01*
X11100Y-9500D01*
X13350Y-6500D02*Y-8750D01*
X14100Y-9500D01*
X11100D02*X12600D01*
X13350Y-8750D01*
X16650Y-7250D02*Y-9500D01*
Y-7250D02*X17400Y-6500D01*
X18900D01*
X15900D02*X16650Y-7250D01*
X23700Y-3500D02*Y-9500D01*
X22950D02*X23700Y-8750D01*
X21450Y-9500D02*X22950D01*
X20700Y-8750D02*X21450Y-9500D01*
X20700Y-7250D02*Y-8750D01*
Y-7250D02*X21450Y-6500D01*
X22950D01*
X23700Y-7250D01*
X28200D02*Y-8750D01*
Y-7250D02*X28950Y-6500D01*
X30450D01*
X31200Y-7250D01*
Y-8750D01*
X30450Y-9500D02*X31200Y-8750D01*
X28950Y-9500D02*X30450D01*
X28200Y-8750D02*X28950Y-9500D01*
X33000Y-6500D02*Y-8750D01*
X33750Y-9500D01*
X35250D01*
X36000Y-8750D01*
Y-6500D02*Y-8750D01*
X38550Y-3500D02*Y-8750D01*
X39300Y-9500D01*
X37800Y-5750D02*X39300D01*
X40800Y-3500D02*Y-8750D01*
X41550Y-9500D01*
G54D64*X43050Y-5000D02*Y-5150D01*
G54D63*Y-7250D02*Y-9500D01*
X45300Y-7250D02*Y-9500D01*
Y-7250D02*X46050Y-6500D01*
X46800D01*
X47550Y-7250D01*
Y-9500D01*
X44550Y-6500D02*X45300Y-7250D01*
X50100Y-9500D02*X52350D01*
X49350Y-8750D02*X50100Y-9500D01*
X49350Y-7250D02*Y-8750D01*
Y-7250D02*X50100Y-6500D01*
X51600D01*
X52350Y-7250D01*
X49350Y-8000D02*X52350D01*
Y-7250D02*Y-8000D01*
G54D64*X56850Y-5000D02*Y-5150D01*
G54D63*Y-7250D02*Y-9500D01*
X59100D02*X61350D01*
X62100Y-8750D01*
X61350Y-8000D02*X62100Y-8750D01*
X59100Y-8000D02*X61350D01*
X58350Y-7250D02*X59100Y-8000D01*
X58350Y-7250D02*X59100Y-6500D01*
X61350D01*
X62100Y-7250D01*
X58350Y-8750D02*X59100Y-9500D01*
X67350Y-3500D02*Y-8750D01*
X68100Y-9500D01*
X66600Y-5750D02*X68100D01*
X69600Y-3500D02*Y-9500D01*
Y-7250D02*X70350Y-6500D01*
X71850D01*
X72600Y-7250D01*
Y-9500D01*
X75150D02*X77400D01*
X74400Y-8750D02*X75150Y-9500D01*
X74400Y-7250D02*Y-8750D01*
Y-7250D02*X75150Y-6500D01*
X76650D01*
X77400Y-7250D01*
X74400Y-8000D02*X77400D01*
Y-7250D02*Y-8000D01*
X82650Y-6500D02*X84900D01*
X81900Y-7250D02*X82650Y-6500D01*
X81900Y-7250D02*Y-8750D01*
X82650Y-9500D01*
X84900D01*
X87450D02*X89700D01*
X86700Y-8750D02*X87450Y-9500D01*
X86700Y-7250D02*Y-8750D01*
Y-7250D02*X87450Y-6500D01*
X88950D01*
X89700Y-7250D01*
X86700Y-8000D02*X89700D01*
Y-7250D02*Y-8000D01*
X92250Y-7250D02*Y-9500D01*
Y-7250D02*X93000Y-6500D01*
X93750D01*
X94500Y-7250D01*
Y-9500D01*
X91500Y-6500D02*X92250Y-7250D01*
X97050Y-3500D02*Y-8750D01*
X97800Y-9500D01*
X96300Y-5750D02*X97800D01*
X100050Y-9500D02*X102300D01*
X99300Y-8750D02*X100050Y-9500D01*
X99300Y-7250D02*Y-8750D01*
Y-7250D02*X100050Y-6500D01*
X101550D01*
X102300Y-7250D01*
X99300Y-8000D02*X102300D01*
Y-7250D02*Y-8000D01*
X104850Y-7250D02*Y-9500D01*
Y-7250D02*X105600Y-6500D01*
X107100D01*
X104100D02*X104850Y-7250D01*
X108900Y-3500D02*Y-8750D01*
X109650Y-9500D01*
G54D64*X111150Y-5000D02*Y-5150D01*
G54D63*Y-7250D02*Y-9500D01*
X113400Y-7250D02*Y-9500D01*
Y-7250D02*X114150Y-6500D01*
X114900D01*
X115650Y-7250D01*
Y-9500D01*
X112650Y-6500D02*X113400Y-7250D01*
X118200Y-9500D02*X120450D01*
X117450Y-8750D02*X118200Y-9500D01*
X117450Y-7250D02*Y-8750D01*
Y-7250D02*X118200Y-6500D01*
X119700D01*
X120450Y-7250D01*
X117450Y-8000D02*X120450D01*
Y-7250D02*Y-8000D01*
X124950Y-7250D02*Y-8750D01*
Y-7250D02*X125700Y-6500D01*
X127200D01*
X127950Y-7250D01*
Y-8750D01*
X127200Y-9500D02*X127950Y-8750D01*
X125700Y-9500D02*X127200D01*
X124950Y-8750D02*X125700Y-9500D01*
X130500Y-4250D02*Y-9500D01*
Y-4250D02*X131250Y-3500D01*
X132000D01*
X129750Y-6500D02*X131250D01*
X136950Y-3500D02*Y-8750D01*
X137700Y-9500D01*
X136200Y-5750D02*X137700D01*
X139200Y-3500D02*Y-9500D01*
Y-7250D02*X139950Y-6500D01*
X141450D01*
X142200Y-7250D01*
Y-9500D01*
G54D64*X144000Y-5000D02*Y-5150D01*
G54D63*Y-7250D02*Y-9500D01*
X146250D02*X148500D01*
X149250Y-8750D01*
X148500Y-8000D02*X149250Y-8750D01*
X146250Y-8000D02*X148500D01*
X145500Y-7250D02*X146250Y-8000D01*
X145500Y-7250D02*X146250Y-6500D01*
X148500D01*
X149250Y-7250D01*
X145500Y-8750D02*X146250Y-9500D01*
X154500Y-7250D02*Y-11750D01*
X153750Y-6500D02*X154500Y-7250D01*
X155250Y-6500D01*
X156750D01*
X157500Y-7250D01*
Y-8750D01*
X156750Y-9500D02*X157500Y-8750D01*
X155250Y-9500D02*X156750D01*
X154500Y-8750D02*X155250Y-9500D01*
X161550Y-6500D02*X162300Y-7250D01*
X160050Y-6500D02*X161550D01*
X159300Y-7250D02*X160050Y-6500D01*
X159300Y-7250D02*Y-8750D01*
X160050Y-9500D01*
X162300Y-6500D02*Y-8750D01*
X163050Y-9500D01*
X160050D02*X161550D01*
X162300Y-8750D01*
X165600Y-3500D02*Y-8750D01*
X166350Y-9500D01*
X164850Y-5750D02*X166350D01*
X167850Y-3500D02*Y-9500D01*
Y-7250D02*X168600Y-6500D01*
X170100D01*
X170850Y-7250D01*
Y-9500D01*
X200750Y118500D02*Y112500D01*
X202700Y118500D02*X203750Y117450D01*
Y113550D01*
X202700Y112500D02*X203750Y113550D01*
X200000Y112500D02*X202700D01*
X200000Y118500D02*X202700D01*
X207800Y115500D02*X208550Y114750D01*
X206300Y115500D02*X207800D01*
X205550Y114750D02*X206300Y115500D01*
X205550Y114750D02*Y113250D01*
X206300Y112500D01*
X208550Y115500D02*Y113250D01*
X209300Y112500D01*
X206300D02*X207800D01*
X208550Y113250D01*
X211850Y118500D02*Y113250D01*
X212600Y112500D01*
X211100Y116250D02*X212600D01*
X214850Y112500D02*X217100D01*
X214100Y113250D02*X214850Y112500D01*
X214100Y114750D02*Y113250D01*
Y114750D02*X214850Y115500D01*
X216350D01*
X217100Y114750D01*
X214100Y114000D02*X217100D01*
Y114750D02*Y114000D01*
X218900Y116250D02*X219650D01*
X218900Y114750D02*X219650D01*
X224150Y118500D02*Y112500D01*
Y118500D02*X227150D01*
X224150Y115800D02*X226400D01*
X229700Y114750D02*Y112500D01*
Y114750D02*X230450Y115500D01*
X231950D01*
X228950D02*X229700Y114750D01*
G54D64*X233750Y117000D02*Y116850D01*
G54D63*Y114750D02*Y112500D01*
X237950Y117750D02*X238700Y118500D01*
X240950D01*
X241700Y117750D01*
Y116250D01*
X237950Y112500D02*X241700Y116250D01*
X237950Y112500D02*X241700D01*
X243500Y117750D02*X244250Y118500D01*
X246500D01*
X247250Y117750D01*
Y116250D01*
X243500Y112500D02*X247250Y116250D01*
X243500Y112500D02*X247250D01*
X252800Y118500D02*X254000D01*
Y113250D01*
X253250Y112500D02*X254000Y113250D01*
X252500Y112500D02*X253250D01*
X251750Y113250D02*X252500Y112500D01*
X251750Y114000D02*Y113250D01*
X258050Y115500D02*X258800Y114750D01*
X256550Y115500D02*X258050D01*
X255800Y114750D02*X256550Y115500D01*
X255800Y114750D02*Y113250D01*
X256550Y112500D01*
X258800Y115500D02*Y113250D01*
X259550Y112500D01*
X256550D02*X258050D01*
X258800Y113250D01*
X262100Y114750D02*Y112500D01*
Y114750D02*X262850Y115500D01*
X263600D01*
X264350Y114750D01*
Y112500D01*
X261350Y115500D02*X262100Y114750D01*
X268850Y117750D02*X269600Y118500D01*
X271850D01*
X272600Y117750D01*
Y116250D01*
X268850Y112500D02*X272600Y116250D01*
X268850Y112500D02*X272600D01*
X274400Y113250D02*X275150Y112500D01*
X274400Y117750D02*Y113250D01*
Y117750D02*X275150Y118500D01*
X276650D01*
X277400Y117750D01*
Y113250D01*
X276650Y112500D02*X277400Y113250D01*
X275150Y112500D02*X276650D01*
X274400Y114000D02*X277400Y117000D01*
X279200Y117300D02*X280400Y118500D01*
Y112500D01*
X279200D02*X281450D01*
X285500Y118500D02*X286250Y117750D01*
X284000Y118500D02*X285500D01*
X283250Y117750D02*X284000Y118500D01*
X283250Y117750D02*Y113250D01*
X284000Y112500D01*
X285500Y115800D02*X286250Y115050D01*
X283250Y115800D02*X285500D01*
X284000Y112500D02*X285500D01*
X286250Y113250D01*
Y115050D02*Y113250D01*
X290750D02*X291500Y112500D01*
X290750Y117750D02*Y113250D01*
Y117750D02*X291500Y118500D01*
X293000D01*
X293750Y117750D01*
Y113250D01*
X293000Y112500D02*X293750Y113250D01*
X291500Y112500D02*X293000D01*
X290750Y114000D02*X293750Y117000D01*
X295550Y118500D02*X298550D01*
X295550D02*Y115500D01*
X296300Y116250D01*
X297800D01*
X298550Y115500D01*
Y113250D01*
X297800Y112500D02*X298550Y113250D01*
X296300Y112500D02*X297800D01*
X295550Y113250D02*X296300Y112500D01*
X300350Y116250D02*X301100D01*
X300350Y114750D02*X301100D01*
X302900Y117300D02*X304100Y118500D01*
Y112500D01*
X302900D02*X305150D01*
X306950Y118500D02*X309950D01*
X306950D02*Y115500D01*
X307700Y116250D01*
X309200D01*
X309950Y115500D01*
Y113250D01*
X309200Y112500D02*X309950Y113250D01*
X307700Y112500D02*X309200D01*
X306950Y113250D02*X307700Y112500D01*
X311750Y116250D02*X312500D01*
X311750Y114750D02*X312500D01*
X314300D02*X317300Y118500D01*
X314300Y114750D02*X318050D01*
X317300Y118500D02*Y112500D01*
X319850Y113250D02*X320600Y112500D01*
X319850Y117750D02*Y113250D01*
Y117750D02*X320600Y118500D01*
X322100D01*
X322850Y117750D01*
Y113250D01*
X322100Y112500D02*X322850Y113250D01*
X320600Y112500D02*X322100D01*
X319850Y114000D02*X322850Y117000D01*
X328100Y118500D02*Y112500D01*
X327350Y118500D02*X330350D01*
X331100Y117750D01*
Y116250D01*
X330350Y115500D02*X331100Y116250D01*
X328100Y115500D02*X330350D01*
X332900Y118500D02*Y112500D01*
Y118500D02*X335150Y115500D01*
X337400Y118500D01*
Y112500D01*
X344900Y118500D02*X345650Y117750D01*
X342650Y118500D02*X344900D01*
X341900Y117750D02*X342650Y118500D01*
X341900Y117750D02*Y113250D01*
X342650Y112500D01*
X344900D01*
X345650Y113250D01*
Y114750D02*Y113250D01*
X344900Y115500D02*X345650Y114750D01*
X343400Y115500D02*X344900D01*
X347450Y118500D02*Y112500D01*
Y118500D02*X349700Y115500D01*
X351950Y118500D01*
Y112500D01*
X353750Y118500D02*X356750D01*
X355250D02*Y112500D01*
X361250Y118500D02*Y113250D01*
X362000Y112500D01*
X363500D01*
X364250Y113250D01*
Y118500D02*Y113250D01*
X366050Y118500D02*X369050D01*
X367550D02*Y112500D01*
X371900D02*X373850D01*
X370850Y113550D02*X371900Y112500D01*
X370850Y117450D02*Y113550D01*
Y117450D02*X371900Y118500D01*
X373850D01*
X200000Y132000D02*Y127500D01*
Y132000D02*X201050Y133500D01*
X202700D01*
X203750Y132000D01*
Y127500D01*
X200000Y130500D02*X203750D01*
X205550D02*Y128250D01*
X206300Y127500D01*
X207800D01*
X208550Y128250D01*
Y130500D02*Y128250D01*
X211100Y133500D02*Y128250D01*
X211850Y127500D01*
X210350Y131250D02*X211850D01*
X213350Y133500D02*Y127500D01*
Y129750D02*X214100Y130500D01*
X215600D01*
X216350Y129750D01*
Y127500D01*
X218150Y129750D02*Y128250D01*
Y129750D02*X218900Y130500D01*
X220400D01*
X221150Y129750D01*
Y128250D01*
X220400Y127500D02*X221150Y128250D01*
X218900Y127500D02*X220400D01*
X218150Y128250D02*X218900Y127500D01*
X223700Y129750D02*Y127500D01*
Y129750D02*X224450Y130500D01*
X225950D01*
X222950D02*X223700Y129750D01*
X227750Y131250D02*X228500D01*
X227750Y129750D02*X228500D01*
X233000Y133500D02*Y127500D01*
Y133500D02*X236750Y127500D01*
Y133500D02*Y127500D01*
X240800Y130500D02*X241550Y129750D01*
X239300Y130500D02*X240800D01*
X238550Y129750D02*X239300Y130500D01*
X238550Y129750D02*Y128250D01*
X239300Y127500D01*
X241550Y130500D02*Y128250D01*
X242300Y127500D01*
X239300D02*X240800D01*
X241550Y128250D01*
X244850Y133500D02*Y128250D01*
X245600Y127500D01*
X244100Y131250D02*X245600D01*
X247100Y133500D02*Y127500D01*
Y129750D02*X247850Y130500D01*
X249350D01*
X250100Y129750D01*
Y127500D01*
X254150Y130500D02*X254900Y129750D01*
X252650Y130500D02*X254150D01*
X251900Y129750D02*X252650Y130500D01*
X251900Y129750D02*Y128250D01*
X252650Y127500D01*
X254900Y130500D02*Y128250D01*
X255650Y127500D01*
X252650D02*X254150D01*
X254900Y128250D01*
X258200Y129750D02*Y127500D01*
Y129750D02*X258950Y130500D01*
X259700D01*
X260450Y129750D01*
Y127500D01*
X257450Y130500D02*X258200Y129750D01*
X265700Y133500D02*Y127500D01*
X267650Y133500D02*X268700Y132450D01*
Y128550D01*
X267650Y127500D02*X268700Y128550D01*
X264950Y127500D02*X267650D01*
X264950Y133500D02*X267650D01*
X270500Y127500D02*X271250D01*
X275750Y133500D02*Y127500D01*
X279500Y133500D02*Y127500D01*
X275750Y130500D02*X279500D01*
X281300Y129750D02*Y128250D01*
Y129750D02*X282050Y130500D01*
X283550D01*
X284300Y129750D01*
Y128250D01*
X283550Y127500D02*X284300Y128250D01*
X282050Y127500D02*X283550D01*
X281300Y128250D02*X282050Y127500D01*
X286100Y133500D02*Y128250D01*
X286850Y127500D01*
X289100Y129750D02*Y127500D01*
Y129750D02*X289850Y130500D01*
X290600D01*
X291350Y129750D01*
Y127500D01*
Y129750D02*X292100Y130500D01*
X292850D01*
X293600Y129750D01*
Y127500D01*
X288350Y130500D02*X289100Y129750D01*
X296150Y127500D02*X298400D01*
X295400Y128250D02*X296150Y127500D01*
X295400Y129750D02*Y128250D01*
Y129750D02*X296150Y130500D01*
X297650D01*
X298400Y129750D01*
X295400Y129000D02*X298400D01*
Y129750D02*Y129000D01*
X300950Y127500D02*X303200D01*
X303950Y128250D01*
X303200Y129000D02*X303950Y128250D01*
X300950Y129000D02*X303200D01*
X300200Y129750D02*X300950Y129000D01*
X300200Y129750D02*X300950Y130500D01*
X303200D01*
X303950Y129750D01*
X300200Y128250D02*X300950Y127500D01*
X200000Y148500D02*X203000D01*
X201500D02*Y142500D01*
G54D64*X204800Y147000D02*Y146850D01*
G54D63*Y144750D02*Y142500D01*
X207050Y148500D02*Y143250D01*
X207800Y142500D01*
X206300Y146250D02*X207800D01*
X209300Y148500D02*Y143250D01*
X210050Y142500D01*
X212300D02*X214550D01*
X211550Y143250D02*X212300Y142500D01*
X211550Y144750D02*Y143250D01*
Y144750D02*X212300Y145500D01*
X213800D01*
X214550Y144750D01*
X211550Y144000D02*X214550D01*
Y144750D02*Y144000D01*
X216350Y146250D02*X217100D01*
X216350Y144750D02*X217100D01*
X221600Y143250D02*X222350Y142500D01*
X221600Y147750D02*X222350Y148500D01*
X221600Y147750D02*Y143250D01*
X224150Y145500D02*Y143250D01*
X224900Y142500D01*
X226400D01*
X227150Y143250D01*
Y145500D02*Y143250D01*
X229700Y144750D02*Y142500D01*
Y144750D02*X230450Y145500D01*
X231200D01*
X231950Y144750D01*
Y142500D01*
X228950Y145500D02*X229700Y144750D01*
X233750Y148500D02*Y142500D01*
Y144750D02*X236000Y142500D01*
X233750Y144750D02*X235250Y146250D01*
X238550Y144750D02*Y142500D01*
Y144750D02*X239300Y145500D01*
X240050D01*
X240800Y144750D01*
Y142500D01*
X237800Y145500D02*X238550Y144750D01*
X242600D02*Y143250D01*
Y144750D02*X243350Y145500D01*
X244850D01*
X245600Y144750D01*
Y143250D01*
X244850Y142500D02*X245600Y143250D01*
X243350Y142500D02*X244850D01*
X242600Y143250D02*X243350Y142500D01*
X247400Y145500D02*Y143250D01*
X248150Y142500D01*
X248900D01*
X249650Y143250D01*
Y145500D02*Y143250D01*
X250400Y142500D01*
X251150D01*
X251900Y143250D01*
Y145500D02*Y143250D01*
X254450Y144750D02*Y142500D01*
Y144750D02*X255200Y145500D01*
X255950D01*
X256700Y144750D01*
Y142500D01*
X253700Y145500D02*X254450Y144750D01*
X258500Y148500D02*X259250Y147750D01*
Y143250D01*
X258500Y142500D02*X259250Y143250D01*
X263750Y145500D02*X266750D01*
X271250Y148500D02*Y142500D01*
Y148500D02*X274250D01*
X271250Y145800D02*X273500D01*
X278300Y145500D02*X279050Y144750D01*
X276800Y145500D02*X278300D01*
X276050Y144750D02*X276800Y145500D01*
X276050Y144750D02*Y143250D01*
X276800Y142500D01*
X279050Y145500D02*Y143250D01*
X279800Y142500D01*
X276800D02*X278300D01*
X279050Y143250D01*
X281600Y148500D02*Y142500D01*
Y143250D02*X282350Y142500D01*
X283850D01*
X284600Y143250D01*
Y144750D02*Y143250D01*
X283850Y145500D02*X284600Y144750D01*
X282350Y145500D02*X283850D01*
X281600Y144750D02*X282350Y145500D01*
X287150Y144750D02*Y142500D01*
Y144750D02*X287900Y145500D01*
X289400D01*
X286400D02*X287150Y144750D01*
G54D64*X291200Y147000D02*Y146850D01*
G54D63*Y144750D02*Y142500D01*
X293450Y145500D02*X295700D01*
X292700Y144750D02*X293450Y145500D01*
X292700Y144750D02*Y143250D01*
X293450Y142500D01*
X295700D01*
X299750Y145500D02*X300500Y144750D01*
X298250Y145500D02*X299750D01*
X297500Y144750D02*X298250Y145500D01*
X297500Y144750D02*Y143250D01*
X298250Y142500D01*
X300500Y145500D02*Y143250D01*
X301250Y142500D01*
X298250D02*X299750D01*
X300500Y143250D01*
X303800Y148500D02*Y143250D01*
X304550Y142500D01*
X303050Y146250D02*X304550D01*
G54D64*X306050Y147000D02*Y146850D01*
G54D63*Y144750D02*Y142500D01*
X307550Y144750D02*Y143250D01*
Y144750D02*X308300Y145500D01*
X309800D01*
X310550Y144750D01*
Y143250D01*
X309800Y142500D02*X310550Y143250D01*
X308300Y142500D02*X309800D01*
X307550Y143250D02*X308300Y142500D01*
X313100Y144750D02*Y142500D01*
Y144750D02*X313850Y145500D01*
X314600D01*
X315350Y144750D01*
Y142500D01*
X312350Y145500D02*X313100Y144750D01*
X320600Y148500D02*Y142500D01*
X322550Y148500D02*X323600Y147450D01*
Y143550D01*
X322550Y142500D02*X323600Y143550D01*
X319850Y142500D02*X322550D01*
X319850Y148500D02*X322550D01*
X326150Y144750D02*Y142500D01*
Y144750D02*X326900Y145500D01*
X328400D01*
X325400D02*X326150Y144750D01*
X332450Y145500D02*X333200Y144750D01*
X330950Y145500D02*X332450D01*
X330200Y144750D02*X330950Y145500D01*
X330200Y144750D02*Y143250D01*
X330950Y142500D01*
X333200Y145500D02*Y143250D01*
X333950Y142500D01*
X330950D02*X332450D01*
X333200Y143250D01*
X335750Y145500D02*Y143250D01*
X336500Y142500D01*
X337250D01*
X338000Y143250D01*
Y145500D02*Y143250D01*
X338750Y142500D01*
X339500D01*
X340250Y143250D01*
Y145500D02*Y143250D01*
G54D64*X342050Y147000D02*Y146850D01*
G54D63*Y144750D02*Y142500D01*
X344300Y144750D02*Y142500D01*
Y144750D02*X345050Y145500D01*
X345800D01*
X346550Y144750D01*
Y142500D01*
X343550Y145500D02*X344300Y144750D01*
X350600Y145500D02*X351350Y144750D01*
X349100Y145500D02*X350600D01*
X348350Y144750D02*X349100Y145500D01*
X348350Y144750D02*Y143250D01*
X349100Y142500D01*
X350600D01*
X351350Y143250D01*
X348350Y141000D02*X349100Y140250D01*
X350600D01*
X351350Y141000D01*
Y145500D02*Y141000D01*
M02*
