G04 start of page 8 for group -4079 idx -4079 *
G04 Title: (unknown), topsilk *
G04 Creator: pcb 20140316 *
G04 CreationDate: Fri 22 Jan 2016 05:15:40 PM GMT UTC *
G04 For: ndholmes *
G04 Format: Gerber/RS-274X *
G04 PCB-Dimensions (mil): 1550.00 900.00 *
G04 PCB-Coordinate-Origin: lower left *
%MOIN*%
%FSLAX25Y25*%
%LNTOPSILK*%
%ADD60C,0.0200*%
%ADD59C,0.0100*%
G54D59*X500Y500D02*Y89500D01*
X154500D01*
Y500D01*
X500D01*
X2500Y79000D02*X6500D01*
Y77700D02*X5800Y77000D01*
X3200D02*X5800D01*
X2500Y77700D02*X3200Y77000D01*
X2500Y79500D02*Y77700D01*
X6500Y79500D02*Y77700D01*
X2500Y75100D02*Y73800D01*
X3200Y75800D02*X2500Y75100D01*
X3200Y75800D02*X5800D01*
X6500Y75100D01*
Y73800D01*
X2500Y71900D02*Y70600D01*
X3200Y72600D02*X2500Y71900D01*
X3200Y72600D02*X5800D01*
X6500Y71900D01*
Y70600D01*
X2500Y59000D02*X6500D01*
Y57700D02*X5800Y57000D01*
X3200D02*X5800D01*
X2500Y57700D02*X3200Y57000D01*
X2500Y59500D02*Y57700D01*
X6500Y59500D02*Y57700D01*
X2500Y55100D02*Y53800D01*
X3200Y55800D02*X2500Y55100D01*
X3200Y55800D02*X5800D01*
X6500Y55100D01*
Y53800D01*
X2500Y51900D02*Y50600D01*
X3200Y52600D02*X2500Y51900D01*
X3200Y52600D02*X5800D01*
X6500Y51900D01*
Y50600D01*
X147000Y72500D02*X151000Y73500D01*
X147000Y74500D01*
X149000Y77700D02*Y75700D01*
X148000Y76700D02*X150000D01*
X147000Y52000D02*X147500Y52500D01*
X147000Y52000D02*Y50500D01*
X147500Y50000D02*X147000Y50500D01*
X147500Y50000D02*X150500D01*
X151000Y50500D01*
Y52000D02*Y50500D01*
Y52000D02*X150500Y52500D01*
X149500D02*X150500D01*
X149000Y52000D02*X149500Y52500D01*
X149000Y52000D02*Y51000D01*
X147000Y53700D02*X151000D01*
X147000D02*X151000Y56200D01*
X147000D02*X151000D01*
X147000Y57900D02*X151000D01*
X147000Y59200D02*X147700Y59900D01*
X150300D01*
X151000Y59200D02*X150300Y59900D01*
X151000Y59200D02*Y57400D01*
X147000Y59200D02*Y57400D01*
X138000Y21520D02*X141320D01*
X139660Y23180D02*Y19860D01*
X8700Y85000D02*Y45000D01*
X38700Y85000D02*Y45000D01*
X34300Y85000D02*Y45000D01*
X8700Y85000D02*X38700D01*
X8700Y45000D02*X38700D01*
X26500Y27900D02*X31500D01*
X29000Y30400D02*Y25400D01*
X21500Y37000D02*G75*G03X21500Y37000I0J-16000D01*G01*
X44000Y80000D02*Y50000D01*
X84000D01*
Y80000D01*
X44000D02*X59000D01*
X69000D02*X84000D01*
X59000D02*G75*G03X69000Y80000I5000J0D01*G01*
X105500D02*Y50000D01*
X95500D02*X105500D01*
X95500Y80000D02*Y50000D01*
Y80000D02*X105500D01*
X144800Y85000D02*Y45000D01*
X114800Y85000D02*Y45000D01*
X119200Y85000D02*Y45000D01*
X114800D02*X144800D01*
X114800Y85000D02*X144800D01*
X123328Y11328D02*G75*G03X131672Y11328I4172J4172D01*G01*
X131672Y19672D02*G75*G03X123328Y19672I-4172J-4172D01*G01*
X121914Y9914D02*G75*G03X133086Y9914I5586J5586D01*G01*
X133086Y21086D02*G75*G03X121914Y21086I-5586J-5586D01*G01*
G54D60*X115500Y27000D02*X135500D01*
X115500Y37000D02*Y27000D01*
Y37000D02*X135500D01*
Y27000D01*
Y32000D02*X145500D01*
X105500D02*X115500D01*
G54D59*X49665Y5126D02*X95335D01*
X49665Y38590D02*X95335D01*
X49665D02*Y5126D01*
X95335Y38590D02*Y5126D01*
X4700Y33000D02*X6000D01*
X4000Y33700D02*X4700Y33000D01*
X4000Y36300D02*Y33700D01*
Y36300D02*X4700Y37000D01*
X6000D01*
X7200Y36200D02*X8000Y37000D01*
Y33000D01*
X7200D02*X8700D01*
X86500Y80000D02*Y76000D01*
X87800Y80000D02*X88500Y79300D01*
Y76700D01*
X87800Y76000D02*X88500Y76700D01*
X86000Y76000D02*X87800D01*
X86000Y80000D02*X87800D01*
X89700Y79200D02*X90500Y80000D01*
Y76000D01*
X89700D02*X91200D01*
X98700Y43000D02*X100000D01*
X98000Y43700D02*X98700Y43000D01*
X98000Y46300D02*Y43700D01*
Y46300D02*X98700Y47000D01*
X100000D01*
X101200Y46500D02*X101700Y47000D01*
X103200D01*
X103700Y46500D01*
Y45500D01*
X101200Y43000D02*X103700Y45500D01*
X101200Y43000D02*X103700D01*
X141500Y14000D02*Y10000D01*
X142800Y14000D02*X143500Y13300D01*
Y10700D01*
X142800Y10000D02*X143500Y10700D01*
X141000Y10000D02*X142800D01*
X141000Y14000D02*X142800D01*
X144700Y13500D02*X145200Y14000D01*
X146700D01*
X147200Y13500D01*
Y12500D01*
X144700Y10000D02*X147200Y12500D01*
X144700Y10000D02*X147200D01*
X123500Y34000D02*X125500D01*
X126000Y33500D01*
Y32500D01*
X125500Y32000D02*X126000Y32500D01*
X124000Y32000D02*X125500D01*
X124000Y34000D02*Y30000D01*
X124800Y32000D02*X126000Y30000D01*
X127200Y33200D02*X128000Y34000D01*
Y30000D01*
X127200D02*X128700D01*
X42000Y14500D02*Y11000D01*
X42500Y10500D01*
X43500D01*
X44000Y11000D01*
Y14500D02*Y11000D01*
X45200Y13700D02*X46000Y14500D01*
Y10500D01*
X45200D02*X46700D01*
M02*
