G04 start of page 9 for group -4078 idx -4078 *
G04 Title: (unknown), bottomsilk *
G04 Creator: pcb 20140316 *
G04 CreationDate: Fri 22 Jan 2016 05:15:40 PM GMT UTC *
G04 For: ndholmes *
G04 Format: Gerber/RS-274X *
G04 PCB-Dimensions (mil): 1550.00 900.00 *
G04 PCB-Coordinate-Origin: lower left *
%MOIN*%
%FSLAX25Y25*%
%LNBOTTOMSILK*%
%ADD61C,0.0100*%
G54D61*X1000Y500D02*X154500D01*
Y89500D01*
X500D01*
Y500D01*
X8000D01*
X31500Y30000D02*X97500D01*
X55000Y80500D02*Y84500D01*
Y83000D02*X55500Y82500D01*
X56500D01*
X57000Y83000D01*
Y84500D01*
X58700Y80500D02*Y84000D01*
X59200Y84500D01*
X58200Y82000D02*X59200D01*
X60700Y80500D02*Y84000D01*
X61200Y84500D01*
X60200Y82000D02*X61200D01*
X62700Y83000D02*Y86000D01*
X62200Y82500D02*X62700Y83000D01*
X63200Y82500D01*
X64200D01*
X64700Y83000D01*
Y84000D01*
X64200Y84500D02*X64700Y84000D01*
X63200Y84500D02*X64200D01*
X62700Y84000D02*X63200Y84500D01*
X65900Y82000D02*X66400D01*
X65900Y83000D02*X66400D01*
X67600Y84000D02*X70600Y81000D01*
X71800Y84000D02*X74800Y81000D01*
X76000Y81500D02*Y81600D01*
Y83000D02*Y84500D01*
X78500Y82500D02*X79000Y83000D01*
X77500Y82500D02*X78500D01*
X77000Y83000D02*X77500Y82500D01*
X77000Y83000D02*Y84000D01*
X77500Y84500D01*
X79000Y82500D02*Y84000D01*
X79500Y84500D01*
X77500D02*X78500D01*
X79000Y84000D01*
X81200Y84500D02*X82700D01*
X83200Y84000D01*
X82700Y83500D02*X83200Y84000D01*
X81200Y83500D02*X82700D01*
X80700Y83000D02*X81200Y83500D01*
X80700Y83000D02*X81200Y82500D01*
X82700D01*
X83200Y83000D01*
X80700Y84000D02*X81200Y84500D01*
X84900Y82500D02*X86400D01*
X84400Y83000D02*X84900Y82500D01*
X84400Y83000D02*Y84000D01*
X84900Y84500D01*
X86400D01*
X89100Y82500D02*X89600Y83000D01*
X88100Y82500D02*X89100D01*
X87600Y83000D02*X88100Y82500D01*
X87600Y83000D02*Y84000D01*
X88100Y84500D01*
X89600Y82500D02*Y84000D01*
X90100Y84500D01*
X88100D02*X89100D01*
X89600Y84000D01*
X91300Y80500D02*Y84000D01*
X91800Y84500D01*
X93300D02*X94800D01*
X92800Y84000D02*X93300Y84500D01*
X92800Y83000D02*Y84000D01*
Y83000D02*X93300Y82500D01*
X94300D01*
X94800Y83000D01*
X92800Y83500D02*X94800D01*
Y83000D02*Y83500D01*
X98000Y80500D02*Y84500D01*
X97500D02*X98000Y84000D01*
X96500Y84500D02*X97500D01*
X96000Y84000D02*X96500Y84500D01*
X96000Y83000D02*Y84000D01*
Y83000D02*X96500Y82500D01*
X97500D01*
X98000Y83000D01*
X99200Y84500D02*X99700D01*
X101400Y82500D02*X102900D01*
X100900Y83000D02*X101400Y82500D01*
X100900Y83000D02*Y84000D01*
X101400Y84500D01*
X102900D01*
X104100Y83000D02*Y84000D01*
Y83000D02*X104600Y82500D01*
X105600D01*
X106100Y83000D01*
Y84000D01*
X105600Y84500D02*X106100Y84000D01*
X104600Y84500D02*X105600D01*
X104100Y84000D02*X104600Y84500D01*
X107800Y83000D02*Y84500D01*
Y83000D02*X108300Y82500D01*
X108800D01*
X109300Y83000D01*
Y84500D01*
Y83000D02*X109800Y82500D01*
X110300D01*
X110800Y83000D01*
Y84500D01*
X107300Y82500D02*X107800Y83000D01*
X31500Y22500D02*X32500D01*
X32000D02*Y26500D01*
X31500D02*X32500D01*
X33700Y25000D02*Y26000D01*
Y25000D02*X34200Y24500D01*
X35200D01*
X35700Y25000D01*
Y26000D01*
X35200Y26500D02*X35700Y26000D01*
X34200Y26500D02*X35200D01*
X33700Y26000D02*X34200Y26500D01*
X36900Y24500D02*Y26000D01*
X37400Y26500D01*
X37900D01*
X38400Y26000D01*
Y24500D02*Y26000D01*
X38900Y26500D01*
X39400D01*
X39900Y26000D01*
Y24500D02*Y26000D01*
X42600Y24500D02*X43100Y25000D01*
X41600Y24500D02*X42600D01*
X41100Y25000D02*X41600Y24500D01*
X41100Y25000D02*Y26000D01*
X41600Y26500D01*
X43100Y24500D02*Y26000D01*
X43600Y26500D01*
X41600D02*X42600D01*
X43100Y26000D01*
X48600Y22500D02*X49100Y23000D01*
X47100Y22500D02*X48600D01*
X46600Y23000D02*X47100Y22500D01*
X46600Y23000D02*Y24000D01*
X47100Y24500D01*
X48600D01*
X49100Y25000D01*
Y26000D01*
X48600Y26500D02*X49100Y26000D01*
X47100Y26500D02*X48600D01*
X46600Y26000D02*X47100Y26500D01*
X50800Y24500D02*X52300D01*
X50300Y25000D02*X50800Y24500D01*
X50300Y25000D02*Y26000D01*
X50800Y26500D01*
X52300D01*
X55000Y24500D02*X55500Y25000D01*
X54000Y24500D02*X55000D01*
X53500Y25000D02*X54000Y24500D01*
X53500Y25000D02*Y26000D01*
X54000Y26500D01*
X55500Y24500D02*Y26000D01*
X56000Y26500D01*
X54000D02*X55000D01*
X55500Y26000D01*
X57200Y22500D02*Y26000D01*
X57700Y26500D01*
X59200D02*X60700D01*
X58700Y26000D02*X59200Y26500D01*
X58700Y25000D02*Y26000D01*
Y25000D02*X59200Y24500D01*
X60200D01*
X60700Y25000D01*
X58700Y25500D02*X60700D01*
Y25000D02*Y25500D01*
X63900Y22500D02*Y26500D01*
X63400D02*X63900Y26000D01*
X62400Y26500D02*X63400D01*
X61900Y26000D02*X62400Y26500D01*
X61900Y25000D02*Y26000D01*
Y25000D02*X62400Y24500D01*
X63400D01*
X63900Y25000D01*
X66900Y24300D02*X68400D01*
X66900Y26500D02*X68900D01*
X66900Y22500D02*Y26500D01*
Y22500D02*X68900D01*
X70600Y25000D02*Y26500D01*
Y25000D02*X71100Y24500D01*
X71600D01*
X72100Y25000D01*
Y26500D01*
X70100Y24500D02*X70600Y25000D01*
X74800Y24500D02*X75300Y25000D01*
X73800Y24500D02*X74800D01*
X73300Y25000D02*X73800Y24500D01*
X73300Y25000D02*Y26000D01*
X73800Y26500D01*
X74800D01*
X75300Y26000D01*
X73300Y27500D02*X73800Y28000D01*
X74800D01*
X75300Y27500D01*
Y24500D02*Y27500D01*
X76500Y23500D02*Y23600D01*
Y25000D02*Y26500D01*
X78000Y25000D02*Y26500D01*
Y25000D02*X78500Y24500D01*
X79000D01*
X79500Y25000D01*
Y26500D01*
X77500Y24500D02*X78000Y25000D01*
X81200Y26500D02*X82700D01*
X80700Y26000D02*X81200Y26500D01*
X80700Y25000D02*Y26000D01*
Y25000D02*X81200Y24500D01*
X82200D01*
X82700Y25000D01*
X80700Y25500D02*X82700D01*
Y25000D02*Y25500D01*
X84400Y26500D02*X85900D01*
X83900Y26000D02*X84400Y26500D01*
X83900Y25000D02*Y26000D01*
Y25000D02*X84400Y24500D01*
X85400D01*
X85900Y25000D01*
X83900Y25500D02*X85900D01*
Y25000D02*Y25500D01*
X87600Y25000D02*Y26500D01*
Y25000D02*X88100Y24500D01*
X89100D01*
X87100D02*X87600Y25000D01*
X90300Y23500D02*Y23600D01*
Y25000D02*Y26500D01*
X91800Y25000D02*Y26500D01*
Y25000D02*X92300Y24500D01*
X92800D01*
X93300Y25000D01*
Y26500D01*
X91300Y24500D02*X91800Y25000D01*
X96000Y24500D02*X96500Y25000D01*
X95000Y24500D02*X96000D01*
X94500Y25000D02*X95000Y24500D01*
X94500Y25000D02*Y26000D01*
X95000Y26500D01*
X96000D01*
X96500Y26000D01*
X94500Y27500D02*X95000Y28000D01*
X96000D01*
X96500Y27500D01*
Y24500D02*Y27500D01*
X32700Y36500D02*X34000D01*
X32000Y35800D02*X32700Y36500D01*
X32000Y33200D02*Y35800D01*
Y33200D02*X32700Y32500D01*
X34000D01*
X35200D02*Y36500D01*
Y34500D02*X37200Y32500D01*
X35200Y34500D02*X37200Y36500D01*
X38400Y32500D02*X40400D01*
X39400D02*Y36500D01*
X41600Y34500D02*X43600D01*
X45300Y32500D02*Y36500D01*
X46600Y32500D02*X47300Y33200D01*
Y35800D01*
X46600Y36500D02*X47300Y35800D01*
X44800Y36500D02*X46600D01*
X44800Y32500D02*X46600D01*
X49200Y36500D02*X50500D01*
X48500Y35800D02*X49200Y36500D01*
X48500Y33200D02*Y35800D01*
Y33200D02*X49200Y32500D01*
X50500D01*
X52400Y36500D02*X53700D01*
X51700Y35800D02*X52400Y36500D01*
X51700Y33200D02*Y35800D01*
Y33200D02*X52400Y32500D01*
X53700D01*
X55400D02*Y36500D01*
X54900Y32500D02*X56900D01*
X57400Y33000D01*
Y34000D01*
X56900Y34500D02*X57400Y34000D01*
X55400Y34500D02*X56900D01*
X58600Y32500D02*Y34500D01*
X59100Y36500D01*
X60100Y34500D01*
X61100Y36500D01*
X61600Y34500D01*
Y32500D02*Y34500D01*
X62800Y32500D02*X64800D01*
X65300Y33000D01*
Y34000D01*
X64800Y34500D02*X65300Y34000D01*
X63300Y34500D02*X64800D01*
X63300Y32500D02*Y36500D01*
X64100Y34500D02*X65300Y36500D01*
X66500Y34500D02*X68500D01*
X69700Y32500D02*X71700D01*
X72200Y33000D01*
Y34000D01*
X71700Y34500D02*X72200Y34000D01*
X70200Y34500D02*X71700D01*
X70200Y32500D02*Y36500D01*
X71000Y34500D02*X72200Y36500D01*
X73400Y34300D02*X74900D01*
X73400Y36500D02*X75400D01*
X73400Y32500D02*Y36500D01*
Y32500D02*X75400D01*
X78600D02*X79100Y33000D01*
X77100Y32500D02*X78600D01*
X76600Y33000D02*X77100Y32500D01*
X76600Y33000D02*Y36000D01*
X77100Y36500D01*
X78600D01*
X79100Y36000D01*
Y35000D02*Y36000D01*
X78600Y34500D02*X79100Y35000D01*
X77600Y34500D02*X78600D01*
X82100D02*X83100Y36500D01*
X84100Y34500D02*X83100Y36500D01*
X85300Y33300D02*X86100Y32500D01*
Y36500D01*
X85300D02*X86800D01*
X88000D02*X88500D01*
X89700Y36000D02*X90200Y36500D01*
X89700Y33000D02*Y36000D01*
Y33000D02*X90200Y32500D01*
X91200D01*
X91700Y33000D01*
Y36000D01*
X91200Y36500D02*X91700Y36000D01*
X90200Y36500D02*X91200D01*
X89700Y35500D02*X91700Y33500D01*
X32700Y44000D02*X34000D01*
X32000Y43300D02*X32700Y44000D01*
X32000Y40700D02*Y43300D01*
Y40700D02*X32700Y40000D01*
X34000D01*
X35900Y44000D02*X37200D01*
X35200Y43300D02*X35900Y44000D01*
X35200Y40700D02*Y43300D01*
Y40700D02*X35900Y40000D01*
X37200D01*
X40200Y44000D02*X42200D01*
X42700Y43500D01*
Y42300D02*Y43500D01*
X42200Y41800D02*X42700Y42300D01*
X40700Y41800D02*X42200D01*
X40700Y40000D02*Y44000D01*
X40200Y40000D02*X42200D01*
X42700Y40500D01*
Y41300D01*
X42200Y41800D02*X42700Y41300D01*
X43900Y40000D02*X44900Y42000D01*
X45900Y40000D01*
X44900Y42000D02*Y44000D01*
X47100Y42000D02*X49100D01*
X52300Y40000D02*X52800Y40500D01*
X50800Y40000D02*X52300D01*
X50300Y40500D02*X50800Y40000D01*
X50300Y40500D02*Y41500D01*
X50800Y42000D01*
X52300D01*
X52800Y42500D01*
Y43500D01*
X52300Y44000D02*X52800Y43500D01*
X50800Y44000D02*X52300D01*
X50300Y43500D02*X50800Y44000D01*
X54000Y41000D02*Y44000D01*
Y41000D02*X54700Y40000D01*
X55800D01*
X56500Y41000D01*
Y44000D01*
X54000Y42000D02*X56500D01*
X61300D02*X63300D01*
X68100Y43500D02*X68600Y44000D01*
X68100Y40500D02*X68600Y40000D01*
X68100Y40500D02*Y43500D01*
X70500Y44000D02*X71800D01*
X69800Y43300D02*X70500Y44000D01*
X69800Y40700D02*Y43300D01*
Y40700D02*X70500Y40000D01*
X71800D01*
X73000D02*X73500Y40500D01*
Y43500D01*
X73000Y44000D02*X73500Y43500D01*
X76500Y40500D02*X77000Y40000D01*
X78500D01*
X79000Y40500D01*
Y41500D01*
X76500Y44000D02*X79000Y41500D01*
X76500Y44000D02*X79000D01*
X80200Y43500D02*X80700Y44000D01*
X80200Y40500D02*Y43500D01*
Y40500D02*X80700Y40000D01*
X81700D01*
X82200Y40500D01*
Y43500D01*
X81700Y44000D02*X82200Y43500D01*
X80700Y44000D02*X81700D01*
X80200Y43000D02*X82200Y41000D01*
X83400Y40800D02*X84200Y40000D01*
Y44000D01*
X83400D02*X84900D01*
X87600Y40000D02*X88100Y40500D01*
X86600Y40000D02*X87600D01*
X86100Y40500D02*X86600Y40000D01*
X86100Y40500D02*Y43500D01*
X86600Y44000D01*
X87600Y41800D02*X88100Y42300D01*
X86100Y41800D02*X87600D01*
X86600Y44000D02*X87600D01*
X88100Y43500D01*
Y42300D02*Y43500D01*
M02*
