G04 start of page 7 for group -4062 idx -4062 *
G04 Title: (unknown), soldermask *
G04 Creator: pcb 20140316 *
G04 CreationDate: Fri 22 Jan 2016 05:15:40 PM GMT UTC *
G04 For: ndholmes *
G04 Format: Gerber/RS-274X *
G04 PCB-Dimensions (mil): 1550.00 900.00 *
G04 PCB-Coordinate-Origin: lower left *
%MOIN*%
%FSLAX25Y25*%
%LNBOTTOMMASK*%
%ADD58C,0.0710*%
%ADD57C,0.0900*%
%ADD56C,0.0740*%
%ADD55C,0.0860*%
%ADD54C,0.0001*%
%ADD53C,0.0809*%
%ADD52C,0.0660*%
G54D52*X79000Y55000D03*
Y75000D03*
G54D53*X100500D03*
G54D54*G36*
X45700Y78300D02*Y71700D01*
X52300D01*
Y78300D01*
X45700D01*
G37*
G54D52*X49000Y55000D03*
G54D54*G36*
X17200Y79300D02*Y70700D01*
X25800D01*
Y79300D01*
X17200D01*
G37*
G54D55*X21500Y55000D03*
G54D54*G36*
X18200Y31200D02*Y24600D01*
X24800D01*
Y31200D01*
X18200D01*
G37*
G54D52*X21500Y14100D03*
G54D54*G36*
X96453Y59047D02*Y50953D01*
X104547D01*
Y59047D01*
X96453D01*
G37*
G54D56*X105500Y32000D03*
G54D57*X82500Y13000D03*
X72500D03*
G54D54*G36*
X58000Y17500D02*Y8500D01*
X67000D01*
Y17500D01*
X58000D01*
G37*
G36*
X127700Y59300D02*Y50700D01*
X136300D01*
Y59300D01*
X127700D01*
G37*
G54D55*X132000Y75000D03*
G54D54*G36*
X118950Y19050D02*Y11950D01*
X126050D01*
Y19050D01*
X118950D01*
G37*
G54D58*X132500Y15500D03*
G54D54*G36*
X141800Y35700D02*Y28300D01*
X149200D01*
Y35700D01*
X141800D01*
G37*
M02*
