G04 start of page 3 for group 1 idx 1 *
G04 Title: (unknown), solder *
G04 Creator: pcb 20140316 *
G04 CreationDate: Fri 22 Jan 2016 05:15:40 PM GMT UTC *
G04 For: ndholmes *
G04 Format: Gerber/RS-274X *
G04 PCB-Dimensions (mil): 1550.00 900.00 *
G04 PCB-Coordinate-Origin: lower left *
%MOIN*%
%FSLAX25Y25*%
%LNBOTTOM*%
%ADD37C,0.0430*%
%ADD36C,0.0450*%
%ADD35C,0.0380*%
%ADD34C,0.0480*%
%ADD33C,0.0300*%
%ADD32C,0.0280*%
%ADD31C,0.0650*%
%ADD30C,0.0787*%
%ADD29C,0.0680*%
%ADD28C,0.0800*%
%ADD27C,0.0770*%
%ADD26C,0.0600*%
%ADD25C,0.0001*%
G54D25*G36*
X145500Y88000D02*X152000D01*
Y2000D01*
X145500D01*
Y27107D01*
X149135Y27114D01*
X149365Y27169D01*
X149583Y27259D01*
X149784Y27383D01*
X149964Y27536D01*
X150117Y27716D01*
X150241Y27917D01*
X150331Y28135D01*
X150386Y28365D01*
X150400Y28600D01*
X150386Y35635D01*
X150331Y35865D01*
X150241Y36083D01*
X150117Y36284D01*
X149964Y36464D01*
X149784Y36617D01*
X149583Y36741D01*
X149365Y36831D01*
X149135Y36886D01*
X148900Y36900D01*
X145500Y36893D01*
Y88000D01*
G37*
G36*
X136500D02*X145500D01*
Y36893D01*
X141865Y36886D01*
X141635Y36831D01*
X141417Y36741D01*
X141216Y36617D01*
X141036Y36464D01*
X140883Y36284D01*
X140759Y36083D01*
X140669Y35865D01*
X140614Y35635D01*
X140600Y35400D01*
X140614Y28365D01*
X140669Y28135D01*
X140759Y27917D01*
X140883Y27716D01*
X141036Y27536D01*
X141216Y27383D01*
X141417Y27259D01*
X141635Y27169D01*
X141865Y27114D01*
X142100Y27100D01*
X145500Y27107D01*
Y2000D01*
X136500D01*
Y12937D01*
X136745Y13337D01*
X137031Y14028D01*
X137206Y14755D01*
X137250Y15500D01*
X137206Y16245D01*
X137031Y16972D01*
X136745Y17663D01*
X136500Y18063D01*
Y51792D01*
X136518Y51785D01*
X136632Y51757D01*
X136750Y51748D01*
X136868Y51757D01*
X136982Y51785D01*
X137092Y51830D01*
X137192Y51891D01*
X137282Y51968D01*
X137359Y52058D01*
X137420Y52158D01*
X137465Y52268D01*
X137493Y52382D01*
X137500Y52500D01*
Y57500D01*
X137493Y57618D01*
X137465Y57732D01*
X137420Y57842D01*
X137359Y57942D01*
X137282Y58032D01*
X137192Y58109D01*
X137092Y58170D01*
X136982Y58215D01*
X136868Y58243D01*
X136750Y58252D01*
X136632Y58243D01*
X136518Y58215D01*
X136500Y58208D01*
Y71817D01*
X136916Y72495D01*
X137247Y73295D01*
X137449Y74137D01*
X137500Y75000D01*
X137449Y75863D01*
X137247Y76705D01*
X136916Y77505D01*
X136500Y78183D01*
Y88000D01*
G37*
G36*
X142000Y9000D02*X136750D01*
Y13348D01*
X137031Y14028D01*
X137206Y14755D01*
X137250Y15500D01*
X137206Y16245D01*
X137031Y16972D01*
X136750Y17652D01*
Y51748D01*
X136868Y51757D01*
X136982Y51785D01*
X137092Y51830D01*
X137192Y51891D01*
X137282Y51968D01*
X137359Y52058D01*
X137420Y52158D01*
X137465Y52268D01*
X137493Y52382D01*
X137500Y52500D01*
Y57500D01*
X137493Y57618D01*
X137465Y57732D01*
X137420Y57842D01*
X137359Y57942D01*
X137282Y58032D01*
X137192Y58109D01*
X137092Y58170D01*
X136982Y58215D01*
X136868Y58243D01*
X136750Y58252D01*
Y72225D01*
X136916Y72495D01*
X137247Y73295D01*
X137449Y74137D01*
X137500Y75000D01*
X137449Y75863D01*
X137247Y76705D01*
X136916Y77505D01*
X136750Y77775D01*
Y88000D01*
X142000D01*
Y36886D01*
X141865Y36886D01*
X141635Y36831D01*
X141417Y36741D01*
X141216Y36617D01*
X141036Y36464D01*
X140883Y36284D01*
X140759Y36083D01*
X140669Y35865D01*
X140614Y35635D01*
X140600Y35400D01*
X140614Y28365D01*
X140669Y28135D01*
X140759Y27917D01*
X140883Y27716D01*
X141036Y27536D01*
X141216Y27383D01*
X141417Y27259D01*
X141635Y27169D01*
X141865Y27114D01*
X142000Y27106D01*
Y9000D01*
G37*
G36*
X136750Y77775D02*X136463Y78243D01*
X135901Y78901D01*
X135243Y79463D01*
X134505Y79916D01*
X133705Y80247D01*
X132863Y80449D01*
X132000Y80517D01*
Y88000D01*
X136750D01*
Y77775D01*
G37*
G36*
Y17652D02*X136745Y17663D01*
X136355Y18301D01*
X135869Y18869D01*
X135301Y19355D01*
X134663Y19745D01*
X133972Y20031D01*
X133245Y20206D01*
X132500Y20265D01*
X132000Y20225D01*
Y49500D01*
X134500D01*
X134618Y49507D01*
X134732Y49535D01*
X134842Y49580D01*
X134942Y49641D01*
X135032Y49718D01*
X135109Y49808D01*
X135170Y49908D01*
X135215Y50018D01*
X135243Y50132D01*
X135252Y50250D01*
X135243Y50368D01*
X135215Y50482D01*
X135170Y50592D01*
X135109Y50692D01*
X135032Y50782D01*
X134942Y50859D01*
X134842Y50920D01*
X134732Y50965D01*
X134618Y50993D01*
X134500Y51000D01*
X132000D01*
Y59000D01*
X134500D01*
X134618Y59007D01*
X134732Y59035D01*
X134842Y59080D01*
X134942Y59141D01*
X135032Y59218D01*
X135109Y59308D01*
X135170Y59408D01*
X135215Y59518D01*
X135243Y59632D01*
X135252Y59750D01*
X135243Y59868D01*
X135215Y59982D01*
X135170Y60092D01*
X135109Y60192D01*
X135032Y60282D01*
X134942Y60359D01*
X134842Y60420D01*
X134732Y60465D01*
X134618Y60493D01*
X134500Y60500D01*
X132000D01*
Y69483D01*
X132863Y69551D01*
X133705Y69753D01*
X134505Y70084D01*
X135243Y70537D01*
X135901Y71099D01*
X136463Y71757D01*
X136750Y72225D01*
Y58252D01*
X136632Y58243D01*
X136518Y58215D01*
X136408Y58170D01*
X136308Y58109D01*
X136218Y58032D01*
X136141Y57942D01*
X136080Y57842D01*
X136035Y57732D01*
X136007Y57618D01*
X136000Y57500D01*
Y52500D01*
X136007Y52382D01*
X136035Y52268D01*
X136080Y52158D01*
X136141Y52058D01*
X136218Y51968D01*
X136308Y51891D01*
X136408Y51830D01*
X136518Y51785D01*
X136632Y51757D01*
X136750Y51748D01*
Y17652D01*
G37*
G36*
Y9000D02*X132000D01*
Y10775D01*
X132500Y10735D01*
X133245Y10794D01*
X133972Y10969D01*
X134663Y11255D01*
X135301Y11645D01*
X135869Y12131D01*
X136355Y12699D01*
X136745Y13337D01*
X136750Y13348D01*
Y9000D01*
G37*
G36*
X127250Y88000D02*X132000D01*
Y80517D01*
X132000D01*
X131137Y80449D01*
X130295Y80247D01*
X129495Y79916D01*
X128757Y79463D01*
X128099Y78901D01*
X127537Y78243D01*
X127250Y77775D01*
Y88000D01*
G37*
G36*
X132000Y9000D02*X127250D01*
Y51748D01*
X127368Y51757D01*
X127482Y51785D01*
X127592Y51830D01*
X127692Y51891D01*
X127782Y51968D01*
X127859Y52058D01*
X127920Y52158D01*
X127965Y52268D01*
X127993Y52382D01*
X128000Y52500D01*
Y57500D01*
X127993Y57618D01*
X127965Y57732D01*
X127920Y57842D01*
X127859Y57942D01*
X127782Y58032D01*
X127692Y58109D01*
X127592Y58170D01*
X127482Y58215D01*
X127368Y58243D01*
X127250Y58252D01*
Y72225D01*
X127537Y71757D01*
X128099Y71099D01*
X128757Y70537D01*
X129495Y70084D01*
X130295Y69753D01*
X131137Y69551D01*
X132000Y69483D01*
X132000D01*
Y60500D01*
X129500D01*
X129382Y60493D01*
X129268Y60465D01*
X129158Y60420D01*
X129058Y60359D01*
X128968Y60282D01*
X128891Y60192D01*
X128830Y60092D01*
X128785Y59982D01*
X128757Y59868D01*
X128748Y59750D01*
X128757Y59632D01*
X128785Y59518D01*
X128830Y59408D01*
X128891Y59308D01*
X128968Y59218D01*
X129058Y59141D01*
X129158Y59080D01*
X129268Y59035D01*
X129382Y59007D01*
X129500Y59000D01*
X132000D01*
Y51000D01*
X129500D01*
X129382Y50993D01*
X129268Y50965D01*
X129158Y50920D01*
X129058Y50859D01*
X128968Y50782D01*
X128891Y50692D01*
X128830Y50592D01*
X128785Y50482D01*
X128757Y50368D01*
X128748Y50250D01*
X128757Y50132D01*
X128785Y50018D01*
X128830Y49908D01*
X128891Y49808D01*
X128968Y49718D01*
X129058Y49641D01*
X129158Y49580D01*
X129268Y49535D01*
X129382Y49507D01*
X129500Y49500D01*
X132000D01*
Y20225D01*
X131755Y20206D01*
X131028Y20031D01*
X130337Y19745D01*
X129699Y19355D01*
X129131Y18869D01*
X128645Y18301D01*
X128255Y17663D01*
X127969Y16972D01*
X127794Y16245D01*
X127735Y15500D01*
X127794Y14755D01*
X127969Y14028D01*
X128255Y13337D01*
X128645Y12699D01*
X129131Y12131D01*
X129699Y11645D01*
X130337Y11255D01*
X131028Y10969D01*
X131755Y10794D01*
X132000Y10775D01*
Y9000D01*
G37*
G36*
X127250D02*X122500D01*
Y10750D01*
X124250D01*
X124368Y10757D01*
X124482Y10785D01*
X124592Y10830D01*
X124692Y10891D01*
X124782Y10968D01*
X124859Y11058D01*
X124920Y11158D01*
X124965Y11268D01*
X124993Y11382D01*
X125002Y11500D01*
X124993Y11618D01*
X124965Y11732D01*
X124920Y11842D01*
X124859Y11942D01*
X124782Y12032D01*
X124692Y12109D01*
X124592Y12170D01*
X124482Y12215D01*
X124368Y12243D01*
X124250Y12250D01*
X122500D01*
Y18750D01*
X124250D01*
X124368Y18757D01*
X124482Y18785D01*
X124592Y18830D01*
X124692Y18891D01*
X124782Y18968D01*
X124859Y19058D01*
X124920Y19158D01*
X124965Y19268D01*
X124993Y19382D01*
X125002Y19500D01*
X124993Y19618D01*
X124965Y19732D01*
X124920Y19842D01*
X124859Y19942D01*
X124782Y20032D01*
X124692Y20109D01*
X124592Y20170D01*
X124482Y20215D01*
X124368Y20243D01*
X124250Y20250D01*
X122500D01*
Y88000D01*
X127250D01*
Y77775D01*
X127084Y77505D01*
X126753Y76705D01*
X126551Y75863D01*
X126483Y75000D01*
X126551Y74137D01*
X126753Y73295D01*
X127084Y72495D01*
X127250Y72225D01*
Y58252D01*
X127132Y58243D01*
X127018Y58215D01*
X126908Y58170D01*
X126808Y58109D01*
X126718Y58032D01*
X126641Y57942D01*
X126580Y57842D01*
X126535Y57732D01*
X126507Y57618D01*
X126500Y57500D01*
Y52500D01*
X126507Y52382D01*
X126535Y52268D01*
X126580Y52158D01*
X126641Y52058D01*
X126718Y51968D01*
X126808Y51891D01*
X126908Y51830D01*
X127018Y51785D01*
X127132Y51757D01*
X127250Y51748D01*
Y17250D01*
X127243Y17368D01*
X127215Y17482D01*
X127170Y17592D01*
X127109Y17692D01*
X127032Y17782D01*
X126942Y17859D01*
X126842Y17920D01*
X126732Y17965D01*
X126618Y17993D01*
X126500Y18002D01*
X126382Y17993D01*
X126268Y17965D01*
X126158Y17920D01*
X126058Y17859D01*
X125968Y17782D01*
X125891Y17692D01*
X125830Y17592D01*
X125785Y17482D01*
X125757Y17368D01*
X125750Y17250D01*
Y13750D01*
X125757Y13632D01*
X125785Y13518D01*
X125830Y13408D01*
X125891Y13308D01*
X125968Y13218D01*
X126058Y13141D01*
X126158Y13080D01*
X126268Y13035D01*
X126382Y13007D01*
X126500Y12998D01*
X126618Y13007D01*
X126732Y13035D01*
X126842Y13080D01*
X126942Y13141D01*
X127032Y13218D01*
X127109Y13308D01*
X127170Y13408D01*
X127215Y13518D01*
X127243Y13632D01*
X127250Y13750D01*
Y9000D01*
G37*
G36*
X122500D02*X118500D01*
Y12998D01*
X118618Y13007D01*
X118732Y13035D01*
X118842Y13080D01*
X118942Y13141D01*
X119032Y13218D01*
X119109Y13308D01*
X119170Y13408D01*
X119215Y13518D01*
X119243Y13632D01*
X119250Y13750D01*
Y17250D01*
X119243Y17368D01*
X119215Y17482D01*
X119170Y17592D01*
X119109Y17692D01*
X119032Y17782D01*
X118942Y17859D01*
X118842Y17920D01*
X118732Y17965D01*
X118618Y17993D01*
X118500Y18002D01*
Y88000D01*
X122500D01*
Y20250D01*
X120750D01*
X120632Y20243D01*
X120518Y20215D01*
X120408Y20170D01*
X120308Y20109D01*
X120218Y20032D01*
X120141Y19942D01*
X120080Y19842D01*
X120035Y19732D01*
X120007Y19618D01*
X119998Y19500D01*
X120007Y19382D01*
X120035Y19268D01*
X120080Y19158D01*
X120141Y19058D01*
X120218Y18968D01*
X120308Y18891D01*
X120408Y18830D01*
X120518Y18785D01*
X120632Y18757D01*
X120750Y18750D01*
X122500D01*
Y12250D01*
X120750D01*
X120632Y12243D01*
X120518Y12215D01*
X120408Y12170D01*
X120308Y12109D01*
X120218Y12032D01*
X120141Y11942D01*
X120080Y11842D01*
X120035Y11732D01*
X120007Y11618D01*
X119998Y11500D01*
X120007Y11382D01*
X120035Y11268D01*
X120080Y11158D01*
X120141Y11058D01*
X120218Y10968D01*
X120308Y10891D01*
X120408Y10830D01*
X120518Y10785D01*
X120632Y10757D01*
X120750Y10750D01*
X122500D01*
Y9000D01*
G37*
G36*
X118500D02*X105334D01*
Y27098D01*
X105500Y27085D01*
X106269Y27145D01*
X107019Y27325D01*
X107731Y27621D01*
X108389Y28024D01*
X108976Y28524D01*
X109476Y29111D01*
X109879Y29769D01*
X110175Y30481D01*
X110355Y31231D01*
X110400Y32000D01*
X110355Y32769D01*
X110175Y33519D01*
X109879Y34231D01*
X109476Y34889D01*
X108976Y35476D01*
X108389Y35976D01*
X107731Y36379D01*
X107019Y36675D01*
X106269Y36855D01*
X105500Y36915D01*
X105334Y36902D01*
Y52131D01*
X105489Y52143D01*
X105639Y52180D01*
X105782Y52239D01*
X105915Y52320D01*
X106032Y52420D01*
X106133Y52538D01*
X106214Y52670D01*
X106273Y52813D01*
X106309Y52964D01*
X106318Y53118D01*
Y56882D01*
X106309Y57036D01*
X106273Y57187D01*
X106214Y57330D01*
X106133Y57462D01*
X106032Y57580D01*
X105915Y57680D01*
X105782Y57761D01*
X105639Y57820D01*
X105489Y57857D01*
X105334Y57869D01*
Y71753D01*
X105700Y72350D01*
X106051Y73196D01*
X106265Y74087D01*
X106318Y75000D01*
X106265Y75913D01*
X106051Y76804D01*
X105700Y77650D01*
X105334Y78247D01*
Y88000D01*
X118500D01*
Y18002D01*
X118382Y17993D01*
X118268Y17965D01*
X118158Y17920D01*
X118058Y17859D01*
X117968Y17782D01*
X117891Y17692D01*
X117830Y17592D01*
X117785Y17482D01*
X117757Y17368D01*
X117750Y17250D01*
Y13750D01*
X117757Y13632D01*
X117785Y13518D01*
X117830Y13408D01*
X117891Y13308D01*
X117968Y13218D01*
X118058Y13141D01*
X118158Y13080D01*
X118268Y13035D01*
X118382Y13007D01*
X118500Y12998D01*
Y9000D01*
G37*
G36*
X105334Y78247D02*X105222Y78431D01*
X104627Y79127D01*
X103931Y79722D01*
X103150Y80200D01*
X102304Y80551D01*
X101413Y80765D01*
X100500Y80836D01*
X100491Y80836D01*
Y88000D01*
X105334D01*
Y78247D01*
G37*
G36*
Y9000D02*X100491D01*
Y49182D01*
X102382D01*
X102536Y49191D01*
X102687Y49227D01*
X102830Y49286D01*
X102962Y49367D01*
X103080Y49468D01*
X103180Y49585D01*
X103261Y49718D01*
X103320Y49861D01*
X103357Y50011D01*
X103369Y50166D01*
X103357Y50320D01*
X103320Y50471D01*
X103261Y50614D01*
X103180Y50746D01*
X103080Y50864D01*
X102962Y50964D01*
X102830Y51045D01*
X102687Y51105D01*
X102536Y51141D01*
X102382Y51150D01*
X100491D01*
Y58850D01*
X102382D01*
X102536Y58859D01*
X102687Y58895D01*
X102830Y58955D01*
X102962Y59036D01*
X103080Y59136D01*
X103180Y59254D01*
X103261Y59386D01*
X103320Y59529D01*
X103357Y59680D01*
X103369Y59834D01*
X103357Y59989D01*
X103320Y60139D01*
X103261Y60282D01*
X103180Y60415D01*
X103080Y60532D01*
X102962Y60633D01*
X102830Y60714D01*
X102687Y60773D01*
X102536Y60809D01*
X102382Y60818D01*
X100491D01*
Y69164D01*
X100500Y69164D01*
X101413Y69235D01*
X102304Y69449D01*
X103150Y69800D01*
X103931Y70278D01*
X104627Y70873D01*
X105222Y71569D01*
X105334Y71753D01*
Y57869D01*
X105180Y57857D01*
X105029Y57820D01*
X104886Y57761D01*
X104754Y57680D01*
X104636Y57580D01*
X104536Y57462D01*
X104455Y57330D01*
X104395Y57187D01*
X104359Y57036D01*
X104350Y56882D01*
Y53118D01*
X104359Y52964D01*
X104395Y52813D01*
X104455Y52670D01*
X104536Y52538D01*
X104636Y52420D01*
X104754Y52320D01*
X104886Y52239D01*
X105029Y52180D01*
X105180Y52143D01*
X105334Y52131D01*
Y36902D01*
X104731Y36855D01*
X103981Y36675D01*
X103269Y36379D01*
X102611Y35976D01*
X102024Y35476D01*
X101524Y34889D01*
X101121Y34231D01*
X100825Y33519D01*
X100645Y32769D01*
X100585Y32000D01*
X100645Y31231D01*
X100825Y30481D01*
X101121Y29769D01*
X101524Y29111D01*
X102024Y28524D01*
X102611Y28024D01*
X103269Y27621D01*
X103981Y27325D01*
X104731Y27145D01*
X105334Y27098D01*
Y9000D01*
G37*
G36*
X95666Y88000D02*X100491D01*
Y80836D01*
X99587Y80765D01*
X98696Y80551D01*
X97850Y80200D01*
X97069Y79722D01*
X96373Y79127D01*
X95778Y78431D01*
X95666Y78247D01*
Y88000D01*
G37*
G36*
X100491Y9000D02*X95666D01*
Y52131D01*
X95820Y52143D01*
X95971Y52180D01*
X96114Y52239D01*
X96246Y52320D01*
X96364Y52420D01*
X96464Y52538D01*
X96545Y52670D01*
X96605Y52813D01*
X96641Y52964D01*
X96650Y53118D01*
Y56882D01*
X96641Y57036D01*
X96605Y57187D01*
X96545Y57330D01*
X96464Y57462D01*
X96364Y57580D01*
X96246Y57680D01*
X96114Y57761D01*
X95971Y57820D01*
X95820Y57857D01*
X95666Y57869D01*
Y71753D01*
X95778Y71569D01*
X96373Y70873D01*
X97069Y70278D01*
X97850Y69800D01*
X98696Y69449D01*
X99587Y69235D01*
X100491Y69164D01*
Y60818D01*
X98618D01*
X98464Y60809D01*
X98313Y60773D01*
X98170Y60714D01*
X98038Y60633D01*
X97920Y60532D01*
X97820Y60415D01*
X97739Y60282D01*
X97680Y60139D01*
X97643Y59989D01*
X97631Y59834D01*
X97643Y59680D01*
X97680Y59529D01*
X97739Y59386D01*
X97820Y59254D01*
X97920Y59136D01*
X98038Y59036D01*
X98170Y58955D01*
X98313Y58895D01*
X98464Y58859D01*
X98618Y58850D01*
X100491D01*
Y51150D01*
X98618D01*
X98464Y51141D01*
X98313Y51105D01*
X98170Y51045D01*
X98038Y50964D01*
X97920Y50864D01*
X97820Y50746D01*
X97739Y50614D01*
X97680Y50471D01*
X97643Y50320D01*
X97631Y50166D01*
X97643Y50011D01*
X97680Y49861D01*
X97739Y49718D01*
X97820Y49585D01*
X97920Y49468D01*
X98038Y49367D01*
X98170Y49286D01*
X98313Y49227D01*
X98464Y49191D01*
X98618Y49182D01*
X100491D01*
Y9000D01*
G37*
G36*
X95666D02*X86891D01*
X87318Y9500D01*
X87806Y10296D01*
X88164Y11160D01*
X88382Y12068D01*
X88437Y13000D01*
X88382Y13932D01*
X88164Y14840D01*
X87806Y15704D01*
X87318Y16500D01*
X86711Y17211D01*
X86000Y17818D01*
X85204Y18306D01*
X84340Y18664D01*
X83432Y18882D01*
X82613Y18946D01*
Y52302D01*
X82652Y52347D01*
X83022Y52951D01*
X83293Y53605D01*
X83458Y54294D01*
X83500Y55000D01*
X83458Y55706D01*
X83293Y56395D01*
X83022Y57049D01*
X82652Y57653D01*
X82613Y57698D01*
Y72853D01*
X82656Y72860D01*
X82768Y72897D01*
X82873Y72952D01*
X82968Y73022D01*
X83051Y73106D01*
X83119Y73202D01*
X83170Y73308D01*
X83318Y73716D01*
X83422Y74137D01*
X83484Y74567D01*
X83505Y75000D01*
X83484Y75433D01*
X83422Y75863D01*
X83318Y76284D01*
X83175Y76694D01*
X83122Y76800D01*
X83053Y76896D01*
X82970Y76981D01*
X82875Y77051D01*
X82769Y77106D01*
X82657Y77143D01*
X82613Y77151D01*
Y88000D01*
X95666D01*
Y78247D01*
X95300Y77650D01*
X94949Y76804D01*
X94735Y75913D01*
X94664Y75000D01*
X94735Y74087D01*
X94949Y73196D01*
X95300Y72350D01*
X95666Y71753D01*
Y57869D01*
X95511Y57857D01*
X95361Y57820D01*
X95218Y57761D01*
X95085Y57680D01*
X94968Y57580D01*
X94867Y57462D01*
X94786Y57330D01*
X94727Y57187D01*
X94691Y57036D01*
X94682Y56882D01*
Y53118D01*
X94691Y52964D01*
X94727Y52813D01*
X94786Y52670D01*
X94867Y52538D01*
X94968Y52420D01*
X95085Y52320D01*
X95218Y52239D01*
X95361Y52180D01*
X95511Y52143D01*
X95666Y52131D01*
Y9000D01*
G37*
G36*
X82613Y57698D02*X82192Y58192D01*
X81653Y58652D01*
X81049Y59022D01*
X80395Y59293D01*
X79706Y59458D01*
X79000Y59514D01*
X78993Y59513D01*
Y70495D01*
X79000Y70495D01*
X79433Y70516D01*
X79863Y70578D01*
X80284Y70682D01*
X80694Y70825D01*
X80800Y70878D01*
X80896Y70947D01*
X80981Y71030D01*
X81051Y71125D01*
X81106Y71231D01*
X81143Y71343D01*
X81163Y71460D01*
X81164Y71579D01*
X81146Y71696D01*
X81110Y71809D01*
X81057Y71915D01*
X80988Y72012D01*
X80905Y72096D01*
X80809Y72167D01*
X80704Y72221D01*
X80592Y72259D01*
X80475Y72278D01*
X80356Y72279D01*
X80239Y72261D01*
X80126Y72223D01*
X79855Y72124D01*
X79575Y72056D01*
X79289Y72014D01*
X79000Y72000D01*
X78993Y72000D01*
Y78000D01*
X79000Y78000D01*
X79289Y77986D01*
X79575Y77944D01*
X79855Y77876D01*
X80128Y77780D01*
X80239Y77742D01*
X80356Y77725D01*
X80474Y77725D01*
X80591Y77745D01*
X80703Y77782D01*
X80807Y77836D01*
X80902Y77906D01*
X80985Y77991D01*
X81054Y78087D01*
X81107Y78192D01*
X81143Y78305D01*
X81160Y78421D01*
X81159Y78539D01*
X81140Y78656D01*
X81103Y78768D01*
X81048Y78873D01*
X80978Y78968D01*
X80894Y79051D01*
X80798Y79119D01*
X80692Y79170D01*
X80284Y79318D01*
X79863Y79422D01*
X79433Y79484D01*
X79000Y79505D01*
X78993Y79505D01*
Y88000D01*
X82613D01*
Y77151D01*
X82540Y77163D01*
X82421Y77164D01*
X82304Y77146D01*
X82191Y77110D01*
X82085Y77057D01*
X81988Y76988D01*
X81904Y76905D01*
X81833Y76809D01*
X81779Y76704D01*
X81741Y76592D01*
X81722Y76475D01*
X81721Y76356D01*
X81739Y76239D01*
X81777Y76126D01*
X81876Y75855D01*
X81944Y75575D01*
X81986Y75289D01*
X82000Y75000D01*
X81986Y74711D01*
X81944Y74425D01*
X81876Y74145D01*
X81780Y73872D01*
X81742Y73761D01*
X81725Y73644D01*
X81725Y73526D01*
X81745Y73409D01*
X81782Y73297D01*
X81836Y73193D01*
X81906Y73098D01*
X81991Y73015D01*
X82087Y72946D01*
X82192Y72893D01*
X82305Y72857D01*
X82421Y72840D01*
X82539Y72841D01*
X82613Y72853D01*
Y57698D01*
G37*
G36*
Y18946D02*X82500Y18955D01*
X81568Y18882D01*
X80660Y18664D01*
X79796Y18306D01*
X79000Y17818D01*
X78993Y17812D01*
Y50487D01*
X79000Y50486D01*
X79706Y50542D01*
X80395Y50707D01*
X81049Y50978D01*
X81653Y51348D01*
X82192Y51808D01*
X82613Y52302D01*
Y18946D01*
G37*
G36*
X75387Y88000D02*X78993D01*
Y79505D01*
X78567Y79484D01*
X78137Y79422D01*
X77716Y79318D01*
X77306Y79175D01*
X77200Y79122D01*
X77104Y79053D01*
X77019Y78970D01*
X76949Y78875D01*
X76894Y78769D01*
X76857Y78657D01*
X76837Y78540D01*
X76836Y78421D01*
X76854Y78304D01*
X76890Y78191D01*
X76943Y78085D01*
X77012Y77988D01*
X77095Y77904D01*
X77191Y77833D01*
X77296Y77779D01*
X77408Y77741D01*
X77525Y77722D01*
X77644Y77721D01*
X77761Y77739D01*
X77874Y77777D01*
X78145Y77876D01*
X78425Y77944D01*
X78711Y77986D01*
X78993Y78000D01*
Y72000D01*
X78711Y72014D01*
X78425Y72056D01*
X78145Y72124D01*
X77872Y72220D01*
X77761Y72258D01*
X77644Y72275D01*
X77526Y72275D01*
X77409Y72255D01*
X77297Y72218D01*
X77193Y72164D01*
X77098Y72094D01*
X77015Y72009D01*
X76946Y71913D01*
X76893Y71808D01*
X76857Y71695D01*
X76840Y71579D01*
X76841Y71461D01*
X76860Y71344D01*
X76897Y71232D01*
X76952Y71127D01*
X77022Y71032D01*
X77106Y70949D01*
X77202Y70881D01*
X77308Y70830D01*
X77716Y70682D01*
X78137Y70578D01*
X78567Y70516D01*
X78993Y70495D01*
Y59513D01*
X78294Y59458D01*
X77605Y59293D01*
X76951Y59022D01*
X76347Y58652D01*
X75808Y58192D01*
X75387Y57698D01*
Y72849D01*
X75460Y72837D01*
X75579Y72836D01*
X75696Y72854D01*
X75809Y72890D01*
X75915Y72943D01*
X76012Y73012D01*
X76096Y73095D01*
X76167Y73191D01*
X76221Y73296D01*
X76259Y73408D01*
X76278Y73525D01*
X76279Y73644D01*
X76261Y73761D01*
X76223Y73874D01*
X76124Y74145D01*
X76056Y74425D01*
X76014Y74711D01*
X76000Y75000D01*
X76014Y75289D01*
X76056Y75575D01*
X76124Y75855D01*
X76220Y76128D01*
X76258Y76239D01*
X76275Y76356D01*
X76275Y76474D01*
X76255Y76591D01*
X76218Y76703D01*
X76164Y76807D01*
X76094Y76902D01*
X76009Y76985D01*
X75913Y77054D01*
X75808Y77107D01*
X75695Y77143D01*
X75579Y77160D01*
X75461Y77159D01*
X75387Y77147D01*
Y88000D01*
G37*
G36*
X78993Y17812D02*X78289Y17211D01*
X77682Y16500D01*
X77265Y15821D01*
X77176Y15836D01*
X77018Y15838D01*
X76861Y15815D01*
X76710Y15768D01*
X76569Y15698D01*
X76439Y15607D01*
X76326Y15496D01*
X76232Y15370D01*
X76158Y15230D01*
X76108Y15080D01*
X76081Y14924D01*
X76079Y14766D01*
X76102Y14610D01*
X76152Y14460D01*
X76278Y14108D01*
X76366Y13744D01*
X76419Y13374D01*
X76437Y13000D01*
X76419Y12626D01*
X76366Y12256D01*
X76278Y11892D01*
X76156Y11539D01*
X76106Y11389D01*
X76083Y11234D01*
X76085Y11076D01*
X76112Y10921D01*
X76162Y10772D01*
X76236Y10633D01*
X76330Y10507D01*
X76442Y10397D01*
X76571Y10306D01*
X76712Y10236D01*
X76862Y10189D01*
X77018Y10167D01*
X77175Y10168D01*
X77263Y10183D01*
X77682Y9500D01*
X78109Y9000D01*
X75387D01*
Y52302D01*
X75808Y51808D01*
X76347Y51348D01*
X76951Y50978D01*
X77605Y50707D01*
X78294Y50542D01*
X78993Y50487D01*
Y17812D01*
G37*
G36*
X75387Y9000D02*X75150D01*
X75107Y9061D01*
X74996Y9174D01*
X74870Y9268D01*
X74730Y9342D01*
X74580Y9392D01*
X74424Y9419D01*
X74266Y9421D01*
X74110Y9398D01*
X73960Y9348D01*
X73608Y9222D01*
X73244Y9134D01*
X72874Y9081D01*
X72500Y9063D01*
X72498Y9063D01*
Y16937D01*
X72500Y16937D01*
X72874Y16919D01*
X73244Y16866D01*
X73608Y16778D01*
X73961Y16656D01*
X74111Y16606D01*
X74266Y16583D01*
X74424Y16585D01*
X74579Y16612D01*
X74728Y16662D01*
X74867Y16736D01*
X74993Y16830D01*
X75103Y16942D01*
X75194Y17071D01*
X75264Y17212D01*
X75311Y17362D01*
X75333Y17518D01*
X75332Y17675D01*
X75305Y17831D01*
X75254Y17980D01*
X75181Y18119D01*
X75087Y18245D01*
X74975Y18355D01*
X74846Y18446D01*
X74704Y18513D01*
X74172Y18704D01*
X73623Y18837D01*
X73064Y18917D01*
X72500Y18944D01*
X72498Y18944D01*
Y88000D01*
X75387D01*
Y77147D01*
X75344Y77140D01*
X75232Y77103D01*
X75127Y77048D01*
X75032Y76978D01*
X74949Y76894D01*
X74881Y76798D01*
X74830Y76692D01*
X74682Y76284D01*
X74578Y75863D01*
X74516Y75433D01*
X74495Y75000D01*
X74516Y74567D01*
X74578Y74137D01*
X74682Y73716D01*
X74825Y73306D01*
X74878Y73200D01*
X74947Y73104D01*
X75030Y73019D01*
X75125Y72949D01*
X75231Y72894D01*
X75343Y72857D01*
X75387Y72849D01*
Y57698D01*
X75348Y57653D01*
X74978Y57049D01*
X74707Y56395D01*
X74542Y55706D01*
X74486Y55000D01*
X74542Y54294D01*
X74707Y53605D01*
X74978Y52951D01*
X75348Y52347D01*
X75387Y52302D01*
Y9000D01*
G37*
G36*
X72498Y9063D02*X72126Y9081D01*
X71756Y9134D01*
X71392Y9222D01*
X71039Y9344D01*
X70889Y9394D01*
X70734Y9417D01*
X70576Y9415D01*
X70421Y9388D01*
X70272Y9338D01*
X70133Y9264D01*
X70007Y9170D01*
X69897Y9058D01*
X69856Y9000D01*
X68500D01*
Y10350D01*
X68561Y10393D01*
X68674Y10504D01*
X68768Y10630D01*
X68842Y10770D01*
X68892Y10920D01*
X68919Y11076D01*
X68921Y11234D01*
X68898Y11390D01*
X68848Y11540D01*
X68722Y11892D01*
X68634Y12256D01*
X68581Y12626D01*
X68563Y13000D01*
X68581Y13374D01*
X68634Y13744D01*
X68722Y14108D01*
X68844Y14461D01*
X68894Y14611D01*
X68917Y14766D01*
X68915Y14924D01*
X68888Y15079D01*
X68838Y15228D01*
X68764Y15367D01*
X68670Y15493D01*
X68558Y15603D01*
X68500Y15644D01*
Y88000D01*
X72498D01*
Y18944D01*
X71936Y18917D01*
X71377Y18837D01*
X70828Y18704D01*
X70294Y18519D01*
X70152Y18450D01*
X70023Y18358D01*
X69909Y18248D01*
X69815Y18121D01*
X69741Y17981D01*
X69691Y17832D01*
X69664Y17676D01*
X69662Y17518D01*
X69685Y17361D01*
X69732Y17210D01*
X69802Y17069D01*
X69893Y16939D01*
X70004Y16826D01*
X70130Y16732D01*
X70270Y16658D01*
X70420Y16608D01*
X70576Y16581D01*
X70734Y16579D01*
X70890Y16602D01*
X71040Y16652D01*
X71392Y16778D01*
X71756Y16866D01*
X72126Y16919D01*
X72498Y16937D01*
Y9063D01*
G37*
G36*
X52750Y88000D02*X58500D01*
Y66000D01*
X52750D01*
Y72748D01*
X52868Y72757D01*
X52982Y72785D01*
X53092Y72830D01*
X53192Y72891D01*
X53282Y72968D01*
X53359Y73058D01*
X53420Y73158D01*
X53465Y73268D01*
X53493Y73382D01*
X53500Y73500D01*
Y76500D01*
X53493Y76618D01*
X53465Y76732D01*
X53420Y76842D01*
X53359Y76942D01*
X53282Y77032D01*
X53192Y77109D01*
X53092Y77170D01*
X52982Y77215D01*
X52868Y77243D01*
X52750Y77252D01*
Y88000D01*
G37*
G36*
X49000D02*X52750D01*
Y77252D01*
X52632Y77243D01*
X52518Y77215D01*
X52408Y77170D01*
X52308Y77109D01*
X52218Y77032D01*
X52141Y76942D01*
X52080Y76842D01*
X52035Y76732D01*
X52007Y76618D01*
X52000Y76500D01*
Y73500D01*
X52007Y73382D01*
X52035Y73268D01*
X52080Y73158D01*
X52141Y73058D01*
X52218Y72968D01*
X52308Y72891D01*
X52408Y72830D01*
X52518Y72785D01*
X52632Y72757D01*
X52750Y72748D01*
Y66000D01*
X49000D01*
Y70500D01*
X50500D01*
X50618Y70507D01*
X50732Y70535D01*
X50842Y70580D01*
X50942Y70641D01*
X51032Y70718D01*
X51109Y70808D01*
X51170Y70908D01*
X51215Y71018D01*
X51243Y71132D01*
X51252Y71250D01*
X51243Y71368D01*
X51215Y71482D01*
X51170Y71592D01*
X51109Y71692D01*
X51032Y71782D01*
X50942Y71859D01*
X50842Y71920D01*
X50732Y71965D01*
X50618Y71993D01*
X50500Y72000D01*
X49000D01*
Y78000D01*
X50500D01*
X50618Y78007D01*
X50732Y78035D01*
X50842Y78080D01*
X50942Y78141D01*
X51032Y78218D01*
X51109Y78308D01*
X51170Y78408D01*
X51215Y78518D01*
X51243Y78632D01*
X51252Y78750D01*
X51243Y78868D01*
X51215Y78982D01*
X51170Y79092D01*
X51109Y79192D01*
X51032Y79282D01*
X50942Y79359D01*
X50842Y79420D01*
X50732Y79465D01*
X50618Y79493D01*
X50500Y79500D01*
X49000D01*
Y88000D01*
G37*
G36*
X45250D02*X49000D01*
Y79500D01*
X47500D01*
X47382Y79493D01*
X47268Y79465D01*
X47158Y79420D01*
X47058Y79359D01*
X46968Y79282D01*
X46891Y79192D01*
X46830Y79092D01*
X46785Y78982D01*
X46757Y78868D01*
X46748Y78750D01*
X46757Y78632D01*
X46785Y78518D01*
X46830Y78408D01*
X46891Y78308D01*
X46968Y78218D01*
X47058Y78141D01*
X47158Y78080D01*
X47268Y78035D01*
X47382Y78007D01*
X47500Y78000D01*
X49000D01*
Y72000D01*
X47500D01*
X47382Y71993D01*
X47268Y71965D01*
X47158Y71920D01*
X47058Y71859D01*
X46968Y71782D01*
X46891Y71692D01*
X46830Y71592D01*
X46785Y71482D01*
X46757Y71368D01*
X46748Y71250D01*
X46757Y71132D01*
X46785Y71018D01*
X46830Y70908D01*
X46891Y70808D01*
X46968Y70718D01*
X47058Y70641D01*
X47158Y70580D01*
X47268Y70535D01*
X47382Y70507D01*
X47500Y70500D01*
X49000D01*
Y66000D01*
X45250D01*
Y72748D01*
X45368Y72757D01*
X45482Y72785D01*
X45592Y72830D01*
X45692Y72891D01*
X45782Y72968D01*
X45859Y73058D01*
X45920Y73158D01*
X45965Y73268D01*
X45993Y73382D01*
X46000Y73500D01*
Y76500D01*
X45993Y76618D01*
X45965Y76732D01*
X45920Y76842D01*
X45859Y76942D01*
X45782Y77032D01*
X45692Y77109D01*
X45592Y77170D01*
X45482Y77215D01*
X45368Y77243D01*
X45250Y77252D01*
Y88000D01*
G37*
G36*
X26250D02*X45250D01*
Y77252D01*
X45132Y77243D01*
X45018Y77215D01*
X44908Y77170D01*
X44808Y77109D01*
X44718Y77032D01*
X44641Y76942D01*
X44580Y76842D01*
X44535Y76732D01*
X44507Y76618D01*
X44500Y76500D01*
Y73500D01*
X44507Y73382D01*
X44535Y73268D01*
X44580Y73158D01*
X44641Y73058D01*
X44718Y72968D01*
X44808Y72891D01*
X44908Y72830D01*
X45018Y72785D01*
X45132Y72757D01*
X45250Y72748D01*
Y66000D01*
X26250D01*
Y71748D01*
X26368Y71757D01*
X26482Y71785D01*
X26592Y71830D01*
X26692Y71891D01*
X26782Y71968D01*
X26859Y72058D01*
X26920Y72158D01*
X26965Y72268D01*
X26993Y72382D01*
X27000Y72500D01*
Y77500D01*
X26993Y77618D01*
X26965Y77732D01*
X26920Y77842D01*
X26859Y77942D01*
X26782Y78032D01*
X26692Y78109D01*
X26592Y78170D01*
X26482Y78215D01*
X26368Y78243D01*
X26250Y78252D01*
Y88000D01*
G37*
G36*
X21500D02*X26250D01*
Y78252D01*
X26132Y78243D01*
X26018Y78215D01*
X25908Y78170D01*
X25808Y78109D01*
X25718Y78032D01*
X25641Y77942D01*
X25580Y77842D01*
X25535Y77732D01*
X25507Y77618D01*
X25500Y77500D01*
Y72500D01*
X25507Y72382D01*
X25535Y72268D01*
X25580Y72158D01*
X25641Y72058D01*
X25718Y71968D01*
X25808Y71891D01*
X25908Y71830D01*
X26018Y71785D01*
X26132Y71757D01*
X26250Y71748D01*
Y66000D01*
X21500D01*
Y69500D01*
X24000D01*
X24118Y69507D01*
X24232Y69535D01*
X24342Y69580D01*
X24442Y69641D01*
X24532Y69718D01*
X24609Y69808D01*
X24670Y69908D01*
X24715Y70018D01*
X24743Y70132D01*
X24752Y70250D01*
X24743Y70368D01*
X24715Y70482D01*
X24670Y70592D01*
X24609Y70692D01*
X24532Y70782D01*
X24442Y70859D01*
X24342Y70920D01*
X24232Y70965D01*
X24118Y70993D01*
X24000Y71000D01*
X21500D01*
Y79000D01*
X24000D01*
X24118Y79007D01*
X24232Y79035D01*
X24342Y79080D01*
X24442Y79141D01*
X24532Y79218D01*
X24609Y79308D01*
X24670Y79408D01*
X24715Y79518D01*
X24743Y79632D01*
X24752Y79750D01*
X24743Y79868D01*
X24715Y79982D01*
X24670Y80092D01*
X24609Y80192D01*
X24532Y80282D01*
X24442Y80359D01*
X24342Y80420D01*
X24232Y80465D01*
X24118Y80493D01*
X24000Y80500D01*
X21500D01*
Y88000D01*
G37*
G36*
X16750D02*X21500D01*
Y80500D01*
X19000D01*
X18882Y80493D01*
X18768Y80465D01*
X18658Y80420D01*
X18558Y80359D01*
X18468Y80282D01*
X18391Y80192D01*
X18330Y80092D01*
X18285Y79982D01*
X18257Y79868D01*
X18248Y79750D01*
X18257Y79632D01*
X18285Y79518D01*
X18330Y79408D01*
X18391Y79308D01*
X18468Y79218D01*
X18558Y79141D01*
X18658Y79080D01*
X18768Y79035D01*
X18882Y79007D01*
X19000Y79000D01*
X21500D01*
Y71000D01*
X19000D01*
X18882Y70993D01*
X18768Y70965D01*
X18658Y70920D01*
X18558Y70859D01*
X18468Y70782D01*
X18391Y70692D01*
X18330Y70592D01*
X18285Y70482D01*
X18257Y70368D01*
X18248Y70250D01*
X18257Y70132D01*
X18285Y70018D01*
X18330Y69908D01*
X18391Y69808D01*
X18468Y69718D01*
X18558Y69641D01*
X18658Y69580D01*
X18768Y69535D01*
X18882Y69507D01*
X19000Y69500D01*
X21500D01*
Y66000D01*
X16750D01*
Y71748D01*
X16868Y71757D01*
X16982Y71785D01*
X17092Y71830D01*
X17192Y71891D01*
X17282Y71968D01*
X17359Y72058D01*
X17420Y72158D01*
X17465Y72268D01*
X17493Y72382D01*
X17500Y72500D01*
Y77500D01*
X17493Y77618D01*
X17465Y77732D01*
X17420Y77842D01*
X17359Y77942D01*
X17282Y78032D01*
X17192Y78109D01*
X17092Y78170D01*
X16982Y78215D01*
X16868Y78243D01*
X16750Y78252D01*
Y88000D01*
G37*
G36*
X3500D02*X16750D01*
Y78252D01*
X16632Y78243D01*
X16518Y78215D01*
X16408Y78170D01*
X16308Y78109D01*
X16218Y78032D01*
X16141Y77942D01*
X16080Y77842D01*
X16035Y77732D01*
X16007Y77618D01*
X16000Y77500D01*
Y72500D01*
X16007Y72382D01*
X16035Y72268D01*
X16080Y72158D01*
X16141Y72058D01*
X16218Y71968D01*
X16308Y71891D01*
X16408Y71830D01*
X16518Y71785D01*
X16632Y71757D01*
X16750Y71748D01*
Y66000D01*
X3500D01*
Y88000D01*
G37*
G36*
X52613Y64000D02*X58500D01*
Y42000D01*
X52613D01*
Y52853D01*
X52656Y52860D01*
X52768Y52897D01*
X52873Y52952D01*
X52968Y53022D01*
X53051Y53106D01*
X53119Y53202D01*
X53170Y53308D01*
X53318Y53716D01*
X53422Y54137D01*
X53484Y54567D01*
X53505Y55000D01*
X53484Y55433D01*
X53422Y55863D01*
X53318Y56284D01*
X53175Y56694D01*
X53122Y56800D01*
X53053Y56896D01*
X52970Y56981D01*
X52875Y57051D01*
X52769Y57106D01*
X52657Y57143D01*
X52613Y57151D01*
Y64000D01*
G37*
G36*
X49002D02*X52613D01*
Y57151D01*
X52540Y57163D01*
X52421Y57164D01*
X52304Y57146D01*
X52191Y57110D01*
X52085Y57057D01*
X51988Y56988D01*
X51904Y56905D01*
X51833Y56809D01*
X51779Y56704D01*
X51741Y56592D01*
X51722Y56475D01*
X51721Y56356D01*
X51739Y56239D01*
X51777Y56126D01*
X51876Y55855D01*
X51944Y55575D01*
X51986Y55289D01*
X52000Y55000D01*
X51986Y54711D01*
X51944Y54425D01*
X51876Y54145D01*
X51780Y53872D01*
X51742Y53761D01*
X51725Y53644D01*
X51725Y53526D01*
X51745Y53409D01*
X51782Y53297D01*
X51836Y53193D01*
X51906Y53098D01*
X51991Y53015D01*
X52087Y52946D01*
X52192Y52893D01*
X52305Y52857D01*
X52421Y52840D01*
X52539Y52841D01*
X52613Y52853D01*
Y42000D01*
X49002D01*
Y50495D01*
X49433Y50516D01*
X49863Y50578D01*
X50284Y50682D01*
X50694Y50825D01*
X50800Y50878D01*
X50896Y50947D01*
X50981Y51030D01*
X51051Y51125D01*
X51106Y51231D01*
X51143Y51343D01*
X51163Y51460D01*
X51164Y51579D01*
X51146Y51696D01*
X51110Y51809D01*
X51057Y51915D01*
X50988Y52012D01*
X50905Y52096D01*
X50809Y52167D01*
X50704Y52221D01*
X50592Y52259D01*
X50475Y52278D01*
X50356Y52279D01*
X50239Y52261D01*
X50126Y52223D01*
X49855Y52124D01*
X49575Y52056D01*
X49289Y52014D01*
X49002Y52000D01*
Y58000D01*
X49289Y57986D01*
X49575Y57944D01*
X49855Y57876D01*
X50128Y57780D01*
X50239Y57742D01*
X50356Y57725D01*
X50474Y57725D01*
X50591Y57745D01*
X50703Y57782D01*
X50807Y57836D01*
X50902Y57906D01*
X50985Y57991D01*
X51054Y58087D01*
X51107Y58192D01*
X51143Y58305D01*
X51160Y58421D01*
X51159Y58539D01*
X51140Y58656D01*
X51103Y58768D01*
X51048Y58873D01*
X50978Y58968D01*
X50894Y59051D01*
X50798Y59119D01*
X50692Y59170D01*
X50284Y59318D01*
X49863Y59422D01*
X49433Y59484D01*
X49002Y59505D01*
Y64000D01*
G37*
G36*
X45387D02*X49002D01*
Y59505D01*
X49000Y59505D01*
X48567Y59484D01*
X48137Y59422D01*
X47716Y59318D01*
X47306Y59175D01*
X47200Y59122D01*
X47104Y59053D01*
X47019Y58970D01*
X46949Y58875D01*
X46894Y58769D01*
X46857Y58657D01*
X46837Y58540D01*
X46836Y58421D01*
X46854Y58304D01*
X46890Y58191D01*
X46943Y58085D01*
X47012Y57988D01*
X47095Y57904D01*
X47191Y57833D01*
X47296Y57779D01*
X47408Y57741D01*
X47525Y57722D01*
X47644Y57721D01*
X47761Y57739D01*
X47874Y57777D01*
X48145Y57876D01*
X48425Y57944D01*
X48711Y57986D01*
X49000Y58000D01*
X49002Y58000D01*
Y52000D01*
X49000Y52000D01*
X48711Y52014D01*
X48425Y52056D01*
X48145Y52124D01*
X47872Y52220D01*
X47761Y52258D01*
X47644Y52275D01*
X47526Y52275D01*
X47409Y52255D01*
X47297Y52218D01*
X47193Y52164D01*
X47098Y52094D01*
X47015Y52009D01*
X46946Y51913D01*
X46893Y51808D01*
X46857Y51695D01*
X46840Y51579D01*
X46841Y51461D01*
X46860Y51344D01*
X46897Y51232D01*
X46952Y51127D01*
X47022Y51032D01*
X47106Y50949D01*
X47202Y50881D01*
X47308Y50830D01*
X47716Y50682D01*
X48137Y50578D01*
X48567Y50516D01*
X49000Y50495D01*
X49002Y50495D01*
Y42000D01*
X45387D01*
Y52849D01*
X45460Y52837D01*
X45579Y52836D01*
X45696Y52854D01*
X45809Y52890D01*
X45915Y52943D01*
X46012Y53012D01*
X46096Y53095D01*
X46167Y53191D01*
X46221Y53296D01*
X46259Y53408D01*
X46278Y53525D01*
X46279Y53644D01*
X46261Y53761D01*
X46223Y53874D01*
X46124Y54145D01*
X46056Y54425D01*
X46014Y54711D01*
X46000Y55000D01*
X46014Y55289D01*
X46056Y55575D01*
X46124Y55855D01*
X46220Y56128D01*
X46258Y56239D01*
X46275Y56356D01*
X46275Y56474D01*
X46255Y56591D01*
X46218Y56703D01*
X46164Y56807D01*
X46094Y56902D01*
X46009Y56985D01*
X45913Y57054D01*
X45808Y57107D01*
X45695Y57143D01*
X45579Y57160D01*
X45461Y57159D01*
X45387Y57147D01*
Y64000D01*
G37*
G36*
X25993D02*X45387D01*
Y57147D01*
X45344Y57140D01*
X45232Y57103D01*
X45127Y57048D01*
X45032Y56978D01*
X44949Y56894D01*
X44881Y56798D01*
X44830Y56692D01*
X44682Y56284D01*
X44578Y55863D01*
X44516Y55433D01*
X44495Y55000D01*
X44516Y54567D01*
X44578Y54137D01*
X44682Y53716D01*
X44825Y53306D01*
X44878Y53200D01*
X44947Y53104D01*
X45030Y53019D01*
X45125Y52949D01*
X45231Y52894D01*
X45343Y52857D01*
X45387Y52849D01*
Y42000D01*
X25993D01*
Y52145D01*
X26078Y52181D01*
X26179Y52243D01*
X26269Y52319D01*
X26345Y52409D01*
X26405Y52511D01*
X26622Y52980D01*
X26789Y53469D01*
X26909Y53972D01*
X26982Y54484D01*
X27006Y55000D01*
X26982Y55516D01*
X26909Y56028D01*
X26789Y56531D01*
X26622Y57020D01*
X26410Y57492D01*
X26349Y57593D01*
X26272Y57684D01*
X26182Y57761D01*
X26080Y57823D01*
X25993Y57860D01*
Y64000D01*
G37*
G36*
X21502D02*X25993D01*
Y57860D01*
X25971Y57869D01*
X25855Y57897D01*
X25737Y57906D01*
X25619Y57897D01*
X25503Y57870D01*
X25393Y57824D01*
X25292Y57762D01*
X25202Y57686D01*
X25124Y57595D01*
X25062Y57494D01*
X25016Y57385D01*
X24989Y57269D01*
X24979Y57151D01*
X24988Y57032D01*
X25016Y56917D01*
X25063Y56808D01*
X25221Y56468D01*
X25342Y56112D01*
X25430Y55747D01*
X25482Y55375D01*
X25500Y55000D01*
X25482Y54625D01*
X25430Y54253D01*
X25342Y53888D01*
X25221Y53532D01*
X25067Y53190D01*
X25020Y53082D01*
X24993Y52967D01*
X24983Y52849D01*
X24993Y52732D01*
X25021Y52617D01*
X25066Y52508D01*
X25128Y52407D01*
X25205Y52318D01*
X25295Y52241D01*
X25395Y52180D01*
X25504Y52135D01*
X25619Y52107D01*
X25737Y52098D01*
X25855Y52108D01*
X25969Y52135D01*
X25993Y52145D01*
Y42000D01*
X21502D01*
Y49494D01*
X22016Y49518D01*
X22528Y49591D01*
X23031Y49711D01*
X23520Y49878D01*
X23992Y50090D01*
X24093Y50151D01*
X24184Y50228D01*
X24261Y50318D01*
X24323Y50420D01*
X24369Y50529D01*
X24397Y50645D01*
X24406Y50763D01*
X24397Y50881D01*
X24370Y50997D01*
X24324Y51107D01*
X24262Y51208D01*
X24186Y51298D01*
X24095Y51376D01*
X23994Y51438D01*
X23885Y51484D01*
X23769Y51511D01*
X23651Y51521D01*
X23532Y51512D01*
X23417Y51484D01*
X23308Y51437D01*
X22968Y51279D01*
X22612Y51158D01*
X22247Y51070D01*
X21875Y51018D01*
X21502Y51000D01*
Y59000D01*
X21875Y58982D01*
X22247Y58930D01*
X22612Y58842D01*
X22968Y58721D01*
X23310Y58567D01*
X23418Y58520D01*
X23533Y58493D01*
X23651Y58483D01*
X23768Y58493D01*
X23883Y58521D01*
X23992Y58566D01*
X24093Y58628D01*
X24182Y58705D01*
X24259Y58795D01*
X24320Y58895D01*
X24365Y59004D01*
X24393Y59119D01*
X24402Y59237D01*
X24392Y59355D01*
X24365Y59469D01*
X24319Y59578D01*
X24257Y59679D01*
X24181Y59769D01*
X24091Y59845D01*
X23989Y59905D01*
X23520Y60122D01*
X23031Y60289D01*
X22528Y60409D01*
X22016Y60482D01*
X21502Y60506D01*
Y64000D01*
G37*
G36*
X17007D02*X21502D01*
Y60506D01*
X21500Y60506D01*
X20984Y60482D01*
X20472Y60409D01*
X19969Y60289D01*
X19480Y60122D01*
X19008Y59910D01*
X18907Y59849D01*
X18816Y59772D01*
X18739Y59682D01*
X18677Y59580D01*
X18631Y59471D01*
X18603Y59355D01*
X18594Y59237D01*
X18603Y59119D01*
X18630Y59003D01*
X18676Y58893D01*
X18738Y58792D01*
X18814Y58702D01*
X18905Y58624D01*
X19006Y58562D01*
X19115Y58516D01*
X19231Y58489D01*
X19349Y58479D01*
X19468Y58488D01*
X19583Y58516D01*
X19692Y58563D01*
X20032Y58721D01*
X20388Y58842D01*
X20753Y58930D01*
X21125Y58982D01*
X21500Y59000D01*
X21502Y59000D01*
Y51000D01*
X21500Y51000D01*
X21125Y51018D01*
X20753Y51070D01*
X20388Y51158D01*
X20032Y51279D01*
X19690Y51433D01*
X19582Y51480D01*
X19467Y51507D01*
X19349Y51517D01*
X19232Y51507D01*
X19117Y51479D01*
X19008Y51434D01*
X18907Y51372D01*
X18818Y51295D01*
X18741Y51205D01*
X18680Y51105D01*
X18635Y50996D01*
X18607Y50881D01*
X18598Y50763D01*
X18608Y50645D01*
X18635Y50531D01*
X18681Y50422D01*
X18743Y50321D01*
X18819Y50231D01*
X18909Y50155D01*
X19011Y50095D01*
X19480Y49878D01*
X19969Y49711D01*
X20472Y49591D01*
X20984Y49518D01*
X21500Y49494D01*
X21502Y49494D01*
Y42000D01*
X17007D01*
Y52140D01*
X17029Y52131D01*
X17145Y52103D01*
X17263Y52094D01*
X17381Y52103D01*
X17497Y52130D01*
X17607Y52176D01*
X17708Y52238D01*
X17798Y52314D01*
X17876Y52405D01*
X17938Y52506D01*
X17984Y52615D01*
X18011Y52731D01*
X18021Y52849D01*
X18012Y52968D01*
X17984Y53083D01*
X17937Y53192D01*
X17779Y53532D01*
X17658Y53888D01*
X17570Y54253D01*
X17518Y54625D01*
X17500Y55000D01*
X17518Y55375D01*
X17570Y55747D01*
X17658Y56112D01*
X17779Y56468D01*
X17933Y56810D01*
X17980Y56918D01*
X18007Y57033D01*
X18017Y57151D01*
X18007Y57268D01*
X17979Y57383D01*
X17934Y57492D01*
X17872Y57593D01*
X17795Y57682D01*
X17705Y57759D01*
X17605Y57820D01*
X17496Y57865D01*
X17381Y57893D01*
X17263Y57902D01*
X17145Y57892D01*
X17031Y57865D01*
X17007Y57855D01*
Y64000D01*
G37*
G36*
X3500D02*X17007D01*
Y57855D01*
X16922Y57819D01*
X16821Y57757D01*
X16731Y57681D01*
X16655Y57591D01*
X16595Y57489D01*
X16378Y57020D01*
X16211Y56531D01*
X16091Y56028D01*
X16018Y55516D01*
X15994Y55000D01*
X16018Y54484D01*
X16091Y53972D01*
X16211Y53469D01*
X16378Y52980D01*
X16590Y52508D01*
X16651Y52407D01*
X16728Y52316D01*
X16818Y52239D01*
X16920Y52177D01*
X17007Y52140D01*
Y42000D01*
X3500D01*
Y64000D01*
G37*
G36*
X132493Y33000D02*X140605D01*
X140614Y28365D01*
X140669Y28135D01*
X140759Y27917D01*
X140883Y27716D01*
X141036Y27536D01*
X141216Y27383D01*
X141417Y27259D01*
X141635Y27169D01*
X141865Y27114D01*
X142000Y27106D01*
Y2000D01*
X132493D01*
Y10736D01*
X132500Y10735D01*
X133245Y10794D01*
X133972Y10969D01*
X134663Y11255D01*
X135301Y11645D01*
X135869Y12131D01*
X136355Y12699D01*
X136745Y13337D01*
X137031Y14028D01*
X137206Y14755D01*
X137250Y15500D01*
X137206Y16245D01*
X137031Y16972D01*
X136745Y17663D01*
X136355Y18301D01*
X135869Y18869D01*
X135301Y19355D01*
X134663Y19745D01*
X133972Y20031D01*
X133245Y20206D01*
X132500Y20265D01*
X132493Y20264D01*
Y33000D01*
G37*
G36*
X126500D02*X132493D01*
Y20264D01*
X131755Y20206D01*
X131028Y20031D01*
X130337Y19745D01*
X129699Y19355D01*
X129131Y18869D01*
X128645Y18301D01*
X128255Y17663D01*
X127969Y16972D01*
X127794Y16245D01*
X127735Y15500D01*
X127794Y14755D01*
X127969Y14028D01*
X128255Y13337D01*
X128645Y12699D01*
X129131Y12131D01*
X129699Y11645D01*
X130337Y11255D01*
X131028Y10969D01*
X131755Y10794D01*
X132493Y10736D01*
Y2000D01*
X126500D01*
Y12998D01*
X126618Y13007D01*
X126732Y13035D01*
X126842Y13080D01*
X126942Y13141D01*
X127032Y13218D01*
X127109Y13308D01*
X127170Y13408D01*
X127215Y13518D01*
X127243Y13632D01*
X127250Y13750D01*
Y17250D01*
X127243Y17368D01*
X127215Y17482D01*
X127170Y17592D01*
X127109Y17692D01*
X127032Y17782D01*
X126942Y17859D01*
X126842Y17920D01*
X126732Y17965D01*
X126618Y17993D01*
X126500Y18002D01*
Y33000D01*
G37*
G36*
X122500D02*X126500D01*
Y18002D01*
X126382Y17993D01*
X126268Y17965D01*
X126158Y17920D01*
X126058Y17859D01*
X125968Y17782D01*
X125891Y17692D01*
X125830Y17592D01*
X125785Y17482D01*
X125757Y17368D01*
X125750Y17250D01*
Y13750D01*
X125757Y13632D01*
X125785Y13518D01*
X125830Y13408D01*
X125891Y13308D01*
X125968Y13218D01*
X126058Y13141D01*
X126158Y13080D01*
X126268Y13035D01*
X126382Y13007D01*
X126500Y12998D01*
Y2000D01*
X122500D01*
Y10750D01*
X124250D01*
X124368Y10757D01*
X124482Y10785D01*
X124592Y10830D01*
X124692Y10891D01*
X124782Y10968D01*
X124859Y11058D01*
X124920Y11158D01*
X124965Y11268D01*
X124993Y11382D01*
X125002Y11500D01*
X124993Y11618D01*
X124965Y11732D01*
X124920Y11842D01*
X124859Y11942D01*
X124782Y12032D01*
X124692Y12109D01*
X124592Y12170D01*
X124482Y12215D01*
X124368Y12243D01*
X124250Y12250D01*
X122500D01*
Y18750D01*
X124250D01*
X124368Y18757D01*
X124482Y18785D01*
X124592Y18830D01*
X124692Y18891D01*
X124782Y18968D01*
X124859Y19058D01*
X124920Y19158D01*
X124965Y19268D01*
X124993Y19382D01*
X125002Y19500D01*
X124993Y19618D01*
X124965Y19732D01*
X124920Y19842D01*
X124859Y19942D01*
X124782Y20032D01*
X124692Y20109D01*
X124592Y20170D01*
X124482Y20215D01*
X124368Y20243D01*
X124250Y20250D01*
X122500D01*
Y33000D01*
G37*
G36*
X118500D02*X122500D01*
Y20250D01*
X120750D01*
X120632Y20243D01*
X120518Y20215D01*
X120408Y20170D01*
X120308Y20109D01*
X120218Y20032D01*
X120141Y19942D01*
X120080Y19842D01*
X120035Y19732D01*
X120007Y19618D01*
X119998Y19500D01*
X120007Y19382D01*
X120035Y19268D01*
X120080Y19158D01*
X120141Y19058D01*
X120218Y18968D01*
X120308Y18891D01*
X120408Y18830D01*
X120518Y18785D01*
X120632Y18757D01*
X120750Y18750D01*
X122500D01*
Y12250D01*
X120750D01*
X120632Y12243D01*
X120518Y12215D01*
X120408Y12170D01*
X120308Y12109D01*
X120218Y12032D01*
X120141Y11942D01*
X120080Y11842D01*
X120035Y11732D01*
X120007Y11618D01*
X119998Y11500D01*
X120007Y11382D01*
X120035Y11268D01*
X120080Y11158D01*
X120141Y11058D01*
X120218Y10968D01*
X120308Y10891D01*
X120408Y10830D01*
X120518Y10785D01*
X120632Y10757D01*
X120750Y10750D01*
X122500D01*
Y2000D01*
X118500D01*
Y12998D01*
X118618Y13007D01*
X118732Y13035D01*
X118842Y13080D01*
X118942Y13141D01*
X119032Y13218D01*
X119109Y13308D01*
X119170Y13408D01*
X119215Y13518D01*
X119243Y13632D01*
X119250Y13750D01*
Y17250D01*
X119243Y17368D01*
X119215Y17482D01*
X119170Y17592D01*
X119109Y17692D01*
X119032Y17782D01*
X118942Y17859D01*
X118842Y17920D01*
X118732Y17965D01*
X118618Y17993D01*
X118500Y18002D01*
Y33000D01*
G37*
G36*
X82258D02*X100701D01*
X100645Y32769D01*
X100585Y32000D01*
X100645Y31231D01*
X100825Y30481D01*
X101121Y29769D01*
X101524Y29111D01*
X102024Y28524D01*
X102611Y28024D01*
X103269Y27621D01*
X103981Y27325D01*
X104731Y27145D01*
X105500Y27085D01*
X106269Y27145D01*
X107019Y27325D01*
X107731Y27621D01*
X108389Y28024D01*
X108976Y28524D01*
X109476Y29111D01*
X109879Y29769D01*
X110175Y30481D01*
X110355Y31231D01*
X110400Y32000D01*
X110355Y32769D01*
X110299Y33000D01*
X118500D01*
Y18002D01*
X118382Y17993D01*
X118268Y17965D01*
X118158Y17920D01*
X118058Y17859D01*
X117968Y17782D01*
X117891Y17692D01*
X117830Y17592D01*
X117785Y17482D01*
X117757Y17368D01*
X117750Y17250D01*
Y13750D01*
X117757Y13632D01*
X117785Y13518D01*
X117830Y13408D01*
X117891Y13308D01*
X117968Y13218D01*
X118058Y13141D01*
X118158Y13080D01*
X118268Y13035D01*
X118382Y13007D01*
X118500Y12998D01*
Y2000D01*
X82258D01*
Y7064D01*
X82500Y7045D01*
X83432Y7118D01*
X84340Y7336D01*
X85204Y7694D01*
X86000Y8182D01*
X86711Y8789D01*
X87318Y9500D01*
X87806Y10296D01*
X88164Y11160D01*
X88382Y12068D01*
X88437Y13000D01*
X88382Y13932D01*
X88164Y14840D01*
X87806Y15704D01*
X87318Y16500D01*
X86711Y17211D01*
X86000Y17818D01*
X85204Y18306D01*
X84340Y18664D01*
X83432Y18882D01*
X82500Y18955D01*
X82258Y18936D01*
Y33000D01*
G37*
G36*
X72502D02*X82258D01*
Y18936D01*
X81568Y18882D01*
X80660Y18664D01*
X79796Y18306D01*
X79000Y17818D01*
X78289Y17211D01*
X77682Y16500D01*
X77265Y15821D01*
X77176Y15836D01*
X77018Y15838D01*
X76861Y15815D01*
X76710Y15768D01*
X76569Y15698D01*
X76439Y15607D01*
X76326Y15496D01*
X76232Y15370D01*
X76158Y15230D01*
X76108Y15080D01*
X76081Y14924D01*
X76079Y14766D01*
X76102Y14610D01*
X76152Y14460D01*
X76278Y14108D01*
X76366Y13744D01*
X76419Y13374D01*
X76437Y13000D01*
X76419Y12626D01*
X76366Y12256D01*
X76278Y11892D01*
X76156Y11539D01*
X76106Y11389D01*
X76083Y11234D01*
X76085Y11076D01*
X76112Y10921D01*
X76162Y10772D01*
X76236Y10633D01*
X76330Y10507D01*
X76442Y10397D01*
X76571Y10306D01*
X76712Y10236D01*
X76862Y10189D01*
X77018Y10167D01*
X77175Y10168D01*
X77263Y10183D01*
X77682Y9500D01*
X78289Y8789D01*
X79000Y8182D01*
X79796Y7694D01*
X80660Y7336D01*
X81568Y7118D01*
X82258Y7064D01*
Y2000D01*
X72502D01*
Y7056D01*
X73064Y7083D01*
X73623Y7163D01*
X74172Y7296D01*
X74706Y7481D01*
X74848Y7550D01*
X74977Y7642D01*
X75091Y7752D01*
X75185Y7879D01*
X75259Y8019D01*
X75309Y8168D01*
X75336Y8324D01*
X75338Y8482D01*
X75315Y8639D01*
X75268Y8790D01*
X75198Y8931D01*
X75107Y9061D01*
X74996Y9174D01*
X74870Y9268D01*
X74730Y9342D01*
X74580Y9392D01*
X74424Y9419D01*
X74266Y9421D01*
X74110Y9398D01*
X73960Y9348D01*
X73608Y9222D01*
X73244Y9134D01*
X72874Y9081D01*
X72502Y9063D01*
Y16937D01*
X72874Y16919D01*
X73244Y16866D01*
X73608Y16778D01*
X73961Y16656D01*
X74111Y16606D01*
X74266Y16583D01*
X74424Y16585D01*
X74579Y16612D01*
X74728Y16662D01*
X74867Y16736D01*
X74993Y16830D01*
X75103Y16942D01*
X75194Y17071D01*
X75264Y17212D01*
X75311Y17362D01*
X75333Y17518D01*
X75332Y17675D01*
X75305Y17831D01*
X75254Y17980D01*
X75181Y18119D01*
X75087Y18245D01*
X74975Y18355D01*
X74846Y18446D01*
X74704Y18513D01*
X74172Y18704D01*
X73623Y18837D01*
X73064Y18917D01*
X72502Y18944D01*
Y33000D01*
G37*
G36*
X62742D02*X72502D01*
Y18944D01*
X72500Y18944D01*
X71936Y18917D01*
X71377Y18837D01*
X70828Y18704D01*
X70294Y18519D01*
X70152Y18450D01*
X70023Y18358D01*
X69909Y18248D01*
X69815Y18121D01*
X69741Y17981D01*
X69691Y17832D01*
X69664Y17676D01*
X69662Y17518D01*
X69685Y17361D01*
X69732Y17210D01*
X69802Y17069D01*
X69893Y16939D01*
X70004Y16826D01*
X70130Y16732D01*
X70270Y16658D01*
X70420Y16608D01*
X70576Y16581D01*
X70734Y16579D01*
X70890Y16602D01*
X71040Y16652D01*
X71392Y16778D01*
X71756Y16866D01*
X72126Y16919D01*
X72500Y16937D01*
X72502Y16937D01*
Y9063D01*
X72500Y9063D01*
X72126Y9081D01*
X71756Y9134D01*
X71392Y9222D01*
X71039Y9344D01*
X70889Y9394D01*
X70734Y9417D01*
X70576Y9415D01*
X70421Y9388D01*
X70272Y9338D01*
X70133Y9264D01*
X70007Y9170D01*
X69897Y9058D01*
X69806Y8929D01*
X69736Y8788D01*
X69689Y8638D01*
X69667Y8482D01*
X69668Y8325D01*
X69695Y8169D01*
X69746Y8020D01*
X69819Y7881D01*
X69913Y7755D01*
X70025Y7645D01*
X70154Y7554D01*
X70296Y7487D01*
X70828Y7296D01*
X71377Y7163D01*
X71936Y7083D01*
X72500Y7056D01*
X72502Y7056D01*
Y2000D01*
X62742D01*
Y7072D01*
X66751Y7082D01*
X67057Y7155D01*
X67348Y7275D01*
X67616Y7440D01*
X67856Y7644D01*
X68060Y7884D01*
X68225Y8152D01*
X68345Y8443D01*
X68418Y8749D01*
X68437Y9063D01*
X68434Y10304D01*
X68561Y10393D01*
X68674Y10504D01*
X68768Y10630D01*
X68842Y10770D01*
X68892Y10920D01*
X68919Y11076D01*
X68921Y11234D01*
X68898Y11390D01*
X68848Y11540D01*
X68722Y11892D01*
X68634Y12256D01*
X68581Y12626D01*
X68563Y13000D01*
X68581Y13374D01*
X68634Y13744D01*
X68722Y14108D01*
X68844Y14461D01*
X68894Y14611D01*
X68917Y14766D01*
X68915Y14924D01*
X68888Y15079D01*
X68838Y15228D01*
X68764Y15367D01*
X68670Y15493D01*
X68558Y15603D01*
X68429Y15694D01*
X68422Y15698D01*
X68418Y17251D01*
X68345Y17557D01*
X68225Y17848D01*
X68060Y18116D01*
X67856Y18356D01*
X67616Y18560D01*
X67348Y18725D01*
X67057Y18845D01*
X66751Y18918D01*
X66437Y18937D01*
X62742Y18929D01*
Y33000D01*
G37*
G36*
X24784D02*X62742D01*
Y18929D01*
X58249Y18918D01*
X57943Y18845D01*
X57652Y18725D01*
X57384Y18560D01*
X57144Y18356D01*
X56940Y18116D01*
X56775Y17848D01*
X56655Y17557D01*
X56582Y17251D01*
X56563Y16937D01*
X56582Y8749D01*
X56655Y8443D01*
X56775Y8152D01*
X56940Y7884D01*
X57144Y7644D01*
X57384Y7440D01*
X57652Y7275D01*
X57943Y7155D01*
X58249Y7082D01*
X58563Y7063D01*
X62742Y7072D01*
Y2000D01*
X24784D01*
Y11969D01*
X24787Y11970D01*
X24855Y12009D01*
X24916Y12058D01*
X24969Y12117D01*
X25011Y12183D01*
X25174Y12508D01*
X25303Y12848D01*
X25401Y13198D01*
X25467Y13556D01*
X25500Y13918D01*
Y14282D01*
X25467Y14644D01*
X25401Y15002D01*
X25303Y15352D01*
X25174Y15692D01*
X25015Y16019D01*
X24972Y16085D01*
X24919Y16144D01*
X24857Y16194D01*
X24788Y16233D01*
X24784Y16235D01*
Y23940D01*
X24810Y23946D01*
X24955Y24006D01*
X25090Y24088D01*
X25209Y24191D01*
X25312Y24310D01*
X25394Y24445D01*
X25454Y24590D01*
X25491Y24743D01*
X25500Y24900D01*
X25491Y31057D01*
X25454Y31210D01*
X25394Y31355D01*
X25312Y31490D01*
X25209Y31609D01*
X25090Y31712D01*
X24955Y31794D01*
X24810Y31854D01*
X24784Y31860D01*
Y33000D01*
G37*
G36*
Y2000D02*X21500D01*
Y10100D01*
X21682D01*
X22044Y10133D01*
X22402Y10199D01*
X22752Y10297D01*
X23092Y10426D01*
X23419Y10585D01*
X23485Y10628D01*
X23544Y10681D01*
X23594Y10743D01*
X23633Y10812D01*
X23661Y10886D01*
X23677Y10963D01*
X23681Y11042D01*
X23673Y11121D01*
X23652Y11197D01*
X23620Y11270D01*
X23577Y11336D01*
X23524Y11395D01*
X23462Y11444D01*
X23393Y11484D01*
X23319Y11512D01*
X23242Y11528D01*
X23163Y11532D01*
X23084Y11524D01*
X23007Y11503D01*
X22936Y11470D01*
X22693Y11347D01*
X22438Y11250D01*
X22176Y11177D01*
X21908Y11128D01*
X21636Y11103D01*
X21500D01*
Y17097D01*
X21636D01*
X21908Y17072D01*
X22176Y17023D01*
X22438Y16950D01*
X22693Y16853D01*
X22937Y16733D01*
X23009Y16700D01*
X23084Y16679D01*
X23163Y16671D01*
X23241Y16675D01*
X23318Y16691D01*
X23392Y16719D01*
X23460Y16758D01*
X23521Y16807D01*
X23574Y16866D01*
X23617Y16932D01*
X23649Y17004D01*
X23670Y17080D01*
X23678Y17158D01*
X23674Y17236D01*
X23658Y17313D01*
X23630Y17387D01*
X23591Y17455D01*
X23542Y17516D01*
X23483Y17569D01*
X23417Y17611D01*
X23092Y17774D01*
X22752Y17903D01*
X22402Y18001D01*
X22044Y18067D01*
X21682Y18100D01*
X21500D01*
Y23905D01*
X24657Y23909D01*
X24784Y23940D01*
Y16235D01*
X24714Y16261D01*
X24637Y16277D01*
X24558Y16281D01*
X24479Y16273D01*
X24403Y16252D01*
X24330Y16220D01*
X24264Y16177D01*
X24205Y16124D01*
X24156Y16062D01*
X24116Y15993D01*
X24088Y15919D01*
X24072Y15842D01*
X24068Y15763D01*
X24076Y15684D01*
X24097Y15607D01*
X24130Y15536D01*
X24253Y15293D01*
X24350Y15038D01*
X24423Y14776D01*
X24472Y14508D01*
X24497Y14236D01*
Y13964D01*
X24472Y13692D01*
X24423Y13424D01*
X24350Y13162D01*
X24253Y12907D01*
X24133Y12663D01*
X24100Y12591D01*
X24079Y12516D01*
X24071Y12437D01*
X24075Y12359D01*
X24091Y12282D01*
X24119Y12208D01*
X24158Y12140D01*
X24207Y12079D01*
X24266Y12026D01*
X24332Y11983D01*
X24404Y11951D01*
X24480Y11930D01*
X24558Y11922D01*
X24636Y11926D01*
X24713Y11942D01*
X24784Y11969D01*
Y2000D01*
G37*
G36*
X21500Y33000D02*X24784D01*
Y31860D01*
X24657Y31891D01*
X24500Y31900D01*
X21500Y31895D01*
Y33000D01*
G37*
G36*
X18216Y23940D02*X18343Y23909D01*
X18500Y23900D01*
X21500Y23905D01*
Y18100D01*
X21318D01*
X20956Y18067D01*
X20598Y18001D01*
X20248Y17903D01*
X19908Y17774D01*
X19581Y17615D01*
X19515Y17572D01*
X19456Y17519D01*
X19406Y17457D01*
X19367Y17388D01*
X19339Y17314D01*
X19323Y17237D01*
X19319Y17158D01*
X19327Y17079D01*
X19348Y17003D01*
X19380Y16930D01*
X19423Y16864D01*
X19476Y16805D01*
X19538Y16756D01*
X19607Y16716D01*
X19681Y16688D01*
X19758Y16672D01*
X19837Y16668D01*
X19916Y16676D01*
X19993Y16697D01*
X20064Y16730D01*
X20307Y16853D01*
X20562Y16950D01*
X20824Y17023D01*
X21092Y17072D01*
X21364Y17097D01*
X21500D01*
Y11103D01*
X21364D01*
X21092Y11128D01*
X20824Y11177D01*
X20562Y11250D01*
X20307Y11347D01*
X20063Y11467D01*
X19991Y11500D01*
X19915Y11521D01*
X19837Y11529D01*
X19759Y11525D01*
X19682Y11509D01*
X19608Y11481D01*
X19540Y11442D01*
X19479Y11393D01*
X19426Y11334D01*
X19383Y11268D01*
X19351Y11196D01*
X19330Y11120D01*
X19322Y11042D01*
X19326Y10964D01*
X19342Y10887D01*
X19370Y10813D01*
X19409Y10745D01*
X19458Y10684D01*
X19517Y10631D01*
X19583Y10589D01*
X19908Y10426D01*
X20248Y10297D01*
X20598Y10199D01*
X20956Y10133D01*
X21318Y10100D01*
X21500D01*
Y2000D01*
X18216D01*
Y11965D01*
X18286Y11939D01*
X18363Y11923D01*
X18442Y11919D01*
X18521Y11927D01*
X18597Y11948D01*
X18670Y11980D01*
X18736Y12023D01*
X18795Y12076D01*
X18844Y12138D01*
X18884Y12207D01*
X18912Y12281D01*
X18928Y12358D01*
X18932Y12437D01*
X18924Y12516D01*
X18903Y12593D01*
X18870Y12664D01*
X18747Y12907D01*
X18650Y13162D01*
X18577Y13424D01*
X18528Y13692D01*
X18503Y13964D01*
Y14236D01*
X18528Y14508D01*
X18577Y14776D01*
X18650Y15038D01*
X18747Y15293D01*
X18867Y15537D01*
X18900Y15609D01*
X18921Y15685D01*
X18929Y15763D01*
X18925Y15841D01*
X18909Y15918D01*
X18881Y15992D01*
X18842Y16060D01*
X18793Y16121D01*
X18734Y16174D01*
X18668Y16217D01*
X18596Y16249D01*
X18520Y16270D01*
X18442Y16278D01*
X18364Y16274D01*
X18287Y16258D01*
X18216Y16231D01*
Y23940D01*
G37*
G36*
Y33000D02*X21500D01*
Y31895D01*
X18343Y31891D01*
X18216Y31860D01*
Y33000D01*
G37*
G36*
X3500D02*X18216D01*
Y31860D01*
X18190Y31854D01*
X18045Y31794D01*
X17910Y31712D01*
X17791Y31609D01*
X17688Y31490D01*
X17606Y31355D01*
X17546Y31210D01*
X17509Y31057D01*
X17500Y30900D01*
X17509Y24743D01*
X17546Y24590D01*
X17606Y24445D01*
X17688Y24310D01*
X17791Y24191D01*
X17910Y24088D01*
X18045Y24006D01*
X18190Y23946D01*
X18216Y23940D01*
Y16231D01*
X18213Y16230D01*
X18145Y16191D01*
X18084Y16142D01*
X18031Y16083D01*
X17989Y16017D01*
X17826Y15692D01*
X17697Y15352D01*
X17599Y15002D01*
X17533Y14644D01*
X17500Y14282D01*
Y13918D01*
X17533Y13556D01*
X17599Y13198D01*
X17697Y12848D01*
X17826Y12508D01*
X17985Y12181D01*
X18028Y12115D01*
X18081Y12056D01*
X18143Y12006D01*
X18212Y11967D01*
X18216Y11965D01*
Y2000D01*
X3500D01*
Y33000D01*
G37*
G36*
X132493Y38500D02*X142500D01*
Y36887D01*
X141865Y36886D01*
X141635Y36831D01*
X141417Y36741D01*
X141216Y36617D01*
X141036Y36464D01*
X140883Y36284D01*
X140759Y36083D01*
X140669Y35865D01*
X140614Y35635D01*
X140600Y35400D01*
X140614Y28365D01*
X140669Y28135D01*
X140759Y27917D01*
X140883Y27716D01*
X141036Y27536D01*
X141216Y27383D01*
X141417Y27259D01*
X141635Y27169D01*
X141865Y27114D01*
X142100Y27100D01*
X142500Y27101D01*
Y7500D01*
X132493D01*
Y10736D01*
X132500Y10735D01*
X133245Y10794D01*
X133972Y10969D01*
X134663Y11255D01*
X135301Y11645D01*
X135869Y12131D01*
X136355Y12699D01*
X136745Y13337D01*
X137031Y14028D01*
X137206Y14755D01*
X137250Y15500D01*
X137206Y16245D01*
X137031Y16972D01*
X136745Y17663D01*
X136355Y18301D01*
X135869Y18869D01*
X135301Y19355D01*
X134663Y19745D01*
X133972Y20031D01*
X133245Y20206D01*
X132500Y20265D01*
X132493Y20264D01*
Y38500D01*
G37*
G36*
X126500D02*X132493D01*
Y20264D01*
X131755Y20206D01*
X131028Y20031D01*
X130337Y19745D01*
X129699Y19355D01*
X129131Y18869D01*
X128645Y18301D01*
X128255Y17663D01*
X127969Y16972D01*
X127794Y16245D01*
X127735Y15500D01*
X127794Y14755D01*
X127969Y14028D01*
X128255Y13337D01*
X128645Y12699D01*
X129131Y12131D01*
X129699Y11645D01*
X130337Y11255D01*
X131028Y10969D01*
X131755Y10794D01*
X132493Y10736D01*
Y7500D01*
X126500D01*
Y12998D01*
X126618Y13007D01*
X126732Y13035D01*
X126842Y13080D01*
X126942Y13141D01*
X127032Y13218D01*
X127109Y13308D01*
X127170Y13408D01*
X127215Y13518D01*
X127243Y13632D01*
X127250Y13750D01*
Y17250D01*
X127243Y17368D01*
X127215Y17482D01*
X127170Y17592D01*
X127109Y17692D01*
X127032Y17782D01*
X126942Y17859D01*
X126842Y17920D01*
X126732Y17965D01*
X126618Y17993D01*
X126500Y18002D01*
Y38500D01*
G37*
G36*
X122500D02*X126500D01*
Y18002D01*
X126382Y17993D01*
X126268Y17965D01*
X126158Y17920D01*
X126058Y17859D01*
X125968Y17782D01*
X125891Y17692D01*
X125830Y17592D01*
X125785Y17482D01*
X125757Y17368D01*
X125750Y17250D01*
Y13750D01*
X125757Y13632D01*
X125785Y13518D01*
X125830Y13408D01*
X125891Y13308D01*
X125968Y13218D01*
X126058Y13141D01*
X126158Y13080D01*
X126268Y13035D01*
X126382Y13007D01*
X126500Y12998D01*
Y7500D01*
X122500D01*
Y10750D01*
X124250D01*
X124368Y10757D01*
X124482Y10785D01*
X124592Y10830D01*
X124692Y10891D01*
X124782Y10968D01*
X124859Y11058D01*
X124920Y11158D01*
X124965Y11268D01*
X124993Y11382D01*
X125002Y11500D01*
X124993Y11618D01*
X124965Y11732D01*
X124920Y11842D01*
X124859Y11942D01*
X124782Y12032D01*
X124692Y12109D01*
X124592Y12170D01*
X124482Y12215D01*
X124368Y12243D01*
X124250Y12250D01*
X122500D01*
Y18750D01*
X124250D01*
X124368Y18757D01*
X124482Y18785D01*
X124592Y18830D01*
X124692Y18891D01*
X124782Y18968D01*
X124859Y19058D01*
X124920Y19158D01*
X124965Y19268D01*
X124993Y19382D01*
X125002Y19500D01*
X124993Y19618D01*
X124965Y19732D01*
X124920Y19842D01*
X124859Y19942D01*
X124782Y20032D01*
X124692Y20109D01*
X124592Y20170D01*
X124482Y20215D01*
X124368Y20243D01*
X124250Y20250D01*
X122500D01*
Y38500D01*
G37*
G36*
X118500D02*X122500D01*
Y20250D01*
X120750D01*
X120632Y20243D01*
X120518Y20215D01*
X120408Y20170D01*
X120308Y20109D01*
X120218Y20032D01*
X120141Y19942D01*
X120080Y19842D01*
X120035Y19732D01*
X120007Y19618D01*
X119998Y19500D01*
X120007Y19382D01*
X120035Y19268D01*
X120080Y19158D01*
X120141Y19058D01*
X120218Y18968D01*
X120308Y18891D01*
X120408Y18830D01*
X120518Y18785D01*
X120632Y18757D01*
X120750Y18750D01*
X122500D01*
Y12250D01*
X120750D01*
X120632Y12243D01*
X120518Y12215D01*
X120408Y12170D01*
X120308Y12109D01*
X120218Y12032D01*
X120141Y11942D01*
X120080Y11842D01*
X120035Y11732D01*
X120007Y11618D01*
X119998Y11500D01*
X120007Y11382D01*
X120035Y11268D01*
X120080Y11158D01*
X120141Y11058D01*
X120218Y10968D01*
X120308Y10891D01*
X120408Y10830D01*
X120518Y10785D01*
X120632Y10757D01*
X120750Y10750D01*
X122500D01*
Y7500D01*
X118500D01*
Y12998D01*
X118618Y13007D01*
X118732Y13035D01*
X118842Y13080D01*
X118942Y13141D01*
X119032Y13218D01*
X119109Y13308D01*
X119170Y13408D01*
X119215Y13518D01*
X119243Y13632D01*
X119250Y13750D01*
Y17250D01*
X119243Y17368D01*
X119215Y17482D01*
X119170Y17592D01*
X119109Y17692D01*
X119032Y17782D01*
X118942Y17859D01*
X118842Y17920D01*
X118732Y17965D01*
X118618Y17993D01*
X118500Y18002D01*
Y38500D01*
G37*
G36*
X105492D02*X118500D01*
Y18002D01*
X118382Y17993D01*
X118268Y17965D01*
X118158Y17920D01*
X118058Y17859D01*
X117968Y17782D01*
X117891Y17692D01*
X117830Y17592D01*
X117785Y17482D01*
X117757Y17368D01*
X117750Y17250D01*
Y13750D01*
X117757Y13632D01*
X117785Y13518D01*
X117830Y13408D01*
X117891Y13308D01*
X117968Y13218D01*
X118058Y13141D01*
X118158Y13080D01*
X118268Y13035D01*
X118382Y13007D01*
X118500Y12998D01*
Y7500D01*
X105492D01*
Y27085D01*
X105500Y27085D01*
X106269Y27145D01*
X107019Y27325D01*
X107731Y27621D01*
X108389Y28024D01*
X108976Y28524D01*
X109476Y29111D01*
X109879Y29769D01*
X110175Y30481D01*
X110355Y31231D01*
X110400Y32000D01*
X110355Y32769D01*
X110175Y33519D01*
X109879Y34231D01*
X109476Y34889D01*
X108976Y35476D01*
X108389Y35976D01*
X107731Y36379D01*
X107019Y36675D01*
X106269Y36855D01*
X105500Y36915D01*
X105492Y36915D01*
Y38500D01*
G37*
G36*
X72498D02*X105492D01*
Y36915D01*
X104731Y36855D01*
X103981Y36675D01*
X103269Y36379D01*
X102611Y35976D01*
X102024Y35476D01*
X101524Y34889D01*
X101121Y34231D01*
X100825Y33519D01*
X100645Y32769D01*
X100585Y32000D01*
X100645Y31231D01*
X100825Y30481D01*
X101121Y29769D01*
X101524Y29111D01*
X102024Y28524D01*
X102611Y28024D01*
X103269Y27621D01*
X103981Y27325D01*
X104731Y27145D01*
X105492Y27085D01*
Y7500D01*
X84736D01*
X85204Y7694D01*
X86000Y8182D01*
X86711Y8789D01*
X87318Y9500D01*
X87806Y10296D01*
X88164Y11160D01*
X88382Y12068D01*
X88437Y13000D01*
X88382Y13932D01*
X88164Y14840D01*
X87806Y15704D01*
X87318Y16500D01*
X86711Y17211D01*
X86000Y17818D01*
X85204Y18306D01*
X84340Y18664D01*
X83432Y18882D01*
X82500Y18955D01*
X81568Y18882D01*
X80660Y18664D01*
X79796Y18306D01*
X79000Y17818D01*
X78289Y17211D01*
X77682Y16500D01*
X77265Y15821D01*
X77176Y15836D01*
X77018Y15838D01*
X76861Y15815D01*
X76710Y15768D01*
X76569Y15698D01*
X76439Y15607D01*
X76326Y15496D01*
X76232Y15370D01*
X76158Y15230D01*
X76108Y15080D01*
X76081Y14924D01*
X76079Y14766D01*
X76102Y14610D01*
X76152Y14460D01*
X76278Y14108D01*
X76366Y13744D01*
X76419Y13374D01*
X76437Y13000D01*
X76419Y12626D01*
X76366Y12256D01*
X76278Y11892D01*
X76156Y11539D01*
X76106Y11389D01*
X76083Y11234D01*
X76085Y11076D01*
X76112Y10921D01*
X76162Y10772D01*
X76236Y10633D01*
X76330Y10507D01*
X76442Y10397D01*
X76571Y10306D01*
X76712Y10236D01*
X76862Y10189D01*
X77018Y10167D01*
X77175Y10168D01*
X77263Y10183D01*
X77682Y9500D01*
X78289Y8789D01*
X79000Y8182D01*
X79796Y7694D01*
X80264Y7500D01*
X74745D01*
X74848Y7550D01*
X74977Y7642D01*
X75091Y7752D01*
X75185Y7879D01*
X75259Y8019D01*
X75309Y8168D01*
X75336Y8324D01*
X75338Y8482D01*
X75315Y8639D01*
X75268Y8790D01*
X75198Y8931D01*
X75107Y9061D01*
X74996Y9174D01*
X74870Y9268D01*
X74730Y9342D01*
X74580Y9392D01*
X74424Y9419D01*
X74266Y9421D01*
X74110Y9398D01*
X73960Y9348D01*
X73608Y9222D01*
X73244Y9134D01*
X72874Y9081D01*
X72500Y9063D01*
X72498Y9063D01*
Y16937D01*
X72500Y16937D01*
X72874Y16919D01*
X73244Y16866D01*
X73608Y16778D01*
X73961Y16656D01*
X74111Y16606D01*
X74266Y16583D01*
X74424Y16585D01*
X74579Y16612D01*
X74728Y16662D01*
X74867Y16736D01*
X74993Y16830D01*
X75103Y16942D01*
X75194Y17071D01*
X75264Y17212D01*
X75311Y17362D01*
X75333Y17518D01*
X75332Y17675D01*
X75305Y17831D01*
X75254Y17980D01*
X75181Y18119D01*
X75087Y18245D01*
X74975Y18355D01*
X74846Y18446D01*
X74704Y18513D01*
X74172Y18704D01*
X73623Y18837D01*
X73064Y18917D01*
X72500Y18944D01*
X72498Y18944D01*
Y38500D01*
G37*
G36*
X24784D02*X72498D01*
Y18944D01*
X71936Y18917D01*
X71377Y18837D01*
X70828Y18704D01*
X70294Y18519D01*
X70152Y18450D01*
X70023Y18358D01*
X69909Y18248D01*
X69815Y18121D01*
X69741Y17981D01*
X69691Y17832D01*
X69664Y17676D01*
X69662Y17518D01*
X69685Y17361D01*
X69732Y17210D01*
X69802Y17069D01*
X69893Y16939D01*
X70004Y16826D01*
X70130Y16732D01*
X70270Y16658D01*
X70420Y16608D01*
X70576Y16581D01*
X70734Y16579D01*
X70890Y16602D01*
X71040Y16652D01*
X71392Y16778D01*
X71756Y16866D01*
X72126Y16919D01*
X72498Y16937D01*
Y9063D01*
X72126Y9081D01*
X71756Y9134D01*
X71392Y9222D01*
X71039Y9344D01*
X70889Y9394D01*
X70734Y9417D01*
X70576Y9415D01*
X70421Y9388D01*
X70272Y9338D01*
X70133Y9264D01*
X70007Y9170D01*
X69897Y9058D01*
X69806Y8929D01*
X69736Y8788D01*
X69689Y8638D01*
X69667Y8482D01*
X69668Y8325D01*
X69695Y8169D01*
X69746Y8020D01*
X69819Y7881D01*
X69913Y7755D01*
X70025Y7645D01*
X70154Y7554D01*
X70269Y7500D01*
X67686D01*
X67856Y7644D01*
X68060Y7884D01*
X68225Y8152D01*
X68345Y8443D01*
X68418Y8749D01*
X68437Y9063D01*
X68434Y10304D01*
X68561Y10393D01*
X68674Y10504D01*
X68768Y10630D01*
X68842Y10770D01*
X68892Y10920D01*
X68919Y11076D01*
X68921Y11234D01*
X68898Y11390D01*
X68848Y11540D01*
X68722Y11892D01*
X68634Y12256D01*
X68581Y12626D01*
X68563Y13000D01*
X68581Y13374D01*
X68634Y13744D01*
X68722Y14108D01*
X68844Y14461D01*
X68894Y14611D01*
X68917Y14766D01*
X68915Y14924D01*
X68888Y15079D01*
X68838Y15228D01*
X68764Y15367D01*
X68670Y15493D01*
X68558Y15603D01*
X68429Y15694D01*
X68422Y15698D01*
X68418Y17251D01*
X68345Y17557D01*
X68225Y17848D01*
X68060Y18116D01*
X67856Y18356D01*
X67616Y18560D01*
X67348Y18725D01*
X67057Y18845D01*
X66751Y18918D01*
X66437Y18937D01*
X58249Y18918D01*
X57943Y18845D01*
X57652Y18725D01*
X57384Y18560D01*
X57144Y18356D01*
X56940Y18116D01*
X56775Y17848D01*
X56655Y17557D01*
X56582Y17251D01*
X56563Y16937D01*
X56582Y8749D01*
X56655Y8443D01*
X56775Y8152D01*
X56940Y7884D01*
X57144Y7644D01*
X57314Y7500D01*
X24784D01*
Y11969D01*
X24787Y11970D01*
X24855Y12009D01*
X24916Y12058D01*
X24969Y12117D01*
X25011Y12183D01*
X25174Y12508D01*
X25303Y12848D01*
X25401Y13198D01*
X25467Y13556D01*
X25500Y13918D01*
Y14282D01*
X25467Y14644D01*
X25401Y15002D01*
X25303Y15352D01*
X25174Y15692D01*
X25015Y16019D01*
X24972Y16085D01*
X24919Y16144D01*
X24857Y16194D01*
X24788Y16233D01*
X24784Y16235D01*
Y23940D01*
X24810Y23946D01*
X24955Y24006D01*
X25090Y24088D01*
X25209Y24191D01*
X25312Y24310D01*
X25394Y24445D01*
X25454Y24590D01*
X25491Y24743D01*
X25500Y24900D01*
X25491Y31057D01*
X25454Y31210D01*
X25394Y31355D01*
X25312Y31490D01*
X25209Y31609D01*
X25090Y31712D01*
X24955Y31794D01*
X24810Y31854D01*
X24784Y31860D01*
Y38500D01*
G37*
G36*
Y7500D02*X21500D01*
Y10100D01*
X21682D01*
X22044Y10133D01*
X22402Y10199D01*
X22752Y10297D01*
X23092Y10426D01*
X23419Y10585D01*
X23485Y10628D01*
X23544Y10681D01*
X23594Y10743D01*
X23633Y10812D01*
X23661Y10886D01*
X23677Y10963D01*
X23681Y11042D01*
X23673Y11121D01*
X23652Y11197D01*
X23620Y11270D01*
X23577Y11336D01*
X23524Y11395D01*
X23462Y11444D01*
X23393Y11484D01*
X23319Y11512D01*
X23242Y11528D01*
X23163Y11532D01*
X23084Y11524D01*
X23007Y11503D01*
X22936Y11470D01*
X22693Y11347D01*
X22438Y11250D01*
X22176Y11177D01*
X21908Y11128D01*
X21636Y11103D01*
X21500D01*
Y17097D01*
X21636D01*
X21908Y17072D01*
X22176Y17023D01*
X22438Y16950D01*
X22693Y16853D01*
X22937Y16733D01*
X23009Y16700D01*
X23084Y16679D01*
X23163Y16671D01*
X23241Y16675D01*
X23318Y16691D01*
X23392Y16719D01*
X23460Y16758D01*
X23521Y16807D01*
X23574Y16866D01*
X23617Y16932D01*
X23649Y17004D01*
X23670Y17080D01*
X23678Y17158D01*
X23674Y17236D01*
X23658Y17313D01*
X23630Y17387D01*
X23591Y17455D01*
X23542Y17516D01*
X23483Y17569D01*
X23417Y17611D01*
X23092Y17774D01*
X22752Y17903D01*
X22402Y18001D01*
X22044Y18067D01*
X21682Y18100D01*
X21500D01*
Y23905D01*
X24657Y23909D01*
X24784Y23940D01*
Y16235D01*
X24714Y16261D01*
X24637Y16277D01*
X24558Y16281D01*
X24479Y16273D01*
X24403Y16252D01*
X24330Y16220D01*
X24264Y16177D01*
X24205Y16124D01*
X24156Y16062D01*
X24116Y15993D01*
X24088Y15919D01*
X24072Y15842D01*
X24068Y15763D01*
X24076Y15684D01*
X24097Y15607D01*
X24130Y15536D01*
X24253Y15293D01*
X24350Y15038D01*
X24423Y14776D01*
X24472Y14508D01*
X24497Y14236D01*
Y13964D01*
X24472Y13692D01*
X24423Y13424D01*
X24350Y13162D01*
X24253Y12907D01*
X24133Y12663D01*
X24100Y12591D01*
X24079Y12516D01*
X24071Y12437D01*
X24075Y12359D01*
X24091Y12282D01*
X24119Y12208D01*
X24158Y12140D01*
X24207Y12079D01*
X24266Y12026D01*
X24332Y11983D01*
X24404Y11951D01*
X24480Y11930D01*
X24558Y11922D01*
X24636Y11926D01*
X24713Y11942D01*
X24784Y11969D01*
Y7500D01*
G37*
G36*
X21500Y38500D02*X24784D01*
Y31860D01*
X24657Y31891D01*
X24500Y31900D01*
X21500Y31895D01*
Y38500D01*
G37*
G36*
X18216Y23940D02*X18343Y23909D01*
X18500Y23900D01*
X21500Y23905D01*
Y18100D01*
X21318D01*
X20956Y18067D01*
X20598Y18001D01*
X20248Y17903D01*
X19908Y17774D01*
X19581Y17615D01*
X19515Y17572D01*
X19456Y17519D01*
X19406Y17457D01*
X19367Y17388D01*
X19339Y17314D01*
X19323Y17237D01*
X19319Y17158D01*
X19327Y17079D01*
X19348Y17003D01*
X19380Y16930D01*
X19423Y16864D01*
X19476Y16805D01*
X19538Y16756D01*
X19607Y16716D01*
X19681Y16688D01*
X19758Y16672D01*
X19837Y16668D01*
X19916Y16676D01*
X19993Y16697D01*
X20064Y16730D01*
X20307Y16853D01*
X20562Y16950D01*
X20824Y17023D01*
X21092Y17072D01*
X21364Y17097D01*
X21500D01*
Y11103D01*
X21364D01*
X21092Y11128D01*
X20824Y11177D01*
X20562Y11250D01*
X20307Y11347D01*
X20063Y11467D01*
X19991Y11500D01*
X19915Y11521D01*
X19837Y11529D01*
X19759Y11525D01*
X19682Y11509D01*
X19608Y11481D01*
X19540Y11442D01*
X19479Y11393D01*
X19426Y11334D01*
X19383Y11268D01*
X19351Y11196D01*
X19330Y11120D01*
X19322Y11042D01*
X19326Y10964D01*
X19342Y10887D01*
X19370Y10813D01*
X19409Y10745D01*
X19458Y10684D01*
X19517Y10631D01*
X19583Y10589D01*
X19908Y10426D01*
X20248Y10297D01*
X20598Y10199D01*
X20956Y10133D01*
X21318Y10100D01*
X21500D01*
Y7500D01*
X18216D01*
Y11965D01*
X18286Y11939D01*
X18363Y11923D01*
X18442Y11919D01*
X18521Y11927D01*
X18597Y11948D01*
X18670Y11980D01*
X18736Y12023D01*
X18795Y12076D01*
X18844Y12138D01*
X18884Y12207D01*
X18912Y12281D01*
X18928Y12358D01*
X18932Y12437D01*
X18924Y12516D01*
X18903Y12593D01*
X18870Y12664D01*
X18747Y12907D01*
X18650Y13162D01*
X18577Y13424D01*
X18528Y13692D01*
X18503Y13964D01*
Y14236D01*
X18528Y14508D01*
X18577Y14776D01*
X18650Y15038D01*
X18747Y15293D01*
X18867Y15537D01*
X18900Y15609D01*
X18921Y15685D01*
X18929Y15763D01*
X18925Y15841D01*
X18909Y15918D01*
X18881Y15992D01*
X18842Y16060D01*
X18793Y16121D01*
X18734Y16174D01*
X18668Y16217D01*
X18596Y16249D01*
X18520Y16270D01*
X18442Y16278D01*
X18364Y16274D01*
X18287Y16258D01*
X18216Y16231D01*
Y23940D01*
G37*
G36*
Y38500D02*X21500D01*
Y31895D01*
X18343Y31891D01*
X18216Y31860D01*
Y38500D01*
G37*
G36*
X4000D02*X18216D01*
Y31860D01*
X18190Y31854D01*
X18045Y31794D01*
X17910Y31712D01*
X17791Y31609D01*
X17688Y31490D01*
X17606Y31355D01*
X17546Y31210D01*
X17509Y31057D01*
X17500Y30900D01*
X17509Y24743D01*
X17546Y24590D01*
X17606Y24445D01*
X17688Y24310D01*
X17791Y24191D01*
X17910Y24088D01*
X18045Y24006D01*
X18190Y23946D01*
X18216Y23940D01*
Y16231D01*
X18213Y16230D01*
X18145Y16191D01*
X18084Y16142D01*
X18031Y16083D01*
X17989Y16017D01*
X17826Y15692D01*
X17697Y15352D01*
X17599Y15002D01*
X17533Y14644D01*
X17500Y14282D01*
Y13918D01*
X17533Y13556D01*
X17599Y13198D01*
X17697Y12848D01*
X17826Y12508D01*
X17985Y12181D01*
X18028Y12115D01*
X18081Y12056D01*
X18143Y12006D01*
X18212Y11967D01*
X18216Y11965D01*
Y7500D01*
X4000D01*
Y38500D01*
G37*
G36*
X132000Y69483D02*X132863Y69551D01*
X133705Y69753D01*
X134505Y70084D01*
X135243Y70537D01*
X135901Y71099D01*
X136000Y71215D01*
Y57500D01*
X136000Y57500D01*
Y52500D01*
X136000Y52500D01*
Y18716D01*
X135869Y18869D01*
X135301Y19355D01*
X134663Y19745D01*
X133972Y20031D01*
X133245Y20206D01*
X132500Y20265D01*
X132000Y20225D01*
Y49500D01*
X134500D01*
X134618Y49507D01*
X134732Y49535D01*
X134842Y49580D01*
X134942Y49641D01*
X135032Y49718D01*
X135109Y49808D01*
X135170Y49908D01*
X135215Y50018D01*
X135243Y50132D01*
X135252Y50250D01*
X135243Y50368D01*
X135215Y50482D01*
X135170Y50592D01*
X135109Y50692D01*
X135032Y50782D01*
X134942Y50859D01*
X134842Y50920D01*
X134732Y50965D01*
X134618Y50993D01*
X134500Y51000D01*
X132000D01*
Y59000D01*
X134500D01*
X134618Y59007D01*
X134732Y59035D01*
X134842Y59080D01*
X134942Y59141D01*
X135032Y59218D01*
X135109Y59308D01*
X135170Y59408D01*
X135215Y59518D01*
X135243Y59632D01*
X135252Y59750D01*
X135243Y59868D01*
X135215Y59982D01*
X135170Y60092D01*
X135109Y60192D01*
X135032Y60282D01*
X134942Y60359D01*
X134842Y60420D01*
X134732Y60465D01*
X134618Y60493D01*
X134500Y60500D01*
X132000D01*
Y69483D01*
G37*
G36*
Y88000D02*X136000D01*
Y78785D01*
X135901Y78901D01*
X135243Y79463D01*
X134505Y79916D01*
X133705Y80247D01*
X132863Y80449D01*
X132000Y80517D01*
Y88000D01*
G37*
G36*
X136000Y9000D02*X132000D01*
Y10775D01*
X132500Y10735D01*
X133245Y10794D01*
X133972Y10969D01*
X134663Y11255D01*
X135301Y11645D01*
X135869Y12131D01*
X136000Y12284D01*
Y9000D01*
G37*
G36*
X127250Y88000D02*X132000D01*
Y80517D01*
X132000D01*
X131137Y80449D01*
X130295Y80247D01*
X129495Y79916D01*
X128757Y79463D01*
X128099Y78901D01*
X127537Y78243D01*
X127250Y77775D01*
Y88000D01*
G37*
G36*
X132000Y9000D02*X127250D01*
Y51748D01*
X127368Y51757D01*
X127482Y51785D01*
X127592Y51830D01*
X127692Y51891D01*
X127782Y51968D01*
X127859Y52058D01*
X127920Y52158D01*
X127965Y52268D01*
X127993Y52382D01*
X128000Y52500D01*
Y57500D01*
X127993Y57618D01*
X127965Y57732D01*
X127920Y57842D01*
X127859Y57942D01*
X127782Y58032D01*
X127692Y58109D01*
X127592Y58170D01*
X127482Y58215D01*
X127368Y58243D01*
X127250Y58252D01*
Y72225D01*
X127537Y71757D01*
X128099Y71099D01*
X128757Y70537D01*
X129495Y70084D01*
X130295Y69753D01*
X131137Y69551D01*
X132000Y69483D01*
X132000D01*
Y60500D01*
X129500D01*
X129382Y60493D01*
X129268Y60465D01*
X129158Y60420D01*
X129058Y60359D01*
X128968Y60282D01*
X128891Y60192D01*
X128830Y60092D01*
X128785Y59982D01*
X128757Y59868D01*
X128748Y59750D01*
X128757Y59632D01*
X128785Y59518D01*
X128830Y59408D01*
X128891Y59308D01*
X128968Y59218D01*
X129058Y59141D01*
X129158Y59080D01*
X129268Y59035D01*
X129382Y59007D01*
X129500Y59000D01*
X132000D01*
Y51000D01*
X129500D01*
X129382Y50993D01*
X129268Y50965D01*
X129158Y50920D01*
X129058Y50859D01*
X128968Y50782D01*
X128891Y50692D01*
X128830Y50592D01*
X128785Y50482D01*
X128757Y50368D01*
X128748Y50250D01*
X128757Y50132D01*
X128785Y50018D01*
X128830Y49908D01*
X128891Y49808D01*
X128968Y49718D01*
X129058Y49641D01*
X129158Y49580D01*
X129268Y49535D01*
X129382Y49507D01*
X129500Y49500D01*
X132000D01*
Y20225D01*
X131755Y20206D01*
X131028Y20031D01*
X130337Y19745D01*
X129699Y19355D01*
X129131Y18869D01*
X128645Y18301D01*
X128255Y17663D01*
X127969Y16972D01*
X127794Y16245D01*
X127735Y15500D01*
X127794Y14755D01*
X127969Y14028D01*
X128255Y13337D01*
X128645Y12699D01*
X129131Y12131D01*
X129699Y11645D01*
X130337Y11255D01*
X131028Y10969D01*
X131755Y10794D01*
X132000Y10775D01*
Y9000D01*
G37*
G36*
X127250D02*X122500D01*
Y10750D01*
X124250D01*
X124368Y10757D01*
X124482Y10785D01*
X124592Y10830D01*
X124692Y10891D01*
X124782Y10968D01*
X124859Y11058D01*
X124920Y11158D01*
X124965Y11268D01*
X124993Y11382D01*
X125002Y11500D01*
X124993Y11618D01*
X124965Y11732D01*
X124920Y11842D01*
X124859Y11942D01*
X124782Y12032D01*
X124692Y12109D01*
X124592Y12170D01*
X124482Y12215D01*
X124368Y12243D01*
X124250Y12250D01*
X122500D01*
Y18750D01*
X124250D01*
X124368Y18757D01*
X124482Y18785D01*
X124592Y18830D01*
X124692Y18891D01*
X124782Y18968D01*
X124859Y19058D01*
X124920Y19158D01*
X124965Y19268D01*
X124993Y19382D01*
X125002Y19500D01*
X124993Y19618D01*
X124965Y19732D01*
X124920Y19842D01*
X124859Y19942D01*
X124782Y20032D01*
X124692Y20109D01*
X124592Y20170D01*
X124482Y20215D01*
X124368Y20243D01*
X124250Y20250D01*
X122500D01*
Y88000D01*
X127250D01*
Y77775D01*
X127084Y77505D01*
X126753Y76705D01*
X126551Y75863D01*
X126483Y75000D01*
X126551Y74137D01*
X126753Y73295D01*
X127084Y72495D01*
X127250Y72225D01*
Y58252D01*
X127132Y58243D01*
X127018Y58215D01*
X126908Y58170D01*
X126808Y58109D01*
X126718Y58032D01*
X126641Y57942D01*
X126580Y57842D01*
X126535Y57732D01*
X126507Y57618D01*
X126500Y57500D01*
Y52500D01*
X126507Y52382D01*
X126535Y52268D01*
X126580Y52158D01*
X126641Y52058D01*
X126718Y51968D01*
X126808Y51891D01*
X126908Y51830D01*
X127018Y51785D01*
X127132Y51757D01*
X127250Y51748D01*
Y17250D01*
X127243Y17368D01*
X127215Y17482D01*
X127170Y17592D01*
X127109Y17692D01*
X127032Y17782D01*
X126942Y17859D01*
X126842Y17920D01*
X126732Y17965D01*
X126618Y17993D01*
X126500Y18002D01*
X126382Y17993D01*
X126268Y17965D01*
X126158Y17920D01*
X126058Y17859D01*
X125968Y17782D01*
X125891Y17692D01*
X125830Y17592D01*
X125785Y17482D01*
X125757Y17368D01*
X125750Y17250D01*
Y13750D01*
X125757Y13632D01*
X125785Y13518D01*
X125830Y13408D01*
X125891Y13308D01*
X125968Y13218D01*
X126058Y13141D01*
X126158Y13080D01*
X126268Y13035D01*
X126382Y13007D01*
X126500Y12998D01*
X126618Y13007D01*
X126732Y13035D01*
X126842Y13080D01*
X126942Y13141D01*
X127032Y13218D01*
X127109Y13308D01*
X127170Y13408D01*
X127215Y13518D01*
X127243Y13632D01*
X127250Y13750D01*
Y9000D01*
G37*
G36*
X122500D02*X118500D01*
Y12998D01*
X118618Y13007D01*
X118732Y13035D01*
X118842Y13080D01*
X118942Y13141D01*
X119032Y13218D01*
X119109Y13308D01*
X119170Y13408D01*
X119215Y13518D01*
X119243Y13632D01*
X119250Y13750D01*
Y17250D01*
X119243Y17368D01*
X119215Y17482D01*
X119170Y17592D01*
X119109Y17692D01*
X119032Y17782D01*
X118942Y17859D01*
X118842Y17920D01*
X118732Y17965D01*
X118618Y17993D01*
X118500Y18002D01*
Y88000D01*
X122500D01*
Y20250D01*
X120750D01*
X120632Y20243D01*
X120518Y20215D01*
X120408Y20170D01*
X120308Y20109D01*
X120218Y20032D01*
X120141Y19942D01*
X120080Y19842D01*
X120035Y19732D01*
X120007Y19618D01*
X119998Y19500D01*
X120007Y19382D01*
X120035Y19268D01*
X120080Y19158D01*
X120141Y19058D01*
X120218Y18968D01*
X120308Y18891D01*
X120408Y18830D01*
X120518Y18785D01*
X120632Y18757D01*
X120750Y18750D01*
X122500D01*
Y12250D01*
X120750D01*
X120632Y12243D01*
X120518Y12215D01*
X120408Y12170D01*
X120308Y12109D01*
X120218Y12032D01*
X120141Y11942D01*
X120080Y11842D01*
X120035Y11732D01*
X120007Y11618D01*
X119998Y11500D01*
X120007Y11382D01*
X120035Y11268D01*
X120080Y11158D01*
X120141Y11058D01*
X120218Y10968D01*
X120308Y10891D01*
X120408Y10830D01*
X120518Y10785D01*
X120632Y10757D01*
X120750Y10750D01*
X122500D01*
Y9000D01*
G37*
G36*
X118500D02*X105334D01*
Y27098D01*
X105500Y27085D01*
X106269Y27145D01*
X107019Y27325D01*
X107731Y27621D01*
X108389Y28024D01*
X108976Y28524D01*
X109476Y29111D01*
X109879Y29769D01*
X110175Y30481D01*
X110355Y31231D01*
X110400Y32000D01*
X110355Y32769D01*
X110175Y33519D01*
X109879Y34231D01*
X109476Y34889D01*
X108976Y35476D01*
X108389Y35976D01*
X107731Y36379D01*
X107019Y36675D01*
X106269Y36855D01*
X105500Y36915D01*
X105334Y36902D01*
Y52131D01*
X105489Y52143D01*
X105639Y52180D01*
X105782Y52239D01*
X105915Y52320D01*
X106032Y52420D01*
X106133Y52538D01*
X106214Y52670D01*
X106273Y52813D01*
X106309Y52964D01*
X106318Y53118D01*
Y56882D01*
X106309Y57036D01*
X106273Y57187D01*
X106214Y57330D01*
X106133Y57462D01*
X106032Y57580D01*
X105915Y57680D01*
X105782Y57761D01*
X105639Y57820D01*
X105489Y57857D01*
X105334Y57869D01*
Y71753D01*
X105700Y72350D01*
X106051Y73196D01*
X106265Y74087D01*
X106318Y75000D01*
X106265Y75913D01*
X106051Y76804D01*
X105700Y77650D01*
X105334Y78247D01*
Y88000D01*
X118500D01*
Y18002D01*
X118382Y17993D01*
X118268Y17965D01*
X118158Y17920D01*
X118058Y17859D01*
X117968Y17782D01*
X117891Y17692D01*
X117830Y17592D01*
X117785Y17482D01*
X117757Y17368D01*
X117750Y17250D01*
Y13750D01*
X117757Y13632D01*
X117785Y13518D01*
X117830Y13408D01*
X117891Y13308D01*
X117968Y13218D01*
X118058Y13141D01*
X118158Y13080D01*
X118268Y13035D01*
X118382Y13007D01*
X118500Y12998D01*
Y9000D01*
G37*
G36*
X105334Y78247D02*X105222Y78431D01*
X104627Y79127D01*
X103931Y79722D01*
X103150Y80200D01*
X102304Y80551D01*
X101413Y80765D01*
X100500Y80836D01*
X100491Y80836D01*
Y88000D01*
X105334D01*
Y78247D01*
G37*
G36*
Y9000D02*X100491D01*
Y49182D01*
X102382D01*
X102536Y49191D01*
X102687Y49227D01*
X102830Y49286D01*
X102962Y49367D01*
X103080Y49468D01*
X103180Y49585D01*
X103261Y49718D01*
X103320Y49861D01*
X103357Y50011D01*
X103369Y50166D01*
X103357Y50320D01*
X103320Y50471D01*
X103261Y50614D01*
X103180Y50746D01*
X103080Y50864D01*
X102962Y50964D01*
X102830Y51045D01*
X102687Y51105D01*
X102536Y51141D01*
X102382Y51150D01*
X100491D01*
Y58850D01*
X102382D01*
X102536Y58859D01*
X102687Y58895D01*
X102830Y58955D01*
X102962Y59036D01*
X103080Y59136D01*
X103180Y59254D01*
X103261Y59386D01*
X103320Y59529D01*
X103357Y59680D01*
X103369Y59834D01*
X103357Y59989D01*
X103320Y60139D01*
X103261Y60282D01*
X103180Y60415D01*
X103080Y60532D01*
X102962Y60633D01*
X102830Y60714D01*
X102687Y60773D01*
X102536Y60809D01*
X102382Y60818D01*
X100491D01*
Y69164D01*
X100500Y69164D01*
X101413Y69235D01*
X102304Y69449D01*
X103150Y69800D01*
X103931Y70278D01*
X104627Y70873D01*
X105222Y71569D01*
X105334Y71753D01*
Y57869D01*
X105180Y57857D01*
X105029Y57820D01*
X104886Y57761D01*
X104754Y57680D01*
X104636Y57580D01*
X104536Y57462D01*
X104455Y57330D01*
X104395Y57187D01*
X104359Y57036D01*
X104350Y56882D01*
Y53118D01*
X104359Y52964D01*
X104395Y52813D01*
X104455Y52670D01*
X104536Y52538D01*
X104636Y52420D01*
X104754Y52320D01*
X104886Y52239D01*
X105029Y52180D01*
X105180Y52143D01*
X105334Y52131D01*
Y36902D01*
X104731Y36855D01*
X103981Y36675D01*
X103269Y36379D01*
X102611Y35976D01*
X102024Y35476D01*
X101524Y34889D01*
X101121Y34231D01*
X100825Y33519D01*
X100645Y32769D01*
X100585Y32000D01*
X100645Y31231D01*
X100825Y30481D01*
X101121Y29769D01*
X101524Y29111D01*
X102024Y28524D01*
X102611Y28024D01*
X103269Y27621D01*
X103981Y27325D01*
X104731Y27145D01*
X105334Y27098D01*
Y9000D01*
G37*
G36*
X95666Y88000D02*X100491D01*
Y80836D01*
X99587Y80765D01*
X98696Y80551D01*
X97850Y80200D01*
X97069Y79722D01*
X96373Y79127D01*
X95778Y78431D01*
X95666Y78247D01*
Y88000D01*
G37*
G36*
X100491Y9000D02*X95666D01*
Y52131D01*
X95820Y52143D01*
X95971Y52180D01*
X96114Y52239D01*
X96246Y52320D01*
X96364Y52420D01*
X96464Y52538D01*
X96545Y52670D01*
X96605Y52813D01*
X96641Y52964D01*
X96650Y53118D01*
Y56882D01*
X96641Y57036D01*
X96605Y57187D01*
X96545Y57330D01*
X96464Y57462D01*
X96364Y57580D01*
X96246Y57680D01*
X96114Y57761D01*
X95971Y57820D01*
X95820Y57857D01*
X95666Y57869D01*
Y71753D01*
X95778Y71569D01*
X96373Y70873D01*
X97069Y70278D01*
X97850Y69800D01*
X98696Y69449D01*
X99587Y69235D01*
X100491Y69164D01*
Y60818D01*
X98618D01*
X98464Y60809D01*
X98313Y60773D01*
X98170Y60714D01*
X98038Y60633D01*
X97920Y60532D01*
X97820Y60415D01*
X97739Y60282D01*
X97680Y60139D01*
X97643Y59989D01*
X97631Y59834D01*
X97643Y59680D01*
X97680Y59529D01*
X97739Y59386D01*
X97820Y59254D01*
X97920Y59136D01*
X98038Y59036D01*
X98170Y58955D01*
X98313Y58895D01*
X98464Y58859D01*
X98618Y58850D01*
X100491D01*
Y51150D01*
X98618D01*
X98464Y51141D01*
X98313Y51105D01*
X98170Y51045D01*
X98038Y50964D01*
X97920Y50864D01*
X97820Y50746D01*
X97739Y50614D01*
X97680Y50471D01*
X97643Y50320D01*
X97631Y50166D01*
X97643Y50011D01*
X97680Y49861D01*
X97739Y49718D01*
X97820Y49585D01*
X97920Y49468D01*
X98038Y49367D01*
X98170Y49286D01*
X98313Y49227D01*
X98464Y49191D01*
X98618Y49182D01*
X100491D01*
Y9000D01*
G37*
G36*
X95666D02*X86891D01*
X87318Y9500D01*
X87806Y10296D01*
X88164Y11160D01*
X88382Y12068D01*
X88437Y13000D01*
X88382Y13932D01*
X88164Y14840D01*
X87806Y15704D01*
X87318Y16500D01*
X86711Y17211D01*
X86000Y17818D01*
X85204Y18306D01*
X84340Y18664D01*
X83432Y18882D01*
X82613Y18946D01*
Y52302D01*
X82652Y52347D01*
X83022Y52951D01*
X83293Y53605D01*
X83458Y54294D01*
X83500Y55000D01*
X83458Y55706D01*
X83293Y56395D01*
X83022Y57049D01*
X82652Y57653D01*
X82613Y57698D01*
Y72853D01*
X82656Y72860D01*
X82768Y72897D01*
X82873Y72952D01*
X82968Y73022D01*
X83051Y73106D01*
X83119Y73202D01*
X83170Y73308D01*
X83318Y73716D01*
X83422Y74137D01*
X83484Y74567D01*
X83505Y75000D01*
X83484Y75433D01*
X83422Y75863D01*
X83318Y76284D01*
X83175Y76694D01*
X83122Y76800D01*
X83053Y76896D01*
X82970Y76981D01*
X82875Y77051D01*
X82769Y77106D01*
X82657Y77143D01*
X82613Y77151D01*
Y88000D01*
X95666D01*
Y78247D01*
X95300Y77650D01*
X94949Y76804D01*
X94735Y75913D01*
X94664Y75000D01*
X94735Y74087D01*
X94949Y73196D01*
X95300Y72350D01*
X95666Y71753D01*
Y57869D01*
X95511Y57857D01*
X95361Y57820D01*
X95218Y57761D01*
X95085Y57680D01*
X94968Y57580D01*
X94867Y57462D01*
X94786Y57330D01*
X94727Y57187D01*
X94691Y57036D01*
X94682Y56882D01*
Y53118D01*
X94691Y52964D01*
X94727Y52813D01*
X94786Y52670D01*
X94867Y52538D01*
X94968Y52420D01*
X95085Y52320D01*
X95218Y52239D01*
X95361Y52180D01*
X95511Y52143D01*
X95666Y52131D01*
Y9000D01*
G37*
G36*
X82613Y57698D02*X82192Y58192D01*
X81653Y58652D01*
X81049Y59022D01*
X80395Y59293D01*
X79706Y59458D01*
X79000Y59514D01*
X78993Y59513D01*
Y70495D01*
X79000Y70495D01*
X79433Y70516D01*
X79863Y70578D01*
X80284Y70682D01*
X80694Y70825D01*
X80800Y70878D01*
X80896Y70947D01*
X80981Y71030D01*
X81051Y71125D01*
X81106Y71231D01*
X81143Y71343D01*
X81163Y71460D01*
X81164Y71579D01*
X81146Y71696D01*
X81110Y71809D01*
X81057Y71915D01*
X80988Y72012D01*
X80905Y72096D01*
X80809Y72167D01*
X80704Y72221D01*
X80592Y72259D01*
X80475Y72278D01*
X80356Y72279D01*
X80239Y72261D01*
X80126Y72223D01*
X79855Y72124D01*
X79575Y72056D01*
X79289Y72014D01*
X79000Y72000D01*
X78993Y72000D01*
Y78000D01*
X79000Y78000D01*
X79289Y77986D01*
X79575Y77944D01*
X79855Y77876D01*
X80128Y77780D01*
X80239Y77742D01*
X80356Y77725D01*
X80474Y77725D01*
X80591Y77745D01*
X80703Y77782D01*
X80807Y77836D01*
X80902Y77906D01*
X80985Y77991D01*
X81054Y78087D01*
X81107Y78192D01*
X81143Y78305D01*
X81160Y78421D01*
X81159Y78539D01*
X81140Y78656D01*
X81103Y78768D01*
X81048Y78873D01*
X80978Y78968D01*
X80894Y79051D01*
X80798Y79119D01*
X80692Y79170D01*
X80284Y79318D01*
X79863Y79422D01*
X79433Y79484D01*
X79000Y79505D01*
X78993Y79505D01*
Y88000D01*
X82613D01*
Y77151D01*
X82540Y77163D01*
X82421Y77164D01*
X82304Y77146D01*
X82191Y77110D01*
X82085Y77057D01*
X81988Y76988D01*
X81904Y76905D01*
X81833Y76809D01*
X81779Y76704D01*
X81741Y76592D01*
X81722Y76475D01*
X81721Y76356D01*
X81739Y76239D01*
X81777Y76126D01*
X81876Y75855D01*
X81944Y75575D01*
X81986Y75289D01*
X82000Y75000D01*
X81986Y74711D01*
X81944Y74425D01*
X81876Y74145D01*
X81780Y73872D01*
X81742Y73761D01*
X81725Y73644D01*
X81725Y73526D01*
X81745Y73409D01*
X81782Y73297D01*
X81836Y73193D01*
X81906Y73098D01*
X81991Y73015D01*
X82087Y72946D01*
X82192Y72893D01*
X82305Y72857D01*
X82421Y72840D01*
X82539Y72841D01*
X82613Y72853D01*
Y57698D01*
G37*
G36*
Y18946D02*X82500Y18955D01*
X81568Y18882D01*
X80660Y18664D01*
X79796Y18306D01*
X79000Y17818D01*
X78993Y17812D01*
Y50487D01*
X79000Y50486D01*
X79706Y50542D01*
X80395Y50707D01*
X81049Y50978D01*
X81653Y51348D01*
X82192Y51808D01*
X82613Y52302D01*
Y18946D01*
G37*
G36*
X75387Y88000D02*X78993D01*
Y79505D01*
X78567Y79484D01*
X78137Y79422D01*
X77716Y79318D01*
X77306Y79175D01*
X77200Y79122D01*
X77104Y79053D01*
X77019Y78970D01*
X76949Y78875D01*
X76894Y78769D01*
X76857Y78657D01*
X76837Y78540D01*
X76836Y78421D01*
X76854Y78304D01*
X76890Y78191D01*
X76943Y78085D01*
X77012Y77988D01*
X77095Y77904D01*
X77191Y77833D01*
X77296Y77779D01*
X77408Y77741D01*
X77525Y77722D01*
X77644Y77721D01*
X77761Y77739D01*
X77874Y77777D01*
X78145Y77876D01*
X78425Y77944D01*
X78711Y77986D01*
X78993Y78000D01*
Y72000D01*
X78711Y72014D01*
X78425Y72056D01*
X78145Y72124D01*
X77872Y72220D01*
X77761Y72258D01*
X77644Y72275D01*
X77526Y72275D01*
X77409Y72255D01*
X77297Y72218D01*
X77193Y72164D01*
X77098Y72094D01*
X77015Y72009D01*
X76946Y71913D01*
X76893Y71808D01*
X76857Y71695D01*
X76840Y71579D01*
X76841Y71461D01*
X76860Y71344D01*
X76897Y71232D01*
X76952Y71127D01*
X77022Y71032D01*
X77106Y70949D01*
X77202Y70881D01*
X77308Y70830D01*
X77716Y70682D01*
X78137Y70578D01*
X78567Y70516D01*
X78993Y70495D01*
Y59513D01*
X78294Y59458D01*
X77605Y59293D01*
X76951Y59022D01*
X76347Y58652D01*
X75808Y58192D01*
X75387Y57698D01*
Y72849D01*
X75460Y72837D01*
X75579Y72836D01*
X75696Y72854D01*
X75809Y72890D01*
X75915Y72943D01*
X76012Y73012D01*
X76096Y73095D01*
X76167Y73191D01*
X76221Y73296D01*
X76259Y73408D01*
X76278Y73525D01*
X76279Y73644D01*
X76261Y73761D01*
X76223Y73874D01*
X76124Y74145D01*
X76056Y74425D01*
X76014Y74711D01*
X76000Y75000D01*
X76014Y75289D01*
X76056Y75575D01*
X76124Y75855D01*
X76220Y76128D01*
X76258Y76239D01*
X76275Y76356D01*
X76275Y76474D01*
X76255Y76591D01*
X76218Y76703D01*
X76164Y76807D01*
X76094Y76902D01*
X76009Y76985D01*
X75913Y77054D01*
X75808Y77107D01*
X75695Y77143D01*
X75579Y77160D01*
X75461Y77159D01*
X75387Y77147D01*
Y88000D01*
G37*
G36*
X78993Y17812D02*X78289Y17211D01*
X77682Y16500D01*
X77265Y15821D01*
X77176Y15836D01*
X77018Y15838D01*
X76861Y15815D01*
X76710Y15768D01*
X76569Y15698D01*
X76439Y15607D01*
X76326Y15496D01*
X76232Y15370D01*
X76158Y15230D01*
X76108Y15080D01*
X76081Y14924D01*
X76079Y14766D01*
X76102Y14610D01*
X76152Y14460D01*
X76278Y14108D01*
X76366Y13744D01*
X76419Y13374D01*
X76437Y13000D01*
X76419Y12626D01*
X76366Y12256D01*
X76278Y11892D01*
X76156Y11539D01*
X76106Y11389D01*
X76083Y11234D01*
X76085Y11076D01*
X76112Y10921D01*
X76162Y10772D01*
X76236Y10633D01*
X76330Y10507D01*
X76442Y10397D01*
X76571Y10306D01*
X76712Y10236D01*
X76862Y10189D01*
X77018Y10167D01*
X77175Y10168D01*
X77263Y10183D01*
X77682Y9500D01*
X78109Y9000D01*
X75387D01*
Y52302D01*
X75808Y51808D01*
X76347Y51348D01*
X76951Y50978D01*
X77605Y50707D01*
X78294Y50542D01*
X78993Y50487D01*
Y17812D01*
G37*
G36*
X75387Y9000D02*X75150D01*
X75107Y9061D01*
X74996Y9174D01*
X74870Y9268D01*
X74730Y9342D01*
X74580Y9392D01*
X74424Y9419D01*
X74266Y9421D01*
X74110Y9398D01*
X73960Y9348D01*
X73608Y9222D01*
X73244Y9134D01*
X72874Y9081D01*
X72500Y9063D01*
X72498Y9063D01*
Y16937D01*
X72500Y16937D01*
X72874Y16919D01*
X73244Y16866D01*
X73608Y16778D01*
X73961Y16656D01*
X74111Y16606D01*
X74266Y16583D01*
X74424Y16585D01*
X74579Y16612D01*
X74728Y16662D01*
X74867Y16736D01*
X74993Y16830D01*
X75103Y16942D01*
X75194Y17071D01*
X75264Y17212D01*
X75311Y17362D01*
X75333Y17518D01*
X75332Y17675D01*
X75305Y17831D01*
X75254Y17980D01*
X75181Y18119D01*
X75087Y18245D01*
X74975Y18355D01*
X74846Y18446D01*
X74704Y18513D01*
X74172Y18704D01*
X73623Y18837D01*
X73064Y18917D01*
X72500Y18944D01*
X72498Y18944D01*
Y88000D01*
X75387D01*
Y77147D01*
X75344Y77140D01*
X75232Y77103D01*
X75127Y77048D01*
X75032Y76978D01*
X74949Y76894D01*
X74881Y76798D01*
X74830Y76692D01*
X74682Y76284D01*
X74578Y75863D01*
X74516Y75433D01*
X74495Y75000D01*
X74516Y74567D01*
X74578Y74137D01*
X74682Y73716D01*
X74825Y73306D01*
X74878Y73200D01*
X74947Y73104D01*
X75030Y73019D01*
X75125Y72949D01*
X75231Y72894D01*
X75343Y72857D01*
X75387Y72849D01*
Y57698D01*
X75348Y57653D01*
X74978Y57049D01*
X74707Y56395D01*
X74542Y55706D01*
X74486Y55000D01*
X74542Y54294D01*
X74707Y53605D01*
X74978Y52951D01*
X75348Y52347D01*
X75387Y52302D01*
Y9000D01*
G37*
G36*
X72498Y9063D02*X72126Y9081D01*
X71756Y9134D01*
X71392Y9222D01*
X71039Y9344D01*
X70889Y9394D01*
X70734Y9417D01*
X70576Y9415D01*
X70421Y9388D01*
X70272Y9338D01*
X70133Y9264D01*
X70007Y9170D01*
X69897Y9058D01*
X69856Y9000D01*
X68433D01*
X68437Y9063D01*
X68434Y10304D01*
X68561Y10393D01*
X68674Y10504D01*
X68768Y10630D01*
X68842Y10770D01*
X68892Y10920D01*
X68919Y11076D01*
X68921Y11234D01*
X68898Y11390D01*
X68848Y11540D01*
X68722Y11892D01*
X68634Y12256D01*
X68581Y12626D01*
X68563Y13000D01*
X68581Y13374D01*
X68634Y13744D01*
X68722Y14108D01*
X68844Y14461D01*
X68894Y14611D01*
X68917Y14766D01*
X68915Y14924D01*
X68888Y15079D01*
X68838Y15228D01*
X68764Y15367D01*
X68670Y15493D01*
X68558Y15603D01*
X68429Y15694D01*
X68422Y15698D01*
X68418Y17251D01*
X68345Y17557D01*
X68225Y17848D01*
X68060Y18116D01*
X67856Y18356D01*
X67616Y18560D01*
X67348Y18725D01*
X67057Y18845D01*
X66751Y18918D01*
X66437Y18937D01*
X62500Y18928D01*
Y88000D01*
X72498D01*
Y18944D01*
X71936Y18917D01*
X71377Y18837D01*
X70828Y18704D01*
X70294Y18519D01*
X70152Y18450D01*
X70023Y18358D01*
X69909Y18248D01*
X69815Y18121D01*
X69741Y17981D01*
X69691Y17832D01*
X69664Y17676D01*
X69662Y17518D01*
X69685Y17361D01*
X69732Y17210D01*
X69802Y17069D01*
X69893Y16939D01*
X70004Y16826D01*
X70130Y16732D01*
X70270Y16658D01*
X70420Y16608D01*
X70576Y16581D01*
X70734Y16579D01*
X70890Y16602D01*
X71040Y16652D01*
X71392Y16778D01*
X71756Y16866D01*
X72126Y16919D01*
X72498Y16937D01*
Y9063D01*
G37*
G54D26*X79000Y55000D03*
Y75000D03*
G54D27*X100500D03*
G54D25*G36*
X46000Y78000D02*Y72000D01*
X52000D01*
Y78000D01*
X46000D01*
G37*
G54D26*X49000Y55000D03*
G54D25*G36*
X17500Y79000D02*Y71000D01*
X25500D01*
Y79000D01*
X17500D01*
G37*
G54D28*X21500Y55000D03*
G54D25*G36*
X18500Y30900D02*Y24900D01*
X24500D01*
Y30900D01*
X18500D01*
G37*
G54D26*X21500Y14100D03*
G54D25*G36*
X96650Y58850D02*Y51150D01*
X104350D01*
Y58850D01*
X96650D01*
G37*
G54D29*X105500Y32000D03*
G54D30*X82500Y13000D03*
X72500D03*
G54D25*G36*
X58563Y16937D02*Y9063D01*
X66437D01*
Y16937D01*
X58563D01*
G37*
G36*
X128000Y59000D02*Y51000D01*
X136000D01*
Y59000D01*
X128000D01*
G37*
G54D28*X132000Y75000D03*
G54D25*G36*
X119250Y18750D02*Y12250D01*
X125750D01*
Y18750D01*
X119250D01*
G37*
G54D31*X132500Y15500D03*
G54D25*G36*
X142100Y35400D02*Y28600D01*
X148900D01*
Y35400D01*
X142100D01*
G37*
G54D32*G54D33*G54D32*G54D34*G54D33*G54D35*G54D36*G54D34*G54D37*G54D35*M02*
