G04 start of page 2 for group 0 idx 0 *
G04 Title: (unknown), component *
G04 Creator: pcb 20140316 *
G04 CreationDate: Fri 22 Jan 2016 05:15:40 PM GMT UTC *
G04 For: ndholmes *
G04 Format: Gerber/RS-274X *
G04 PCB-Dimensions (mil): 1550.00 900.00 *
G04 PCB-Coordinate-Origin: lower left *
%MOIN*%
%FSLAX25Y25*%
%LNTOP*%
%ADD24C,0.0430*%
%ADD23C,0.0450*%
%ADD22C,0.0380*%
%ADD21C,0.0480*%
%ADD20C,0.0300*%
%ADD19C,0.0280*%
%ADD18C,0.0650*%
%ADD17C,0.0787*%
%ADD16C,0.0680*%
%ADD15C,0.0800*%
%ADD14C,0.0770*%
%ADD13C,0.0600*%
%ADD12C,0.0250*%
%ADD11C,0.0001*%
G54D11*G36*
X52613Y64000D02*X58500D01*
Y42000D01*
X52613D01*
Y52853D01*
X52656Y52860D01*
X52768Y52897D01*
X52873Y52952D01*
X52968Y53022D01*
X53051Y53106D01*
X53119Y53202D01*
X53170Y53308D01*
X53318Y53716D01*
X53422Y54137D01*
X53484Y54567D01*
X53505Y55000D01*
X53484Y55433D01*
X53422Y55863D01*
X53318Y56284D01*
X53175Y56694D01*
X53122Y56800D01*
X53053Y56896D01*
X52970Y56981D01*
X52875Y57051D01*
X52769Y57106D01*
X52657Y57143D01*
X52613Y57151D01*
Y64000D01*
G37*
G36*
X49002D02*X52613D01*
Y57151D01*
X52540Y57163D01*
X52421Y57164D01*
X52304Y57146D01*
X52191Y57110D01*
X52085Y57057D01*
X51988Y56988D01*
X51904Y56905D01*
X51833Y56809D01*
X51779Y56704D01*
X51741Y56592D01*
X51722Y56475D01*
X51721Y56356D01*
X51739Y56239D01*
X51777Y56126D01*
X51876Y55855D01*
X51944Y55575D01*
X51986Y55289D01*
X52000Y55000D01*
X51986Y54711D01*
X51944Y54425D01*
X51876Y54145D01*
X51780Y53872D01*
X51742Y53761D01*
X51725Y53644D01*
X51725Y53526D01*
X51745Y53409D01*
X51782Y53297D01*
X51836Y53193D01*
X51906Y53098D01*
X51991Y53015D01*
X52087Y52946D01*
X52192Y52893D01*
X52305Y52857D01*
X52421Y52840D01*
X52539Y52841D01*
X52613Y52853D01*
Y42000D01*
X49002D01*
Y50495D01*
X49433Y50516D01*
X49863Y50578D01*
X50284Y50682D01*
X50694Y50825D01*
X50800Y50878D01*
X50896Y50947D01*
X50981Y51030D01*
X51051Y51125D01*
X51106Y51231D01*
X51143Y51343D01*
X51163Y51460D01*
X51164Y51579D01*
X51146Y51696D01*
X51110Y51809D01*
X51057Y51915D01*
X50988Y52012D01*
X50905Y52096D01*
X50809Y52167D01*
X50704Y52221D01*
X50592Y52259D01*
X50475Y52278D01*
X50356Y52279D01*
X50239Y52261D01*
X50126Y52223D01*
X49855Y52124D01*
X49575Y52056D01*
X49289Y52014D01*
X49002Y52000D01*
Y58000D01*
X49289Y57986D01*
X49575Y57944D01*
X49855Y57876D01*
X50128Y57780D01*
X50239Y57742D01*
X50356Y57725D01*
X50474Y57725D01*
X50591Y57745D01*
X50703Y57782D01*
X50807Y57836D01*
X50902Y57906D01*
X50985Y57991D01*
X51054Y58087D01*
X51107Y58192D01*
X51143Y58305D01*
X51160Y58421D01*
X51159Y58539D01*
X51140Y58656D01*
X51103Y58768D01*
X51048Y58873D01*
X50978Y58968D01*
X50894Y59051D01*
X50798Y59119D01*
X50692Y59170D01*
X50284Y59318D01*
X49863Y59422D01*
X49433Y59484D01*
X49002Y59505D01*
Y64000D01*
G37*
G36*
X45387D02*X49002D01*
Y59505D01*
X49000Y59505D01*
X48567Y59484D01*
X48137Y59422D01*
X47716Y59318D01*
X47306Y59175D01*
X47200Y59122D01*
X47104Y59053D01*
X47019Y58970D01*
X46949Y58875D01*
X46894Y58769D01*
X46857Y58657D01*
X46837Y58540D01*
X46836Y58421D01*
X46854Y58304D01*
X46890Y58191D01*
X46943Y58085D01*
X47012Y57988D01*
X47095Y57904D01*
X47191Y57833D01*
X47296Y57779D01*
X47408Y57741D01*
X47525Y57722D01*
X47644Y57721D01*
X47761Y57739D01*
X47874Y57777D01*
X48145Y57876D01*
X48425Y57944D01*
X48711Y57986D01*
X49000Y58000D01*
X49002Y58000D01*
Y52000D01*
X49000Y52000D01*
X48711Y52014D01*
X48425Y52056D01*
X48145Y52124D01*
X47872Y52220D01*
X47761Y52258D01*
X47644Y52275D01*
X47526Y52275D01*
X47409Y52255D01*
X47297Y52218D01*
X47193Y52164D01*
X47098Y52094D01*
X47015Y52009D01*
X46946Y51913D01*
X46893Y51808D01*
X46857Y51695D01*
X46840Y51579D01*
X46841Y51461D01*
X46860Y51344D01*
X46897Y51232D01*
X46952Y51127D01*
X47022Y51032D01*
X47106Y50949D01*
X47202Y50881D01*
X47308Y50830D01*
X47716Y50682D01*
X48137Y50578D01*
X48567Y50516D01*
X49000Y50495D01*
X49002Y50495D01*
Y42000D01*
X45387D01*
Y52849D01*
X45460Y52837D01*
X45579Y52836D01*
X45696Y52854D01*
X45809Y52890D01*
X45915Y52943D01*
X46012Y53012D01*
X46096Y53095D01*
X46167Y53191D01*
X46221Y53296D01*
X46259Y53408D01*
X46278Y53525D01*
X46279Y53644D01*
X46261Y53761D01*
X46223Y53874D01*
X46124Y54145D01*
X46056Y54425D01*
X46014Y54711D01*
X46000Y55000D01*
X46014Y55289D01*
X46056Y55575D01*
X46124Y55855D01*
X46220Y56128D01*
X46258Y56239D01*
X46275Y56356D01*
X46275Y56474D01*
X46255Y56591D01*
X46218Y56703D01*
X46164Y56807D01*
X46094Y56902D01*
X46009Y56985D01*
X45913Y57054D01*
X45808Y57107D01*
X45695Y57143D01*
X45579Y57160D01*
X45461Y57159D01*
X45387Y57147D01*
Y64000D01*
G37*
G36*
X25993D02*X45387D01*
Y57147D01*
X45344Y57140D01*
X45232Y57103D01*
X45127Y57048D01*
X45032Y56978D01*
X44949Y56894D01*
X44881Y56798D01*
X44830Y56692D01*
X44682Y56284D01*
X44578Y55863D01*
X44516Y55433D01*
X44495Y55000D01*
X44516Y54567D01*
X44578Y54137D01*
X44682Y53716D01*
X44825Y53306D01*
X44878Y53200D01*
X44947Y53104D01*
X45030Y53019D01*
X45125Y52949D01*
X45231Y52894D01*
X45343Y52857D01*
X45387Y52849D01*
Y42000D01*
X25993D01*
Y52145D01*
X26078Y52181D01*
X26179Y52243D01*
X26269Y52319D01*
X26345Y52409D01*
X26405Y52511D01*
X26622Y52980D01*
X26789Y53469D01*
X26909Y53972D01*
X26982Y54484D01*
X27006Y55000D01*
X26982Y55516D01*
X26909Y56028D01*
X26789Y56531D01*
X26622Y57020D01*
X26410Y57492D01*
X26349Y57593D01*
X26272Y57684D01*
X26182Y57761D01*
X26080Y57823D01*
X25993Y57860D01*
Y64000D01*
G37*
G36*
X21502D02*X25993D01*
Y57860D01*
X25971Y57869D01*
X25855Y57897D01*
X25737Y57906D01*
X25619Y57897D01*
X25503Y57870D01*
X25393Y57824D01*
X25292Y57762D01*
X25202Y57686D01*
X25124Y57595D01*
X25062Y57494D01*
X25016Y57385D01*
X24989Y57269D01*
X24979Y57151D01*
X24988Y57032D01*
X25016Y56917D01*
X25063Y56808D01*
X25221Y56468D01*
X25342Y56112D01*
X25430Y55747D01*
X25482Y55375D01*
X25500Y55000D01*
X25482Y54625D01*
X25430Y54253D01*
X25342Y53888D01*
X25221Y53532D01*
X25067Y53190D01*
X25020Y53082D01*
X24993Y52967D01*
X24983Y52849D01*
X24993Y52732D01*
X25021Y52617D01*
X25066Y52508D01*
X25128Y52407D01*
X25205Y52318D01*
X25295Y52241D01*
X25395Y52180D01*
X25504Y52135D01*
X25619Y52107D01*
X25737Y52098D01*
X25855Y52108D01*
X25969Y52135D01*
X25993Y52145D01*
Y42000D01*
X21502D01*
Y49494D01*
X22016Y49518D01*
X22528Y49591D01*
X23031Y49711D01*
X23520Y49878D01*
X23992Y50090D01*
X24093Y50151D01*
X24184Y50228D01*
X24261Y50318D01*
X24323Y50420D01*
X24369Y50529D01*
X24397Y50645D01*
X24406Y50763D01*
X24397Y50881D01*
X24370Y50997D01*
X24324Y51107D01*
X24262Y51208D01*
X24186Y51298D01*
X24095Y51376D01*
X23994Y51438D01*
X23885Y51484D01*
X23769Y51511D01*
X23651Y51521D01*
X23532Y51512D01*
X23417Y51484D01*
X23308Y51437D01*
X22968Y51279D01*
X22612Y51158D01*
X22247Y51070D01*
X21875Y51018D01*
X21502Y51000D01*
Y59000D01*
X21875Y58982D01*
X22247Y58930D01*
X22612Y58842D01*
X22968Y58721D01*
X23310Y58567D01*
X23418Y58520D01*
X23533Y58493D01*
X23651Y58483D01*
X23768Y58493D01*
X23883Y58521D01*
X23992Y58566D01*
X24093Y58628D01*
X24182Y58705D01*
X24259Y58795D01*
X24320Y58895D01*
X24365Y59004D01*
X24393Y59119D01*
X24402Y59237D01*
X24392Y59355D01*
X24365Y59469D01*
X24319Y59578D01*
X24257Y59679D01*
X24181Y59769D01*
X24091Y59845D01*
X23989Y59905D01*
X23520Y60122D01*
X23031Y60289D01*
X22528Y60409D01*
X22016Y60482D01*
X21502Y60506D01*
Y64000D01*
G37*
G36*
X17007D02*X21502D01*
Y60506D01*
X21500Y60506D01*
X20984Y60482D01*
X20472Y60409D01*
X19969Y60289D01*
X19480Y60122D01*
X19008Y59910D01*
X18907Y59849D01*
X18816Y59772D01*
X18739Y59682D01*
X18677Y59580D01*
X18631Y59471D01*
X18603Y59355D01*
X18594Y59237D01*
X18603Y59119D01*
X18630Y59003D01*
X18676Y58893D01*
X18738Y58792D01*
X18814Y58702D01*
X18905Y58624D01*
X19006Y58562D01*
X19115Y58516D01*
X19231Y58489D01*
X19349Y58479D01*
X19468Y58488D01*
X19583Y58516D01*
X19692Y58563D01*
X20032Y58721D01*
X20388Y58842D01*
X20753Y58930D01*
X21125Y58982D01*
X21500Y59000D01*
X21502Y59000D01*
Y51000D01*
X21500Y51000D01*
X21125Y51018D01*
X20753Y51070D01*
X20388Y51158D01*
X20032Y51279D01*
X19690Y51433D01*
X19582Y51480D01*
X19467Y51507D01*
X19349Y51517D01*
X19232Y51507D01*
X19117Y51479D01*
X19008Y51434D01*
X18907Y51372D01*
X18818Y51295D01*
X18741Y51205D01*
X18680Y51105D01*
X18635Y50996D01*
X18607Y50881D01*
X18598Y50763D01*
X18608Y50645D01*
X18635Y50531D01*
X18681Y50422D01*
X18743Y50321D01*
X18819Y50231D01*
X18909Y50155D01*
X19011Y50095D01*
X19480Y49878D01*
X19969Y49711D01*
X20472Y49591D01*
X20984Y49518D01*
X21500Y49494D01*
X21502Y49494D01*
Y42000D01*
X17007D01*
Y52140D01*
X17029Y52131D01*
X17145Y52103D01*
X17263Y52094D01*
X17381Y52103D01*
X17497Y52130D01*
X17607Y52176D01*
X17708Y52238D01*
X17798Y52314D01*
X17876Y52405D01*
X17938Y52506D01*
X17984Y52615D01*
X18011Y52731D01*
X18021Y52849D01*
X18012Y52968D01*
X17984Y53083D01*
X17937Y53192D01*
X17779Y53532D01*
X17658Y53888D01*
X17570Y54253D01*
X17518Y54625D01*
X17500Y55000D01*
X17518Y55375D01*
X17570Y55747D01*
X17658Y56112D01*
X17779Y56468D01*
X17933Y56810D01*
X17980Y56918D01*
X18007Y57033D01*
X18017Y57151D01*
X18007Y57268D01*
X17979Y57383D01*
X17934Y57492D01*
X17872Y57593D01*
X17795Y57682D01*
X17705Y57759D01*
X17605Y57820D01*
X17496Y57865D01*
X17381Y57893D01*
X17263Y57902D01*
X17145Y57892D01*
X17031Y57865D01*
X17007Y57855D01*
Y64000D01*
G37*
G36*
X3500D02*X17007D01*
Y57855D01*
X16922Y57819D01*
X16821Y57757D01*
X16731Y57681D01*
X16655Y57591D01*
X16595Y57489D01*
X16378Y57020D01*
X16211Y56531D01*
X16091Y56028D01*
X16018Y55516D01*
X15994Y55000D01*
X16018Y54484D01*
X16091Y53972D01*
X16211Y53469D01*
X16378Y52980D01*
X16590Y52508D01*
X16651Y52407D01*
X16728Y52316D01*
X16818Y52239D01*
X16920Y52177D01*
X17007Y52140D01*
Y42000D01*
X3500D01*
Y64000D01*
G37*
G36*
X52750Y88000D02*X58500D01*
Y66000D01*
X52750D01*
Y72748D01*
X52868Y72757D01*
X52982Y72785D01*
X53092Y72830D01*
X53192Y72891D01*
X53282Y72968D01*
X53359Y73058D01*
X53420Y73158D01*
X53465Y73268D01*
X53493Y73382D01*
X53500Y73500D01*
Y76500D01*
X53493Y76618D01*
X53465Y76732D01*
X53420Y76842D01*
X53359Y76942D01*
X53282Y77032D01*
X53192Y77109D01*
X53092Y77170D01*
X52982Y77215D01*
X52868Y77243D01*
X52750Y77252D01*
Y88000D01*
G37*
G36*
X49000D02*X52750D01*
Y77252D01*
X52632Y77243D01*
X52518Y77215D01*
X52408Y77170D01*
X52308Y77109D01*
X52218Y77032D01*
X52141Y76942D01*
X52080Y76842D01*
X52035Y76732D01*
X52007Y76618D01*
X52000Y76500D01*
Y73500D01*
X52007Y73382D01*
X52035Y73268D01*
X52080Y73158D01*
X52141Y73058D01*
X52218Y72968D01*
X52308Y72891D01*
X52408Y72830D01*
X52518Y72785D01*
X52632Y72757D01*
X52750Y72748D01*
Y66000D01*
X49000D01*
Y70500D01*
X50500D01*
X50618Y70507D01*
X50732Y70535D01*
X50842Y70580D01*
X50942Y70641D01*
X51032Y70718D01*
X51109Y70808D01*
X51170Y70908D01*
X51215Y71018D01*
X51243Y71132D01*
X51252Y71250D01*
X51243Y71368D01*
X51215Y71482D01*
X51170Y71592D01*
X51109Y71692D01*
X51032Y71782D01*
X50942Y71859D01*
X50842Y71920D01*
X50732Y71965D01*
X50618Y71993D01*
X50500Y72000D01*
X49000D01*
Y78000D01*
X50500D01*
X50618Y78007D01*
X50732Y78035D01*
X50842Y78080D01*
X50942Y78141D01*
X51032Y78218D01*
X51109Y78308D01*
X51170Y78408D01*
X51215Y78518D01*
X51243Y78632D01*
X51252Y78750D01*
X51243Y78868D01*
X51215Y78982D01*
X51170Y79092D01*
X51109Y79192D01*
X51032Y79282D01*
X50942Y79359D01*
X50842Y79420D01*
X50732Y79465D01*
X50618Y79493D01*
X50500Y79500D01*
X49000D01*
Y88000D01*
G37*
G36*
X45250D02*X49000D01*
Y79500D01*
X47500D01*
X47382Y79493D01*
X47268Y79465D01*
X47158Y79420D01*
X47058Y79359D01*
X46968Y79282D01*
X46891Y79192D01*
X46830Y79092D01*
X46785Y78982D01*
X46757Y78868D01*
X46748Y78750D01*
X46757Y78632D01*
X46785Y78518D01*
X46830Y78408D01*
X46891Y78308D01*
X46968Y78218D01*
X47058Y78141D01*
X47158Y78080D01*
X47268Y78035D01*
X47382Y78007D01*
X47500Y78000D01*
X49000D01*
Y72000D01*
X47500D01*
X47382Y71993D01*
X47268Y71965D01*
X47158Y71920D01*
X47058Y71859D01*
X46968Y71782D01*
X46891Y71692D01*
X46830Y71592D01*
X46785Y71482D01*
X46757Y71368D01*
X46748Y71250D01*
X46757Y71132D01*
X46785Y71018D01*
X46830Y70908D01*
X46891Y70808D01*
X46968Y70718D01*
X47058Y70641D01*
X47158Y70580D01*
X47268Y70535D01*
X47382Y70507D01*
X47500Y70500D01*
X49000D01*
Y66000D01*
X45250D01*
Y72748D01*
X45368Y72757D01*
X45482Y72785D01*
X45592Y72830D01*
X45692Y72891D01*
X45782Y72968D01*
X45859Y73058D01*
X45920Y73158D01*
X45965Y73268D01*
X45993Y73382D01*
X46000Y73500D01*
Y76500D01*
X45993Y76618D01*
X45965Y76732D01*
X45920Y76842D01*
X45859Y76942D01*
X45782Y77032D01*
X45692Y77109D01*
X45592Y77170D01*
X45482Y77215D01*
X45368Y77243D01*
X45250Y77252D01*
Y88000D01*
G37*
G36*
X26250D02*X45250D01*
Y77252D01*
X45132Y77243D01*
X45018Y77215D01*
X44908Y77170D01*
X44808Y77109D01*
X44718Y77032D01*
X44641Y76942D01*
X44580Y76842D01*
X44535Y76732D01*
X44507Y76618D01*
X44500Y76500D01*
Y73500D01*
X44507Y73382D01*
X44535Y73268D01*
X44580Y73158D01*
X44641Y73058D01*
X44718Y72968D01*
X44808Y72891D01*
X44908Y72830D01*
X45018Y72785D01*
X45132Y72757D01*
X45250Y72748D01*
Y66000D01*
X26250D01*
Y71748D01*
X26368Y71757D01*
X26482Y71785D01*
X26592Y71830D01*
X26692Y71891D01*
X26782Y71968D01*
X26859Y72058D01*
X26920Y72158D01*
X26965Y72268D01*
X26993Y72382D01*
X27000Y72500D01*
Y77500D01*
X26993Y77618D01*
X26965Y77732D01*
X26920Y77842D01*
X26859Y77942D01*
X26782Y78032D01*
X26692Y78109D01*
X26592Y78170D01*
X26482Y78215D01*
X26368Y78243D01*
X26250Y78252D01*
Y88000D01*
G37*
G36*
X21500D02*X26250D01*
Y78252D01*
X26132Y78243D01*
X26018Y78215D01*
X25908Y78170D01*
X25808Y78109D01*
X25718Y78032D01*
X25641Y77942D01*
X25580Y77842D01*
X25535Y77732D01*
X25507Y77618D01*
X25500Y77500D01*
Y72500D01*
X25507Y72382D01*
X25535Y72268D01*
X25580Y72158D01*
X25641Y72058D01*
X25718Y71968D01*
X25808Y71891D01*
X25908Y71830D01*
X26018Y71785D01*
X26132Y71757D01*
X26250Y71748D01*
Y66000D01*
X21500D01*
Y69500D01*
X24000D01*
X24118Y69507D01*
X24232Y69535D01*
X24342Y69580D01*
X24442Y69641D01*
X24532Y69718D01*
X24609Y69808D01*
X24670Y69908D01*
X24715Y70018D01*
X24743Y70132D01*
X24752Y70250D01*
X24743Y70368D01*
X24715Y70482D01*
X24670Y70592D01*
X24609Y70692D01*
X24532Y70782D01*
X24442Y70859D01*
X24342Y70920D01*
X24232Y70965D01*
X24118Y70993D01*
X24000Y71000D01*
X21500D01*
Y79000D01*
X24000D01*
X24118Y79007D01*
X24232Y79035D01*
X24342Y79080D01*
X24442Y79141D01*
X24532Y79218D01*
X24609Y79308D01*
X24670Y79408D01*
X24715Y79518D01*
X24743Y79632D01*
X24752Y79750D01*
X24743Y79868D01*
X24715Y79982D01*
X24670Y80092D01*
X24609Y80192D01*
X24532Y80282D01*
X24442Y80359D01*
X24342Y80420D01*
X24232Y80465D01*
X24118Y80493D01*
X24000Y80500D01*
X21500D01*
Y88000D01*
G37*
G36*
X16750D02*X21500D01*
Y80500D01*
X19000D01*
X18882Y80493D01*
X18768Y80465D01*
X18658Y80420D01*
X18558Y80359D01*
X18468Y80282D01*
X18391Y80192D01*
X18330Y80092D01*
X18285Y79982D01*
X18257Y79868D01*
X18248Y79750D01*
X18257Y79632D01*
X18285Y79518D01*
X18330Y79408D01*
X18391Y79308D01*
X18468Y79218D01*
X18558Y79141D01*
X18658Y79080D01*
X18768Y79035D01*
X18882Y79007D01*
X19000Y79000D01*
X21500D01*
Y71000D01*
X19000D01*
X18882Y70993D01*
X18768Y70965D01*
X18658Y70920D01*
X18558Y70859D01*
X18468Y70782D01*
X18391Y70692D01*
X18330Y70592D01*
X18285Y70482D01*
X18257Y70368D01*
X18248Y70250D01*
X18257Y70132D01*
X18285Y70018D01*
X18330Y69908D01*
X18391Y69808D01*
X18468Y69718D01*
X18558Y69641D01*
X18658Y69580D01*
X18768Y69535D01*
X18882Y69507D01*
X19000Y69500D01*
X21500D01*
Y66000D01*
X16750D01*
Y71748D01*
X16868Y71757D01*
X16982Y71785D01*
X17092Y71830D01*
X17192Y71891D01*
X17282Y71968D01*
X17359Y72058D01*
X17420Y72158D01*
X17465Y72268D01*
X17493Y72382D01*
X17500Y72500D01*
Y77500D01*
X17493Y77618D01*
X17465Y77732D01*
X17420Y77842D01*
X17359Y77942D01*
X17282Y78032D01*
X17192Y78109D01*
X17092Y78170D01*
X16982Y78215D01*
X16868Y78243D01*
X16750Y78252D01*
Y88000D01*
G37*
G36*
X3500D02*X16750D01*
Y78252D01*
X16632Y78243D01*
X16518Y78215D01*
X16408Y78170D01*
X16308Y78109D01*
X16218Y78032D01*
X16141Y77942D01*
X16080Y77842D01*
X16035Y77732D01*
X16007Y77618D01*
X16000Y77500D01*
Y72500D01*
X16007Y72382D01*
X16035Y72268D01*
X16080Y72158D01*
X16141Y72058D01*
X16218Y71968D01*
X16308Y71891D01*
X16408Y71830D01*
X16518Y71785D01*
X16632Y71757D01*
X16750Y71748D01*
Y66000D01*
X3500D01*
Y88000D01*
G37*
G36*
X62500Y38500D02*X72500D01*
Y18955D01*
X71568Y18882D01*
X70660Y18664D01*
X69796Y18306D01*
X69000Y17818D01*
X68289Y17211D01*
X67682Y16500D01*
X67334Y15932D01*
X67280Y15928D01*
X67127Y15891D01*
X66982Y15831D01*
X66847Y15749D01*
X66728Y15646D01*
X66625Y15527D01*
X66543Y15392D01*
X66483Y15247D01*
X66446Y15094D01*
X66437Y14937D01*
Y11063D01*
X66446Y10906D01*
X66483Y10753D01*
X66543Y10608D01*
X66625Y10473D01*
X66728Y10354D01*
X66847Y10251D01*
X66982Y10169D01*
X67127Y10109D01*
X67280Y10072D01*
X67334Y10068D01*
X67682Y9500D01*
X68289Y8789D01*
X69000Y8182D01*
X69796Y7694D01*
X70660Y7336D01*
X71568Y7118D01*
X72500Y7045D01*
Y2000D01*
X62500D01*
Y7063D01*
X64437D01*
X64594Y7072D01*
X64747Y7109D01*
X64892Y7169D01*
X65027Y7251D01*
X65146Y7354D01*
X65249Y7473D01*
X65331Y7608D01*
X65391Y7753D01*
X65428Y7906D01*
X65440Y8063D01*
X65428Y8220D01*
X65391Y8373D01*
X65331Y8518D01*
X65249Y8653D01*
X65146Y8772D01*
X65027Y8875D01*
X64892Y8957D01*
X64747Y9017D01*
X64594Y9054D01*
X64437Y9063D01*
X62500D01*
Y16937D01*
X64437D01*
X64594Y16946D01*
X64747Y16983D01*
X64892Y17043D01*
X65027Y17125D01*
X65146Y17228D01*
X65249Y17347D01*
X65331Y17482D01*
X65391Y17627D01*
X65428Y17780D01*
X65440Y17937D01*
X65428Y18094D01*
X65391Y18247D01*
X65331Y18392D01*
X65249Y18527D01*
X65146Y18646D01*
X65027Y18749D01*
X64892Y18831D01*
X64747Y18891D01*
X64594Y18928D01*
X64437Y18937D01*
X62500D01*
Y38500D01*
G37*
G36*
X57563D02*X62500D01*
Y18937D01*
X60563D01*
X60406Y18928D01*
X60253Y18891D01*
X60108Y18831D01*
X59973Y18749D01*
X59854Y18646D01*
X59751Y18527D01*
X59669Y18392D01*
X59609Y18247D01*
X59572Y18094D01*
X59560Y17937D01*
X59572Y17780D01*
X59609Y17627D01*
X59669Y17482D01*
X59751Y17347D01*
X59854Y17228D01*
X59973Y17125D01*
X60108Y17043D01*
X60253Y16983D01*
X60406Y16946D01*
X60563Y16937D01*
X62500D01*
Y9063D01*
X60563D01*
X60406Y9054D01*
X60253Y9017D01*
X60108Y8957D01*
X59973Y8875D01*
X59854Y8772D01*
X59751Y8653D01*
X59669Y8518D01*
X59609Y8373D01*
X59572Y8220D01*
X59560Y8063D01*
X59572Y7906D01*
X59609Y7753D01*
X59669Y7608D01*
X59751Y7473D01*
X59854Y7354D01*
X59973Y7251D01*
X60108Y7169D01*
X60253Y7109D01*
X60406Y7072D01*
X60563Y7063D01*
X62500D01*
Y2000D01*
X57563D01*
Y10060D01*
X57720Y10072D01*
X57873Y10109D01*
X58018Y10169D01*
X58153Y10251D01*
X58272Y10354D01*
X58375Y10473D01*
X58457Y10608D01*
X58517Y10753D01*
X58554Y10906D01*
X58563Y11063D01*
Y14937D01*
X58554Y15094D01*
X58517Y15247D01*
X58457Y15392D01*
X58375Y15527D01*
X58272Y15646D01*
X58153Y15749D01*
X58018Y15831D01*
X57873Y15891D01*
X57720Y15928D01*
X57563Y15940D01*
Y38500D01*
G37*
G36*
X25000D02*X57563D01*
Y15940D01*
X57406Y15928D01*
X57253Y15891D01*
X57108Y15831D01*
X56973Y15749D01*
X56854Y15646D01*
X56751Y15527D01*
X56669Y15392D01*
X56609Y15247D01*
X56572Y15094D01*
X56563Y14937D01*
Y11063D01*
X56572Y10906D01*
X56609Y10753D01*
X56669Y10608D01*
X56751Y10473D01*
X56854Y10354D01*
X56973Y10251D01*
X57108Y10169D01*
X57253Y10109D01*
X57406Y10072D01*
X57563Y10060D01*
Y2000D01*
X25000D01*
Y12156D01*
X25075Y12278D01*
X25316Y12860D01*
X25463Y13472D01*
X25500Y14100D01*
X25463Y14728D01*
X25316Y15340D01*
X25075Y15922D01*
X25000Y16044D01*
Y25398D01*
X25078Y25405D01*
X25155Y25423D01*
X25228Y25453D01*
X25295Y25494D01*
X25355Y25545D01*
X25406Y25605D01*
X25447Y25672D01*
X25477Y25745D01*
X25495Y25822D01*
X25500Y25900D01*
Y29900D01*
X25495Y29978D01*
X25477Y30055D01*
X25447Y30128D01*
X25406Y30195D01*
X25355Y30255D01*
X25295Y30306D01*
X25228Y30347D01*
X25155Y30377D01*
X25078Y30395D01*
X25000Y30402D01*
Y38500D01*
G37*
G36*
Y2000D02*X21500D01*
Y10088D01*
X22128Y10137D01*
X22740Y10284D01*
X23322Y10525D01*
X23858Y10854D01*
X24337Y11263D01*
X24746Y11742D01*
X25000Y12156D01*
Y2000D01*
G37*
G36*
X21500Y38500D02*X25000D01*
Y30402D01*
X24922Y30395D01*
X24845Y30377D01*
X24772Y30347D01*
X24705Y30306D01*
X24645Y30255D01*
X24594Y30195D01*
X24553Y30128D01*
X24523Y30055D01*
X24505Y29978D01*
X24500Y29900D01*
Y25900D01*
X24505Y25822D01*
X24523Y25745D01*
X24553Y25672D01*
X24594Y25605D01*
X24645Y25545D01*
X24705Y25494D01*
X24772Y25453D01*
X24845Y25423D01*
X24922Y25405D01*
X25000Y25398D01*
Y16044D01*
X24746Y16458D01*
X24337Y16937D01*
X23858Y17346D01*
X23322Y17675D01*
X22740Y17916D01*
X22128Y18063D01*
X21500Y18112D01*
Y23900D01*
X23500D01*
X23578Y23905D01*
X23655Y23923D01*
X23728Y23953D01*
X23795Y23994D01*
X23855Y24045D01*
X23906Y24105D01*
X23947Y24172D01*
X23977Y24245D01*
X23995Y24322D01*
X24002Y24400D01*
X23995Y24478D01*
X23977Y24555D01*
X23947Y24628D01*
X23906Y24695D01*
X23855Y24755D01*
X23795Y24806D01*
X23728Y24847D01*
X23655Y24877D01*
X23578Y24895D01*
X23500Y24900D01*
X21500D01*
Y30900D01*
X23500D01*
X23578Y30905D01*
X23655Y30923D01*
X23728Y30953D01*
X23795Y30994D01*
X23855Y31045D01*
X23906Y31105D01*
X23947Y31172D01*
X23977Y31245D01*
X23995Y31322D01*
X24002Y31400D01*
X23995Y31478D01*
X23977Y31555D01*
X23947Y31628D01*
X23906Y31695D01*
X23855Y31755D01*
X23795Y31806D01*
X23728Y31847D01*
X23655Y31877D01*
X23578Y31895D01*
X23500Y31900D01*
X21500D01*
Y38500D01*
G37*
G36*
X18000Y12156D02*X18254Y11742D01*
X18663Y11263D01*
X19142Y10854D01*
X19678Y10525D01*
X20260Y10284D01*
X20872Y10137D01*
X21500Y10088D01*
X21500D01*
Y2000D01*
X18000D01*
Y12156D01*
G37*
G36*
Y38500D02*X21500D01*
Y31900D01*
X19500D01*
X19422Y31895D01*
X19345Y31877D01*
X19272Y31847D01*
X19205Y31806D01*
X19145Y31755D01*
X19094Y31695D01*
X19053Y31628D01*
X19023Y31555D01*
X19005Y31478D01*
X18998Y31400D01*
X19005Y31322D01*
X19023Y31245D01*
X19053Y31172D01*
X19094Y31105D01*
X19145Y31045D01*
X19205Y30994D01*
X19272Y30953D01*
X19345Y30923D01*
X19422Y30905D01*
X19500Y30900D01*
X21500D01*
Y24900D01*
X19500D01*
X19422Y24895D01*
X19345Y24877D01*
X19272Y24847D01*
X19205Y24806D01*
X19145Y24755D01*
X19094Y24695D01*
X19053Y24628D01*
X19023Y24555D01*
X19005Y24478D01*
X18998Y24400D01*
X19005Y24322D01*
X19023Y24245D01*
X19053Y24172D01*
X19094Y24105D01*
X19145Y24045D01*
X19205Y23994D01*
X19272Y23953D01*
X19345Y23923D01*
X19422Y23905D01*
X19500Y23900D01*
X21500D01*
Y18112D01*
X21500D01*
X20872Y18063D01*
X20260Y17916D01*
X19678Y17675D01*
X19142Y17346D01*
X18663Y16937D01*
X18254Y16458D01*
X18000Y16044D01*
Y25398D01*
X18078Y25405D01*
X18155Y25423D01*
X18228Y25453D01*
X18295Y25494D01*
X18355Y25545D01*
X18406Y25605D01*
X18447Y25672D01*
X18477Y25745D01*
X18495Y25822D01*
X18500Y25900D01*
Y29900D01*
X18495Y29978D01*
X18477Y30055D01*
X18447Y30128D01*
X18406Y30195D01*
X18355Y30255D01*
X18295Y30306D01*
X18228Y30347D01*
X18155Y30377D01*
X18078Y30395D01*
X18000Y30402D01*
Y38500D01*
G37*
G36*
X3500D02*X18000D01*
Y30402D01*
X17922Y30395D01*
X17845Y30377D01*
X17772Y30347D01*
X17705Y30306D01*
X17645Y30255D01*
X17594Y30195D01*
X17553Y30128D01*
X17523Y30055D01*
X17505Y29978D01*
X17500Y29900D01*
Y25900D01*
X17505Y25822D01*
X17523Y25745D01*
X17553Y25672D01*
X17594Y25605D01*
X17645Y25545D01*
X17705Y25494D01*
X17772Y25453D01*
X17845Y25423D01*
X17922Y25405D01*
X18000Y25398D01*
Y16044D01*
X17925Y15922D01*
X17684Y15340D01*
X17537Y14728D01*
X17488Y14100D01*
X17537Y13472D01*
X17684Y12860D01*
X17925Y12278D01*
X18000Y12156D01*
Y2000D01*
X3500D01*
Y38500D01*
G37*
G36*
X82613Y88000D02*X84500D01*
Y30000D01*
X82613D01*
Y52853D01*
X82656Y52860D01*
X82768Y52897D01*
X82873Y52952D01*
X82968Y53022D01*
X83051Y53106D01*
X83119Y53202D01*
X83170Y53308D01*
X83318Y53716D01*
X83422Y54137D01*
X83484Y54567D01*
X83505Y55000D01*
X83484Y55433D01*
X83422Y55863D01*
X83318Y56284D01*
X83175Y56694D01*
X83122Y56800D01*
X83053Y56896D01*
X82970Y56981D01*
X82875Y57051D01*
X82769Y57106D01*
X82657Y57143D01*
X82613Y57151D01*
Y72302D01*
X82652Y72347D01*
X83022Y72951D01*
X83293Y73605D01*
X83458Y74294D01*
X83500Y75000D01*
X83458Y75706D01*
X83293Y76395D01*
X83022Y77049D01*
X82652Y77653D01*
X82613Y77698D01*
Y88000D01*
G37*
G36*
Y30000D02*X79002D01*
Y50495D01*
X79433Y50516D01*
X79863Y50578D01*
X80284Y50682D01*
X80694Y50825D01*
X80800Y50878D01*
X80896Y50947D01*
X80981Y51030D01*
X81051Y51125D01*
X81106Y51231D01*
X81143Y51343D01*
X81163Y51460D01*
X81164Y51579D01*
X81146Y51696D01*
X81110Y51809D01*
X81057Y51915D01*
X80988Y52012D01*
X80905Y52096D01*
X80809Y52167D01*
X80704Y52221D01*
X80592Y52259D01*
X80475Y52278D01*
X80356Y52279D01*
X80239Y52261D01*
X80126Y52223D01*
X79855Y52124D01*
X79575Y52056D01*
X79289Y52014D01*
X79002Y52000D01*
Y58000D01*
X79289Y57986D01*
X79575Y57944D01*
X79855Y57876D01*
X80128Y57780D01*
X80239Y57742D01*
X80356Y57725D01*
X80474Y57725D01*
X80591Y57745D01*
X80703Y57782D01*
X80807Y57836D01*
X80902Y57906D01*
X80985Y57991D01*
X81054Y58087D01*
X81107Y58192D01*
X81143Y58305D01*
X81160Y58421D01*
X81159Y58539D01*
X81140Y58656D01*
X81103Y58768D01*
X81048Y58873D01*
X80978Y58968D01*
X80894Y59051D01*
X80798Y59119D01*
X80692Y59170D01*
X80284Y59318D01*
X79863Y59422D01*
X79433Y59484D01*
X79002Y59505D01*
Y70486D01*
X79706Y70542D01*
X80395Y70707D01*
X81049Y70978D01*
X81653Y71348D01*
X82192Y71808D01*
X82613Y72302D01*
Y57151D01*
X82540Y57163D01*
X82421Y57164D01*
X82304Y57146D01*
X82191Y57110D01*
X82085Y57057D01*
X81988Y56988D01*
X81904Y56905D01*
X81833Y56809D01*
X81779Y56704D01*
X81741Y56592D01*
X81722Y56475D01*
X81721Y56356D01*
X81739Y56239D01*
X81777Y56126D01*
X81876Y55855D01*
X81944Y55575D01*
X81986Y55289D01*
X82000Y55000D01*
X81986Y54711D01*
X81944Y54425D01*
X81876Y54145D01*
X81780Y53872D01*
X81742Y53761D01*
X81725Y53644D01*
X81725Y53526D01*
X81745Y53409D01*
X81782Y53297D01*
X81836Y53193D01*
X81906Y53098D01*
X81991Y53015D01*
X82087Y52946D01*
X82192Y52893D01*
X82305Y52857D01*
X82421Y52840D01*
X82539Y52841D01*
X82613Y52853D01*
Y30000D01*
G37*
G36*
X79002Y88000D02*X82613D01*
Y77698D01*
X82192Y78192D01*
X81653Y78652D01*
X81049Y79022D01*
X80395Y79293D01*
X79706Y79458D01*
X79002Y79514D01*
Y88000D01*
G37*
G36*
X75387Y72302D02*X75808Y71808D01*
X76347Y71348D01*
X76951Y70978D01*
X77605Y70707D01*
X78294Y70542D01*
X79000Y70486D01*
X79002Y70486D01*
Y59505D01*
X79000Y59505D01*
X78567Y59484D01*
X78137Y59422D01*
X77716Y59318D01*
X77306Y59175D01*
X77200Y59122D01*
X77104Y59053D01*
X77019Y58970D01*
X76949Y58875D01*
X76894Y58769D01*
X76857Y58657D01*
X76837Y58540D01*
X76836Y58421D01*
X76854Y58304D01*
X76890Y58191D01*
X76943Y58085D01*
X77012Y57988D01*
X77095Y57904D01*
X77191Y57833D01*
X77296Y57779D01*
X77408Y57741D01*
X77525Y57722D01*
X77644Y57721D01*
X77761Y57739D01*
X77874Y57777D01*
X78145Y57876D01*
X78425Y57944D01*
X78711Y57986D01*
X79000Y58000D01*
X79002Y58000D01*
Y52000D01*
X79000Y52000D01*
X78711Y52014D01*
X78425Y52056D01*
X78145Y52124D01*
X77872Y52220D01*
X77761Y52258D01*
X77644Y52275D01*
X77526Y52275D01*
X77409Y52255D01*
X77297Y52218D01*
X77193Y52164D01*
X77098Y52094D01*
X77015Y52009D01*
X76946Y51913D01*
X76893Y51808D01*
X76857Y51695D01*
X76840Y51579D01*
X76841Y51461D01*
X76860Y51344D01*
X76897Y51232D01*
X76952Y51127D01*
X77022Y51032D01*
X77106Y50949D01*
X77202Y50881D01*
X77308Y50830D01*
X77716Y50682D01*
X78137Y50578D01*
X78567Y50516D01*
X79000Y50495D01*
X79002Y50495D01*
Y30000D01*
X75387D01*
Y52849D01*
X75460Y52837D01*
X75579Y52836D01*
X75696Y52854D01*
X75809Y52890D01*
X75915Y52943D01*
X76012Y53012D01*
X76096Y53095D01*
X76167Y53191D01*
X76221Y53296D01*
X76259Y53408D01*
X76278Y53525D01*
X76279Y53644D01*
X76261Y53761D01*
X76223Y53874D01*
X76124Y54145D01*
X76056Y54425D01*
X76014Y54711D01*
X76000Y55000D01*
X76014Y55289D01*
X76056Y55575D01*
X76124Y55855D01*
X76220Y56128D01*
X76258Y56239D01*
X76275Y56356D01*
X76275Y56474D01*
X76255Y56591D01*
X76218Y56703D01*
X76164Y56807D01*
X76094Y56902D01*
X76009Y56985D01*
X75913Y57054D01*
X75808Y57107D01*
X75695Y57143D01*
X75579Y57160D01*
X75461Y57159D01*
X75387Y57147D01*
Y72302D01*
G37*
G36*
Y88000D02*X79002D01*
Y79514D01*
X79000Y79514D01*
X78294Y79458D01*
X77605Y79293D01*
X76951Y79022D01*
X76347Y78652D01*
X75808Y78192D01*
X75387Y77698D01*
Y88000D01*
G37*
G36*
X62500D02*X75387D01*
Y77698D01*
X75348Y77653D01*
X74978Y77049D01*
X74707Y76395D01*
X74542Y75706D01*
X74486Y75000D01*
X74542Y74294D01*
X74707Y73605D01*
X74978Y72951D01*
X75348Y72347D01*
X75387Y72302D01*
Y57147D01*
X75344Y57140D01*
X75232Y57103D01*
X75127Y57048D01*
X75032Y56978D01*
X74949Y56894D01*
X74881Y56798D01*
X74830Y56692D01*
X74682Y56284D01*
X74578Y55863D01*
X74516Y55433D01*
X74495Y55000D01*
X74516Y54567D01*
X74578Y54137D01*
X74682Y53716D01*
X74825Y53306D01*
X74878Y53200D01*
X74947Y53104D01*
X75030Y53019D01*
X75125Y52949D01*
X75231Y52894D01*
X75343Y52857D01*
X75387Y52849D01*
Y30000D01*
X62500D01*
Y88000D01*
G37*
G36*
X122500Y27500D02*X141078D01*
X141216Y27383D01*
X141417Y27259D01*
X141635Y27169D01*
X141865Y27114D01*
X142100Y27100D01*
X143050Y27102D01*
Y20015D01*
X140985Y17950D01*
X136570D01*
X136355Y18301D01*
X135869Y18869D01*
X135301Y19355D01*
X134663Y19745D01*
X133972Y20031D01*
X133245Y20206D01*
X132500Y20265D01*
X131755Y20206D01*
X131028Y20031D01*
X130337Y19745D01*
X129699Y19355D01*
X129131Y18869D01*
X128645Y18301D01*
X128255Y17663D01*
X127969Y16972D01*
X127794Y16245D01*
X127735Y15500D01*
X127794Y14755D01*
X127969Y14028D01*
X128255Y13337D01*
X128645Y12699D01*
X129131Y12131D01*
X129699Y11645D01*
X130337Y11255D01*
X131028Y10969D01*
X131755Y10794D01*
X132500Y10735D01*
X133245Y10794D01*
X133972Y10969D01*
X134663Y11255D01*
X135301Y11645D01*
X135869Y12131D01*
X136355Y12699D01*
X136570Y13050D01*
X141904D01*
X142000Y13042D01*
X142384Y13073D01*
X142384Y13073D01*
X142759Y13163D01*
X143116Y13310D01*
X143445Y13512D01*
X143738Y13762D01*
X143800Y13836D01*
X147165Y17200D01*
X147238Y17262D01*
X147488Y17555D01*
X147488Y17555D01*
X147690Y17884D01*
X147837Y18241D01*
X147927Y18616D01*
X147958Y19000D01*
X147950Y19096D01*
Y27112D01*
X149135Y27114D01*
X149365Y27169D01*
X149583Y27259D01*
X149784Y27383D01*
X149922Y27500D01*
X152000D01*
Y2000D01*
X122500D01*
Y10757D01*
X125985Y10764D01*
X126215Y10819D01*
X126433Y10909D01*
X126634Y11033D01*
X126814Y11186D01*
X126967Y11366D01*
X127091Y11567D01*
X127181Y11785D01*
X127236Y12015D01*
X127250Y12250D01*
X127236Y18985D01*
X127181Y19215D01*
X127091Y19433D01*
X126967Y19634D01*
X126814Y19814D01*
X126634Y19967D01*
X126433Y20091D01*
X126215Y20181D01*
X125985Y20236D01*
X125750Y20250D01*
X122500Y20243D01*
Y27500D01*
G37*
G36*
X87261D02*X103567D01*
X103912Y27359D01*
X104355Y27230D01*
X104809Y27143D01*
X105269Y27100D01*
X105731D01*
X106191Y27143D01*
X106645Y27230D01*
X107088Y27359D01*
X107445Y27500D01*
X122500D01*
Y20243D01*
X119015Y20236D01*
X118785Y20181D01*
X118567Y20091D01*
X118366Y19967D01*
X118186Y19814D01*
X118033Y19634D01*
X117909Y19433D01*
X117819Y19215D01*
X117764Y18985D01*
X117750Y18750D01*
X117764Y12015D01*
X117819Y11785D01*
X117909Y11567D01*
X118033Y11366D01*
X118186Y11186D01*
X118366Y11033D01*
X118567Y10909D01*
X118785Y10819D01*
X119015Y10764D01*
X119250Y10750D01*
X122500Y10757D01*
Y2000D01*
X87261D01*
Y10183D01*
X87331Y10195D01*
X87480Y10246D01*
X87619Y10319D01*
X87745Y10413D01*
X87855Y10525D01*
X87946Y10654D01*
X88013Y10796D01*
X88204Y11328D01*
X88337Y11877D01*
X88417Y12436D01*
X88444Y13000D01*
X88417Y13564D01*
X88337Y14123D01*
X88204Y14672D01*
X88019Y15206D01*
X87950Y15348D01*
X87858Y15477D01*
X87748Y15591D01*
X87621Y15685D01*
X87481Y15759D01*
X87332Y15809D01*
X87261Y15821D01*
Y27500D01*
G37*
G36*
X82502D02*X87261D01*
Y15821D01*
X87176Y15836D01*
X87018Y15838D01*
X86861Y15815D01*
X86710Y15768D01*
X86569Y15698D01*
X86439Y15607D01*
X86326Y15496D01*
X86232Y15370D01*
X86158Y15230D01*
X86108Y15080D01*
X86081Y14924D01*
X86079Y14766D01*
X86102Y14610D01*
X86152Y14460D01*
X86278Y14108D01*
X86366Y13744D01*
X86419Y13374D01*
X86437Y13000D01*
X86419Y12626D01*
X86366Y12256D01*
X86278Y11892D01*
X86156Y11539D01*
X86106Y11389D01*
X86083Y11234D01*
X86085Y11076D01*
X86112Y10921D01*
X86162Y10772D01*
X86236Y10633D01*
X86330Y10507D01*
X86442Y10397D01*
X86571Y10306D01*
X86712Y10236D01*
X86862Y10189D01*
X87018Y10167D01*
X87175Y10168D01*
X87261Y10183D01*
Y2000D01*
X82502D01*
Y7056D01*
X83064Y7083D01*
X83623Y7163D01*
X84172Y7296D01*
X84706Y7481D01*
X84848Y7550D01*
X84977Y7642D01*
X85091Y7752D01*
X85185Y7879D01*
X85259Y8019D01*
X85309Y8168D01*
X85336Y8324D01*
X85338Y8482D01*
X85315Y8639D01*
X85268Y8790D01*
X85198Y8931D01*
X85107Y9061D01*
X84996Y9174D01*
X84870Y9268D01*
X84730Y9342D01*
X84580Y9392D01*
X84424Y9419D01*
X84266Y9421D01*
X84110Y9398D01*
X83960Y9348D01*
X83608Y9222D01*
X83244Y9134D01*
X82874Y9081D01*
X82502Y9063D01*
Y16937D01*
X82874Y16919D01*
X83244Y16866D01*
X83608Y16778D01*
X83961Y16656D01*
X84111Y16606D01*
X84266Y16583D01*
X84424Y16585D01*
X84579Y16612D01*
X84728Y16662D01*
X84867Y16736D01*
X84993Y16830D01*
X85103Y16942D01*
X85194Y17071D01*
X85264Y17212D01*
X85311Y17362D01*
X85333Y17518D01*
X85332Y17675D01*
X85305Y17831D01*
X85254Y17980D01*
X85181Y18119D01*
X85087Y18245D01*
X84975Y18355D01*
X84846Y18446D01*
X84704Y18513D01*
X84172Y18704D01*
X83623Y18837D01*
X83064Y18917D01*
X82502Y18944D01*
Y27500D01*
G37*
G36*
X77000D02*X82502D01*
Y18944D01*
X82500Y18944D01*
X81936Y18917D01*
X81377Y18837D01*
X80828Y18704D01*
X80294Y18519D01*
X80152Y18450D01*
X80023Y18358D01*
X79909Y18248D01*
X79815Y18121D01*
X79741Y17981D01*
X79691Y17832D01*
X79664Y17676D01*
X79662Y17518D01*
X79685Y17361D01*
X79732Y17210D01*
X79802Y17069D01*
X79893Y16939D01*
X80004Y16826D01*
X80130Y16732D01*
X80270Y16658D01*
X80420Y16608D01*
X80576Y16581D01*
X80734Y16579D01*
X80890Y16602D01*
X81040Y16652D01*
X81392Y16778D01*
X81756Y16866D01*
X82126Y16919D01*
X82500Y16937D01*
X82502Y16937D01*
Y9063D01*
X82500Y9063D01*
X82126Y9081D01*
X81756Y9134D01*
X81392Y9222D01*
X81039Y9344D01*
X80889Y9394D01*
X80734Y9417D01*
X80576Y9415D01*
X80421Y9388D01*
X80272Y9338D01*
X80133Y9264D01*
X80007Y9170D01*
X79897Y9058D01*
X79806Y8929D01*
X79736Y8788D01*
X79689Y8638D01*
X79667Y8482D01*
X79668Y8325D01*
X79695Y8169D01*
X79746Y8020D01*
X79819Y7881D01*
X79913Y7755D01*
X80025Y7645D01*
X80154Y7554D01*
X80296Y7487D01*
X80828Y7296D01*
X81377Y7163D01*
X81936Y7083D01*
X82500Y7056D01*
X82502Y7056D01*
Y2000D01*
X77000D01*
Y9127D01*
X77318Y9500D01*
X77735Y10179D01*
X77824Y10164D01*
X77982Y10162D01*
X78139Y10185D01*
X78290Y10232D01*
X78431Y10302D01*
X78561Y10393D01*
X78674Y10504D01*
X78768Y10630D01*
X78842Y10770D01*
X78892Y10920D01*
X78919Y11076D01*
X78921Y11234D01*
X78898Y11390D01*
X78848Y11540D01*
X78722Y11892D01*
X78634Y12256D01*
X78581Y12626D01*
X78563Y13000D01*
X78581Y13374D01*
X78634Y13744D01*
X78722Y14108D01*
X78844Y14461D01*
X78894Y14611D01*
X78917Y14766D01*
X78915Y14924D01*
X78888Y15079D01*
X78838Y15228D01*
X78764Y15367D01*
X78670Y15493D01*
X78558Y15603D01*
X78429Y15694D01*
X78288Y15764D01*
X78138Y15811D01*
X77982Y15833D01*
X77825Y15832D01*
X77737Y15817D01*
X77318Y16500D01*
X77000Y16873D01*
Y27500D01*
G37*
G36*
X136493Y88000D02*X152000D01*
Y25000D01*
X147950D01*
Y27112D01*
X149135Y27114D01*
X149365Y27169D01*
X149583Y27259D01*
X149784Y27383D01*
X149964Y27536D01*
X150117Y27716D01*
X150241Y27917D01*
X150331Y28135D01*
X150386Y28365D01*
X150400Y28600D01*
X150386Y35635D01*
X150331Y35865D01*
X150241Y36083D01*
X150117Y36284D01*
X149964Y36464D01*
X149784Y36617D01*
X149583Y36741D01*
X149365Y36831D01*
X149135Y36886D01*
X148900Y36900D01*
X141865Y36886D01*
X141635Y36831D01*
X141417Y36741D01*
X141216Y36617D01*
X141036Y36464D01*
X140883Y36284D01*
X140759Y36083D01*
X140669Y35865D01*
X140614Y35635D01*
X140600Y35400D01*
X140614Y28365D01*
X140669Y28135D01*
X140759Y27917D01*
X140883Y27716D01*
X141036Y27536D01*
X141216Y27383D01*
X141417Y27259D01*
X141635Y27169D01*
X141865Y27114D01*
X142100Y27100D01*
X143050Y27102D01*
Y25000D01*
X136493D01*
Y49580D01*
X136683Y49659D01*
X136884Y49783D01*
X137064Y49936D01*
X137217Y50116D01*
X137341Y50317D01*
X137431Y50535D01*
X137486Y50765D01*
X137500Y51000D01*
X137486Y59235D01*
X137431Y59465D01*
X137341Y59683D01*
X137217Y59884D01*
X137064Y60064D01*
X136884Y60217D01*
X136683Y60341D01*
X136493Y60420D01*
Y72145D01*
X136578Y72181D01*
X136679Y72243D01*
X136769Y72319D01*
X136845Y72409D01*
X136905Y72511D01*
X137122Y72980D01*
X137289Y73469D01*
X137409Y73972D01*
X137482Y74484D01*
X137506Y75000D01*
X137482Y75516D01*
X137409Y76028D01*
X137289Y76531D01*
X137122Y77020D01*
X136910Y77492D01*
X136849Y77593D01*
X136772Y77684D01*
X136682Y77761D01*
X136580Y77823D01*
X136493Y77860D01*
Y88000D01*
G37*
G36*
Y25000D02*X132000D01*
Y49507D01*
X136235Y49514D01*
X136465Y49569D01*
X136493Y49580D01*
Y25000D01*
G37*
G36*
X132000Y88000D02*X136493D01*
Y77860D01*
X136471Y77869D01*
X136355Y77897D01*
X136237Y77906D01*
X136119Y77897D01*
X136003Y77870D01*
X135893Y77824D01*
X135792Y77762D01*
X135702Y77686D01*
X135624Y77595D01*
X135562Y77494D01*
X135516Y77385D01*
X135489Y77269D01*
X135479Y77151D01*
X135488Y77032D01*
X135516Y76917D01*
X135563Y76808D01*
X135721Y76468D01*
X135842Y76112D01*
X135930Y75747D01*
X135982Y75375D01*
X136000Y75000D01*
X135982Y74625D01*
X135930Y74253D01*
X135842Y73888D01*
X135721Y73532D01*
X135567Y73190D01*
X135520Y73082D01*
X135493Y72967D01*
X135483Y72849D01*
X135493Y72732D01*
X135521Y72617D01*
X135566Y72508D01*
X135628Y72407D01*
X135705Y72318D01*
X135795Y72241D01*
X135895Y72180D01*
X136004Y72135D01*
X136119Y72107D01*
X136237Y72098D01*
X136355Y72108D01*
X136469Y72135D01*
X136493Y72145D01*
Y60420D01*
X136465Y60431D01*
X136235Y60486D01*
X136000Y60500D01*
X132000Y60493D01*
Y69494D01*
X132516Y69518D01*
X133028Y69591D01*
X133531Y69711D01*
X134020Y69878D01*
X134492Y70090D01*
X134593Y70151D01*
X134684Y70228D01*
X134761Y70318D01*
X134823Y70420D01*
X134869Y70529D01*
X134897Y70645D01*
X134906Y70763D01*
X134897Y70881D01*
X134870Y70997D01*
X134824Y71107D01*
X134762Y71208D01*
X134686Y71298D01*
X134595Y71376D01*
X134494Y71438D01*
X134385Y71484D01*
X134269Y71511D01*
X134151Y71521D01*
X134032Y71512D01*
X133917Y71484D01*
X133808Y71437D01*
X133468Y71279D01*
X133112Y71158D01*
X132747Y71070D01*
X132375Y71018D01*
X132000Y71000D01*
Y79000D01*
X132375Y78982D01*
X132747Y78930D01*
X133112Y78842D01*
X133468Y78721D01*
X133810Y78567D01*
X133918Y78520D01*
X134033Y78493D01*
X134151Y78483D01*
X134268Y78493D01*
X134383Y78521D01*
X134492Y78566D01*
X134593Y78628D01*
X134682Y78705D01*
X134759Y78795D01*
X134820Y78895D01*
X134865Y79004D01*
X134893Y79119D01*
X134902Y79237D01*
X134892Y79355D01*
X134865Y79469D01*
X134819Y79578D01*
X134757Y79679D01*
X134681Y79769D01*
X134591Y79845D01*
X134489Y79905D01*
X134020Y80122D01*
X133531Y80289D01*
X133028Y80409D01*
X132516Y80482D01*
X132000Y80506D01*
Y88000D01*
G37*
G36*
X127507Y49580D02*X127535Y49569D01*
X127765Y49514D01*
X128000Y49500D01*
X132000Y49507D01*
Y25000D01*
X127507D01*
Y49580D01*
G37*
G36*
Y88000D02*X132000D01*
Y80506D01*
X132000D01*
X131484Y80482D01*
X130972Y80409D01*
X130469Y80289D01*
X129980Y80122D01*
X129508Y79910D01*
X129407Y79849D01*
X129316Y79772D01*
X129239Y79682D01*
X129177Y79580D01*
X129131Y79471D01*
X129103Y79355D01*
X129094Y79237D01*
X129103Y79119D01*
X129130Y79003D01*
X129176Y78893D01*
X129238Y78792D01*
X129314Y78702D01*
X129405Y78624D01*
X129506Y78562D01*
X129615Y78516D01*
X129731Y78489D01*
X129849Y78479D01*
X129968Y78488D01*
X130083Y78516D01*
X130192Y78563D01*
X130532Y78721D01*
X130888Y78842D01*
X131253Y78930D01*
X131625Y78982D01*
X132000Y79000D01*
Y71000D01*
X131625Y71018D01*
X131253Y71070D01*
X130888Y71158D01*
X130532Y71279D01*
X130190Y71433D01*
X130082Y71480D01*
X129967Y71507D01*
X129849Y71517D01*
X129732Y71507D01*
X129617Y71479D01*
X129508Y71434D01*
X129407Y71372D01*
X129318Y71295D01*
X129241Y71205D01*
X129180Y71105D01*
X129135Y70996D01*
X129107Y70881D01*
X129098Y70763D01*
X129108Y70645D01*
X129135Y70531D01*
X129181Y70422D01*
X129243Y70321D01*
X129319Y70231D01*
X129409Y70155D01*
X129511Y70095D01*
X129980Y69878D01*
X130469Y69711D01*
X130972Y69591D01*
X131484Y69518D01*
X132000Y69494D01*
Y60493D01*
X127765Y60486D01*
X127535Y60431D01*
X127507Y60420D01*
Y72140D01*
X127529Y72131D01*
X127645Y72103D01*
X127763Y72094D01*
X127881Y72103D01*
X127997Y72130D01*
X128107Y72176D01*
X128208Y72238D01*
X128298Y72314D01*
X128376Y72405D01*
X128438Y72506D01*
X128484Y72615D01*
X128511Y72731D01*
X128521Y72849D01*
X128512Y72968D01*
X128484Y73083D01*
X128437Y73192D01*
X128279Y73532D01*
X128158Y73888D01*
X128070Y74253D01*
X128018Y74625D01*
X128000Y75000D01*
X128018Y75375D01*
X128070Y75747D01*
X128158Y76112D01*
X128279Y76468D01*
X128433Y76810D01*
X128480Y76918D01*
X128507Y77033D01*
X128517Y77151D01*
X128507Y77268D01*
X128479Y77383D01*
X128434Y77492D01*
X128372Y77593D01*
X128295Y77682D01*
X128205Y77759D01*
X128105Y77820D01*
X127996Y77865D01*
X127881Y77893D01*
X127763Y77902D01*
X127645Y77892D01*
X127531Y77865D01*
X127507Y77855D01*
Y88000D01*
G37*
G36*
X109464D02*X127507D01*
Y77855D01*
X127422Y77819D01*
X127321Y77757D01*
X127231Y77681D01*
X127155Y77591D01*
X127095Y77489D01*
X126878Y77020D01*
X126711Y76531D01*
X126591Y76028D01*
X126518Y75516D01*
X126494Y75000D01*
X126518Y74484D01*
X126591Y73972D01*
X126711Y73469D01*
X126878Y72980D01*
X127090Y72508D01*
X127151Y72407D01*
X127228Y72316D01*
X127318Y72239D01*
X127420Y72177D01*
X127507Y72140D01*
Y60420D01*
X127317Y60341D01*
X127116Y60217D01*
X126936Y60064D01*
X126783Y59884D01*
X126659Y59683D01*
X126569Y59465D01*
X126514Y59235D01*
X126500Y59000D01*
X126514Y50765D01*
X126569Y50535D01*
X126659Y50317D01*
X126783Y50116D01*
X126936Y49936D01*
X127116Y49783D01*
X127317Y49659D01*
X127507Y49580D01*
Y25000D01*
X109464D01*
Y29564D01*
X109549Y29589D01*
X109655Y29639D01*
X109753Y29706D01*
X109839Y29787D01*
X109911Y29880D01*
X109966Y29984D01*
X110141Y30412D01*
X110270Y30855D01*
X110357Y31309D01*
X110400Y31769D01*
Y32231D01*
X110357Y32691D01*
X110270Y33145D01*
X110141Y33588D01*
X109971Y34018D01*
X109915Y34122D01*
X109842Y34216D01*
X109755Y34297D01*
X109657Y34364D01*
X109550Y34414D01*
X109464Y34440D01*
Y88000D01*
G37*
G36*
X105164D02*X109464D01*
Y34440D01*
X109436Y34448D01*
X109318Y34462D01*
X109200Y34459D01*
X109083Y34437D01*
X108972Y34396D01*
X108868Y34339D01*
X108774Y34266D01*
X108693Y34180D01*
X108626Y34082D01*
X108575Y33975D01*
X108542Y33861D01*
X108527Y33743D01*
X108531Y33624D01*
X108553Y33508D01*
X108596Y33397D01*
X108717Y33101D01*
X108806Y32793D01*
X108866Y32479D01*
X108896Y32160D01*
Y31840D01*
X108866Y31521D01*
X108806Y31207D01*
X108717Y30899D01*
X108599Y30601D01*
X108557Y30491D01*
X108535Y30375D01*
X108531Y30257D01*
X108546Y30140D01*
X108579Y30027D01*
X108629Y29920D01*
X108696Y29822D01*
X108776Y29736D01*
X108870Y29664D01*
X108973Y29607D01*
X109084Y29567D01*
X109200Y29545D01*
X109318Y29541D01*
X109435Y29556D01*
X109464Y29564D01*
Y25000D01*
X105164D01*
Y27110D01*
X105269Y27100D01*
X105731D01*
X106191Y27143D01*
X106645Y27230D01*
X107088Y27359D01*
X107518Y27529D01*
X107622Y27585D01*
X107716Y27658D01*
X107797Y27745D01*
X107864Y27843D01*
X107914Y27950D01*
X107948Y28064D01*
X107962Y28182D01*
X107959Y28300D01*
X107936Y28417D01*
X107896Y28528D01*
X107839Y28632D01*
X107766Y28726D01*
X107680Y28807D01*
X107582Y28874D01*
X107475Y28925D01*
X107361Y28958D01*
X107243Y28973D01*
X107124Y28969D01*
X107008Y28947D01*
X106897Y28904D01*
X106601Y28783D01*
X106293Y28694D01*
X105979Y28634D01*
X105660Y28604D01*
X105340D01*
X105164Y28620D01*
Y35380D01*
X105340Y35396D01*
X105660D01*
X105979Y35366D01*
X106293Y35306D01*
X106601Y35217D01*
X106899Y35099D01*
X107009Y35057D01*
X107125Y35035D01*
X107243Y35031D01*
X107360Y35046D01*
X107473Y35079D01*
X107580Y35129D01*
X107678Y35196D01*
X107764Y35276D01*
X107836Y35370D01*
X107893Y35473D01*
X107933Y35584D01*
X107955Y35700D01*
X107959Y35818D01*
X107944Y35935D01*
X107911Y36049D01*
X107861Y36155D01*
X107794Y36253D01*
X107713Y36339D01*
X107620Y36411D01*
X107516Y36466D01*
X107088Y36641D01*
X106645Y36770D01*
X106191Y36857D01*
X105731Y36900D01*
X105269D01*
X105164Y36890D01*
Y49357D01*
X105246Y49391D01*
X105511Y49553D01*
X105746Y49754D01*
X105947Y49989D01*
X106109Y50254D01*
X106228Y50540D01*
X106300Y50841D01*
X106318Y51150D01*
X106300Y59159D01*
X106228Y59460D01*
X106109Y59746D01*
X105947Y60011D01*
X105746Y60246D01*
X105511Y60447D01*
X105246Y60609D01*
X105164Y60643D01*
Y72246D01*
X105237Y72258D01*
X105384Y72308D01*
X105521Y72381D01*
X105645Y72474D01*
X105753Y72585D01*
X105842Y72711D01*
X105907Y72852D01*
X106092Y73370D01*
X106221Y73905D01*
X106299Y74450D01*
X106325Y75000D01*
X106299Y75550D01*
X106221Y76095D01*
X106092Y76630D01*
X105913Y77151D01*
X105846Y77291D01*
X105756Y77418D01*
X105647Y77530D01*
X105523Y77623D01*
X105385Y77696D01*
X105238Y77746D01*
X105164Y77759D01*
Y88000D01*
G37*
G36*
Y25000D02*X101536D01*
Y29560D01*
X101564Y29552D01*
X101682Y29538D01*
X101800Y29541D01*
X101917Y29564D01*
X102028Y29604D01*
X102132Y29661D01*
X102226Y29734D01*
X102307Y29820D01*
X102374Y29918D01*
X102425Y30025D01*
X102458Y30139D01*
X102473Y30257D01*
X102469Y30376D01*
X102447Y30492D01*
X102404Y30603D01*
X102283Y30899D01*
X102194Y31207D01*
X102134Y31521D01*
X102104Y31840D01*
Y32160D01*
X102134Y32479D01*
X102194Y32793D01*
X102283Y33101D01*
X102401Y33399D01*
X102443Y33509D01*
X102465Y33625D01*
X102469Y33743D01*
X102454Y33860D01*
X102421Y33973D01*
X102371Y34080D01*
X102304Y34178D01*
X102224Y34264D01*
X102130Y34336D01*
X102027Y34393D01*
X101916Y34433D01*
X101800Y34455D01*
X101682Y34459D01*
X101565Y34444D01*
X101536Y34436D01*
Y49193D01*
X104659Y49200D01*
X104960Y49272D01*
X105164Y49357D01*
Y36890D01*
X104809Y36857D01*
X104355Y36770D01*
X103912Y36641D01*
X103482Y36471D01*
X103378Y36415D01*
X103284Y36342D01*
X103203Y36255D01*
X103136Y36157D01*
X103086Y36050D01*
X103052Y35936D01*
X103038Y35818D01*
X103041Y35700D01*
X103063Y35583D01*
X103104Y35472D01*
X103161Y35368D01*
X103234Y35274D01*
X103320Y35193D01*
X103418Y35126D01*
X103525Y35075D01*
X103639Y35042D01*
X103757Y35027D01*
X103876Y35031D01*
X103992Y35053D01*
X104103Y35096D01*
X104399Y35217D01*
X104707Y35306D01*
X105021Y35366D01*
X105164Y35380D01*
Y28620D01*
X105021Y28634D01*
X104707Y28694D01*
X104399Y28783D01*
X104101Y28901D01*
X103991Y28943D01*
X103875Y28965D01*
X103757Y28969D01*
X103640Y28954D01*
X103527Y28921D01*
X103420Y28871D01*
X103322Y28804D01*
X103236Y28724D01*
X103164Y28630D01*
X103107Y28527D01*
X103067Y28416D01*
X103045Y28300D01*
X103041Y28182D01*
X103056Y28065D01*
X103089Y27951D01*
X103139Y27845D01*
X103206Y27747D01*
X103287Y27661D01*
X103380Y27589D01*
X103484Y27534D01*
X103912Y27359D01*
X104355Y27230D01*
X104809Y27143D01*
X105164Y27110D01*
Y25000D01*
G37*
G36*
X101536D02*X100502D01*
Y49190D01*
X101536Y49193D01*
Y34436D01*
X101451Y34411D01*
X101345Y34361D01*
X101247Y34294D01*
X101161Y34213D01*
X101089Y34120D01*
X101034Y34016D01*
X100859Y33588D01*
X100730Y33145D01*
X100643Y32691D01*
X100600Y32231D01*
Y31769D01*
X100643Y31309D01*
X100730Y30855D01*
X100859Y30412D01*
X101029Y29982D01*
X101085Y29878D01*
X101158Y29784D01*
X101245Y29703D01*
X101343Y29636D01*
X101450Y29586D01*
X101536Y29560D01*
Y25000D01*
G37*
G36*
X100502Y88000D02*X105164D01*
Y77759D01*
X105085Y77772D01*
X104929Y77775D01*
X104775Y77752D01*
X104626Y77707D01*
X104487Y77638D01*
X104360Y77548D01*
X104248Y77440D01*
X104155Y77315D01*
X104082Y77178D01*
X104032Y77030D01*
X104005Y76877D01*
X104003Y76722D01*
X104025Y76568D01*
X104074Y76420D01*
X104196Y76077D01*
X104281Y75724D01*
X104333Y75363D01*
X104350Y75000D01*
X104333Y74637D01*
X104281Y74276D01*
X104196Y73923D01*
X104078Y73578D01*
X104029Y73432D01*
X104007Y73278D01*
X104010Y73123D01*
X104036Y72971D01*
X104086Y72824D01*
X104158Y72687D01*
X104251Y72563D01*
X104362Y72455D01*
X104489Y72366D01*
X104628Y72297D01*
X104776Y72252D01*
X104929Y72230D01*
X105084Y72232D01*
X105164Y72246D01*
Y60643D01*
X104960Y60728D01*
X104659Y60800D01*
X104350Y60818D01*
X100502Y60810D01*
Y69175D01*
X101050Y69201D01*
X101595Y69279D01*
X102130Y69408D01*
X102651Y69587D01*
X102791Y69654D01*
X102918Y69744D01*
X103030Y69853D01*
X103123Y69977D01*
X103196Y70115D01*
X103246Y70262D01*
X103272Y70415D01*
X103275Y70571D01*
X103252Y70725D01*
X103207Y70874D01*
X103138Y71013D01*
X103048Y71140D01*
X102940Y71252D01*
X102815Y71345D01*
X102678Y71418D01*
X102530Y71468D01*
X102377Y71495D01*
X102222Y71497D01*
X102068Y71475D01*
X101920Y71426D01*
X101577Y71304D01*
X101224Y71219D01*
X100863Y71167D01*
X100502Y71150D01*
Y78850D01*
X100863Y78833D01*
X101224Y78781D01*
X101577Y78696D01*
X101922Y78578D01*
X102068Y78529D01*
X102222Y78507D01*
X102377Y78510D01*
X102529Y78536D01*
X102676Y78586D01*
X102813Y78658D01*
X102937Y78751D01*
X103045Y78862D01*
X103134Y78989D01*
X103203Y79128D01*
X103248Y79276D01*
X103270Y79429D01*
X103268Y79584D01*
X103242Y79737D01*
X103192Y79884D01*
X103119Y80021D01*
X103026Y80145D01*
X102915Y80253D01*
X102789Y80342D01*
X102648Y80407D01*
X102130Y80592D01*
X101595Y80721D01*
X101050Y80799D01*
X100502Y80825D01*
Y88000D01*
G37*
G36*
X95836Y49357D02*X96040Y49272D01*
X96341Y49200D01*
X96650Y49182D01*
X100502Y49190D01*
Y25000D01*
X95836D01*
Y49357D01*
G37*
G36*
Y88000D02*X100502D01*
Y80825D01*
X100500Y80825D01*
X99950Y80799D01*
X99405Y80721D01*
X98870Y80592D01*
X98349Y80413D01*
X98209Y80346D01*
X98082Y80256D01*
X97970Y80147D01*
X97877Y80023D01*
X97804Y79885D01*
X97754Y79738D01*
X97728Y79585D01*
X97725Y79429D01*
X97748Y79275D01*
X97793Y79126D01*
X97862Y78987D01*
X97952Y78860D01*
X98060Y78748D01*
X98185Y78655D01*
X98322Y78582D01*
X98470Y78532D01*
X98623Y78505D01*
X98778Y78503D01*
X98932Y78525D01*
X99080Y78574D01*
X99423Y78696D01*
X99776Y78781D01*
X100137Y78833D01*
X100500Y78850D01*
X100502Y78850D01*
Y71150D01*
X100500Y71150D01*
X100137Y71167D01*
X99776Y71219D01*
X99423Y71304D01*
X99078Y71422D01*
X98932Y71471D01*
X98778Y71493D01*
X98623Y71490D01*
X98471Y71464D01*
X98324Y71414D01*
X98187Y71342D01*
X98063Y71249D01*
X97955Y71138D01*
X97866Y71011D01*
X97797Y70872D01*
X97752Y70724D01*
X97730Y70571D01*
X97732Y70416D01*
X97758Y70263D01*
X97808Y70116D01*
X97881Y69979D01*
X97974Y69855D01*
X98085Y69747D01*
X98211Y69658D01*
X98352Y69593D01*
X98870Y69408D01*
X99405Y69279D01*
X99950Y69201D01*
X100500Y69175D01*
X100502Y69175D01*
Y60810D01*
X96341Y60800D01*
X96040Y60728D01*
X95836Y60643D01*
Y72241D01*
X95915Y72228D01*
X96071Y72225D01*
X96225Y72248D01*
X96374Y72293D01*
X96513Y72362D01*
X96640Y72452D01*
X96752Y72560D01*
X96845Y72685D01*
X96918Y72822D01*
X96968Y72970D01*
X96995Y73123D01*
X96997Y73278D01*
X96975Y73432D01*
X96926Y73580D01*
X96804Y73923D01*
X96719Y74276D01*
X96667Y74637D01*
X96650Y75000D01*
X96667Y75363D01*
X96719Y75724D01*
X96804Y76077D01*
X96922Y76422D01*
X96971Y76568D01*
X96993Y76722D01*
X96990Y76877D01*
X96964Y77029D01*
X96914Y77176D01*
X96842Y77313D01*
X96749Y77437D01*
X96638Y77545D01*
X96511Y77634D01*
X96372Y77703D01*
X96224Y77748D01*
X96071Y77770D01*
X95916Y77768D01*
X95836Y77754D01*
Y88000D01*
G37*
G36*
X88000D02*X95836D01*
Y77754D01*
X95763Y77742D01*
X95616Y77692D01*
X95479Y77619D01*
X95355Y77526D01*
X95247Y77415D01*
X95158Y77289D01*
X95093Y77148D01*
X94908Y76630D01*
X94779Y76095D01*
X94701Y75550D01*
X94675Y75000D01*
X94701Y74450D01*
X94779Y73905D01*
X94908Y73370D01*
X95087Y72849D01*
X95154Y72709D01*
X95244Y72582D01*
X95353Y72470D01*
X95477Y72377D01*
X95615Y72304D01*
X95762Y72254D01*
X95836Y72241D01*
Y60643D01*
X95754Y60609D01*
X95489Y60447D01*
X95254Y60246D01*
X95053Y60011D01*
X94891Y59746D01*
X94772Y59460D01*
X94700Y59159D01*
X94682Y58850D01*
X94700Y50841D01*
X94772Y50540D01*
X94891Y50254D01*
X95053Y49989D01*
X95254Y49754D01*
X95489Y49553D01*
X95754Y49391D01*
X95836Y49357D01*
Y25000D01*
X88000D01*
Y88000D01*
G37*
G54D12*X132500Y15500D02*X142000D01*
X145500Y19000D01*
Y32000D01*
G54D13*X79000Y55000D03*
Y75000D03*
G54D14*X100500D03*
G54D11*G36*
X46000Y78000D02*Y72000D01*
X52000D01*
Y78000D01*
X46000D01*
G37*
G54D13*X49000Y55000D03*
G54D11*G36*
X17500Y79000D02*Y71000D01*
X25500D01*
Y79000D01*
X17500D01*
G37*
G54D15*X21500Y55000D03*
G54D11*G36*
X18500Y30900D02*Y24900D01*
X24500D01*
Y30900D01*
X18500D01*
G37*
G54D13*X21500Y14100D03*
G54D11*G36*
X96650Y58850D02*Y51150D01*
X104350D01*
Y58850D01*
X96650D01*
G37*
G54D16*X105500Y32000D03*
G54D17*X82500Y13000D03*
X72500D03*
G54D11*G36*
X58563Y16937D02*Y9063D01*
X66437D01*
Y16937D01*
X58563D01*
G37*
G36*
X128000Y59000D02*Y51000D01*
X136000D01*
Y59000D01*
X128000D01*
G37*
G54D15*X132000Y75000D03*
G54D11*G36*
X119250Y18750D02*Y12250D01*
X125750D01*
Y18750D01*
X119250D01*
G37*
G54D18*X132500Y15500D03*
G54D11*G36*
X142100Y35400D02*Y28600D01*
X148900D01*
Y35400D01*
X142100D01*
G37*
G54D19*G54D20*G54D19*G54D21*G54D20*G54D22*G54D23*G54D21*G54D24*G54D22*M02*
